<?xml version="1.0" encoding="utf-8"?>
<!-- Generator: Adobe Illustrator 22.0.0, SVG Export Plug-In . SVG Version: 6.00 Build 0)  -->
<svg version="1.1" xmlns="http://www.w3.org/2000/svg" xmlns:xlink="http://www.w3.org/1999/xlink" x="0px" y="0px"
	 viewBox="0 0 136.5 227.1" style="enable-background:new 0 0 136.5 227.1;" xml:space="preserve">
<style type="text/css">
	.st0{fill:none;}
	.st1{fill:#DBD9D7;}
</style>
<g id="Layer_2">
</g>
<g id="Layer_1">
	<g>
		<polygon class="st0" points="495,-91.7 495,-184.9 494.5,-184.9 449.8,-142.5 		"/>
		<polygon class="st0" points="327,-184.9 326.8,-184.9 326.8,-91.7 371.9,-142.3 		"/>
		<polygon class="st0" points="480.2,-184.5 341.3,-184.5 410.7,-118.5 		"/>
		<polygon class="st0" points="410.7,-105.4 378.8,-135.7 332.7,-83.9 489.1,-83.9 442.9,-135.9 		"/>
		<path class="st1" d="M317.3-194.5v120.1h187.3v-120.1H317.3z M495-184.9v93.3l-45.2-50.8l44.7-42.5H495z M326.8-184.9h0.2
			l44.8,42.6l-45.1,50.7V-184.9z M341.3-184.5h138.9l-69.4,66L341.3-184.5z M332.7-83.9l46.1-51.9l32,30.4l32.1-30.5l46.3,52H332.7z
			"/>
	</g>
	<g>
		<path class="st1" d="M554.3-370.4c0-0.1,0-0.3-0.1-0.4c-0.5-0.9-2.7-4.1-8.4-4.1c0,0,0,0-0.1,0c-5.9,0-8,3.3-8.4,4.1
			c-0.1,0.1-0.1,0.3-0.1,0.4l0,2c0,0.5,0.4,0.9,0.9,0.9c0,0,0,0,0,0l1.8,0v6.5h11.7v-6.6l1.8,0c0.5,0,0.9-0.4,0.9-0.9L554.3-370.4z
			 M551.6-368.6l-0.5,0l-0.5,0l-1.3,0l0-1c0-0.9-0.7-1.7-1.6-1.8c-0.6-0.1-1.3-0.2-2-0.2c0,0,0,0,0,0c-0.7,0-1.3,0.1-2,0.2
			c-0.9,0.2-1.5,0.9-1.5,1.9l0,1l-1.4,0l-0.5,0l-0.5,0l-1.7,0l0-1.8c0.2-0.3,0.7-1.1,1.7-1.9c0.2-0.2,0.5-0.3,0.8-0.5
			c1.2-0.6,2.8-1.2,5.1-1.2l0.1,0c2.2,0,3.9,0.5,5,1.2c0.3,0.2,0.6,0.3,0.8,0.5c0.9,0.7,1.5,1.4,1.7,1.8l0,1.8L551.6-368.6z
			 M550.6-362h-9.7v-5.5l1.5,0c0.5,0,0.9-0.4,0.9-0.9l0-1.2c0-0.4,0.3-0.8,0.7-0.9c0.6-0.1,1.2-0.2,1.8-0.2c0,0,0,0,0,0
			c0.6,0,1.2,0.1,1.7,0.2c0.4,0.1,0.7,0.4,0.7,0.9l0,1.2c0,0.5,0.4,0.9,0.9,0.9c0,0,0,0,0,0l1.5,0V-362z"/>
		<path class="st1" d="M545.8-367.4c-1.1,0-2,0.9-2,2s0.9,2,2,2s2-0.9,2-2S546.8-367.4,545.8-367.4z M545.8-364.5c-0.5,0-1-0.4-1-1
			s0.4-1,1-1c0.5,0,1,0.4,1,1S546.3-364.5,545.8-364.5z"/>
	</g>
	<g>
		<path class="st1" d="M68.2,0C30.6,0,0,30.6,0,68.2C0,103.8,60.4,213,63,217.7l5.3,9.5l5.3-9.5c2.6-4.6,63-113.9,63-149.4
			C136.5,30.6,105.9,0,68.2,0z M68.2,202.2C48.7,165.9,12,92.7,12,68.2C12,37.3,37.3,12,68.2,12c31,0,56.2,25.2,56.2,56.2
			C124.5,92.7,87.8,165.9,68.2,202.2z"/>
		<path class="st1" d="M68.2,44.6c-17.6,0-31.9,14.3-31.9,31.9c0,17.6,14.3,31.9,31.9,31.9c17.6,0,31.9-14.3,31.9-31.9
			C100.1,58.9,85.8,44.6,68.2,44.6z M68.2,96.4c-10.9,0-19.9-8.9-19.9-19.9c0-10.9,8.9-19.9,19.9-19.9c11,0,19.9,8.9,19.9,19.9
			C88.1,87.5,79.2,96.4,68.2,96.4z"/>
	</g>
	<g>
		<polygon class="st1" points="542.2,-223.6 549,-219.1 549.7,-220.2 542.2,-225.2 542.2,-225.2 542.2,-225.2 534.7,-220.2 
			535.4,-219.1 		"/>
		<polygon class="st1" points="542.2,-221.5 542.2,-221.5 534.7,-216.6 535.4,-215.4 542.2,-219.9 549,-215.4 549.7,-216.6 
			542.2,-221.5 		"/>
	</g>
	<path class="st1" d="M545.7-281.6v-2.7h-13.3v10.7h2.6v2.7h13.3v-10.7H545.7z M535-274.7h-1.6v-8.7h11.3v1.7H535V-274.7z
		 M547.3-272H536v-8.7h11.3V-272z"/>
	<g>
		<path class="st1" d="M355.3,5.3c-50.6,0-91.8,41.2-91.8,91.8s41.2,91.8,91.8,91.8s91.8-41.2,91.8-91.8S405.9,5.3,355.3,5.3z
			 M355.3,178.8c-45,0-81.7-36.7-81.7-81.7s36.7-81.7,81.7-81.7S437,52.1,437,97.1S400.3,178.8,355.3,178.8z"/>
		<rect x="347.5" y="68.1" class="st1" width="15.3" height="87.3"/>
		<path class="st1" d="M363,32.9c-1-1-2.2-1.8-3.5-2.4c-1.3-0.6-2.7-0.9-4.2-0.9s-2.9,0.3-4.2,0.9c-1.3,0.6-2.4,1.4-3.4,2.4
			c-1,1-1.8,2.2-2.4,3.5c-0.6,1.3-0.9,2.8-0.9,4.3s0.3,2.9,0.9,4.2c0.6,1.3,1.4,2.4,2.4,3.4c1,1,2.2,1.8,3.4,2.4
			c1.3,0.6,2.7,0.9,4.2,0.9s2.9-0.3,4.2-0.9c1.3-0.6,2.5-1.4,3.5-2.4c1-1,1.8-2.2,2.4-3.4s0.9-2.7,0.9-4.2s-0.3-2.9-0.9-4.3
			C364.8,35.1,364,33.9,363,32.9z"/>
	</g>
	<g>
		<path class="st1" d="M570.7-291.7v10c2.8,0,5-2.2,5-5C575.7-289.4,573.5-291.7,570.7-291.7z M573.2-285.7l-0.3,0.2l-0.7-1.1
			l0.7-1.1l0.3,0.2l-0.6,1L573.2-285.7z"/>
	</g>
	<g>
		<g>
			<path class="st1" d="M663.2-302.6h-75.4v-8.8h75.4l2.1,4.4L663.2-302.6z M588.1-302.9H663l1.9-4.1l-1.9-4.1h-74.8V-302.9z"/>
		</g>
		<g>
			<g>
				<path class="st1" d="M592.9-305.2l-0.1-0.2c0-0.1-1.1-2.1-1.1-2.7c0-0.7,0.6-1.2,1.2-1.2c0.7,0,1.2,0.6,1.2,1.2
					c0,0.6-1.1,2.6-1.1,2.7L592.9-305.2z M592.9-309.1c-0.6,0-1,0.5-1,1c0,0.4,0.7,1.8,1,2.4c0.4-0.7,1-2,1-2.4
					C593.9-308.6,593.4-309.1,592.9-309.1z"/>
			</g>
		</g>
		<g>
			<g>
				<path class="st1" d="M592.9-307.3c-0.3,0-0.6-0.3-0.6-0.6c0-0.3,0.3-0.6,0.6-0.6c0.3,0,0.6,0.3,0.6,0.6
					C593.4-307.6,593.2-307.3,592.9-307.3z M592.9-308.2c-0.2,0-0.4,0.2-0.4,0.4c0,0.2,0.2,0.4,0.4,0.4c0.2,0,0.4-0.2,0.4-0.4
					C593.2-308.1,593.1-308.2,592.9-308.2z"/>
			</g>
		</g>
	</g>
	<g>
		<path class="st1" d="M669.8-2.1c0-1.7-0.4-3.3-1.2-4.8c-5.6-9.8-30.9-46.6-96.1-46.6c-0.2,0-0.4,0-0.6,0
			c-68,0.2-91.6,37.8-96.5,47.4c-0.7,1.4-1.1,2.9-1,4.5l0.2,22.6c0,5.5,4.5,10,10,10c0,0,0,0,0,0l20.7-0.1v74.4h133.9V30.4l20.9-0.1
			c5.5,0,10-4.5,10-10L669.8-2.1z M639.1,19l-5.7,0l-5.7,0l-15.4,0.1L612,7.4c0-10.4-7.5-19.2-17.8-21.1c-7.1-1.3-14.5-1.9-22.3-1.9
			c0,0,0,0,0,0c-7.6,0-15.1,0.7-22.3,2.1C539.4-11.6,532-2.7,532,7.8l0.2,11.6l-15.6,0.1l-5.7,0l-5.7,0l-19.3,0.1l-0.2-20.8
			c1.9-3.6,7.7-12.8,19.5-21.5c2.7-2,5.6-3.9,9-5.8C527.4-36,546-42,571.8-42.1l0.6,0c25.5,0,44,6,57.4,13.5c3.4,1.9,6.5,4,9.3,6
			c10.7,8,16.7,16.5,19.3,20.9l0.2,20.6L639.1,19z M627.6,93.9H516.6v-63l17.1-0.1c5.5,0,10-4.5,10-10l-0.2-13.2
			c0-4.9,3.5-9,8.3-9.9c6.4-1.2,13.2-1.9,20.3-1.9c0.1,0,0.3,0,0.4,0c6.9,0,13.6,0.6,19.8,1.8c4.8,0.9,8.3,5,8.4,9.9l0.2,13.2
			c0,5.5,4.5,10,10,10c0,0,0,0,0,0l16.8-0.1V93.9z"/>
		<path class="st1" d="M572.6,32.5c-12.3,0-22.3,10-22.3,22.3s10,22.3,22.3,22.3s22.3-10,22.3-22.3S584.9,32.5,572.6,32.5z
			 M572.6,65.6c-6,0-10.9-4.9-10.9-10.9s4.9-10.9,10.9-10.9c6,0,10.9,4.9,10.9,10.9S578.5,65.6,572.6,65.6z"/>
	</g>
	<g>
		<polygon class="st1" points="639.9,-177.9 721.6,-123.7 730.6,-137.3 639.9,-197.4 639.9,-197.4 639.8,-197.4 549.1,-137.3 
			558.1,-123.7 		"/>
		<polygon class="st1" points="639.9,-152.9 639.8,-153 549.1,-92.8 558.1,-79.3 639.9,-133.4 721.6,-79.3 730.6,-92.8 639.9,-153 
					"/>
	</g>
	<path class="st1" d="M209.2-225.6v-31.2H57.8v121h29.8v31.2H239v-121H209.2z M87.7-147.1H69.2v-98.3h128.7v19.8H87.7V-147.1z
		 M227.7-115.9H99v-98.3h128.7V-115.9z"/>
</g>
</svg>
