<?xml version="1.0" encoding="utf-8"?>
<!-- Generator: Adobe Illustrator 22.0.0, SVG Export Plug-In . SVG Version: 6.00 Build 0)  -->
<svg version="1.1" xmlns="http://www.w3.org/2000/svg" xmlns:xlink="http://www.w3.org/1999/xlink" x="0px" y="0px"
	 viewBox="0 0 187.3 120.1" style="enable-background:new 0 0 187.3 120.1;" xml:space="preserve">
<style type="text/css">
	.st0{fill:none;}
	.st1{fill:#DBD9D7;}
</style>
<g id="Layer_2">
</g>
<g id="Layer_1">
	<g>
		<polygon class="st0" points="177.7,102.8 177.7,9.5 177.2,9.5 132.5,52 		"/>
		<polygon class="st0" points="9.8,9.5 9.5,9.5 9.5,102.8 54.6,52.2 		"/>
		<polygon class="st0" points="162.9,10 24,10 93.5,75.9 		"/>
		<polygon class="st0" points="93.5,89.1 61.5,58.7 15.4,110.6 171.9,110.6 125.6,58.6 		"/>
		<path class="st1" d="M0,0v120.1h187.3V0H0z M177.7,9.5v93.3L132.5,52l44.7-42.5H177.7z M9.5,9.5h0.2l44.8,42.6L9.5,102.8V9.5z
			 M24,10h138.9l-69.4,66L24,10z M15.4,110.6l46.1-51.9l32,30.4l32.1-30.5l46.3,52H15.4z"/>
	</g>
	<g>
		<path class="st1" d="M555.4-369.6c0-0.1,0-0.3-0.1-0.4c-0.5-0.9-2.7-4.1-8.4-4.1c0,0,0,0-0.1,0c-5.9,0-8,3.3-8.4,4.1
			c-0.1,0.1-0.1,0.3-0.1,0.4l0,2c0,0.5,0.4,0.9,0.9,0.9c0,0,0,0,0,0l1.8,0v6.5h11.7v-6.6l1.8,0c0.5,0,0.9-0.4,0.9-0.9L555.4-369.6z
			 M552.7-367.8l-0.5,0l-0.5,0l-1.3,0l0-1c0-0.9-0.7-1.7-1.6-1.8c-0.6-0.1-1.3-0.2-2-0.2c0,0,0,0,0,0c-0.7,0-1.3,0.1-2,0.2
			c-0.9,0.2-1.5,0.9-1.5,1.9l0,1l-1.4,0l-0.5,0l-0.5,0l-1.7,0l0-1.8c0.2-0.3,0.7-1.1,1.7-1.9c0.2-0.2,0.5-0.3,0.8-0.5
			c1.2-0.6,2.8-1.2,5.1-1.2l0.1,0c2.2,0,3.9,0.5,5,1.2c0.3,0.2,0.6,0.3,0.8,0.5c0.9,0.7,1.5,1.4,1.7,1.8l0,1.8L552.7-367.8z
			 M551.7-361.2H542v-5.5l1.5,0c0.5,0,0.9-0.4,0.9-0.9l0-1.2c0-0.4,0.3-0.8,0.7-0.9c0.6-0.1,1.2-0.2,1.8-0.2c0,0,0,0,0,0
			c0.6,0,1.2,0.1,1.7,0.2c0.4,0.1,0.7,0.4,0.7,0.9l0,1.2c0,0.5,0.4,0.9,0.9,0.9c0,0,0,0,0,0l1.5,0V-361.2z"/>
		<path class="st1" d="M546.9-366.6c-1.1,0-2,0.9-2,2s0.9,2,2,2s2-0.9,2-2S548-366.6,546.9-366.6z M546.9-363.7c-0.5,0-1-0.4-1-1
			s0.4-1,1-1c0.5,0,1,0.4,1,1S547.4-363.7,546.9-363.7z"/>
	</g>
	<g>
		<path class="st1" d="M542.6-322.7c-3.5,0-6.4,2.9-6.4,6.4c0,3.3,5.7,13.6,5.9,14.1l0.5,0.9l0.5-0.9c0.2-0.4,5.9-10.7,5.9-14.1
			C549.1-319.8,546.2-322.7,542.6-322.7z M542.6-303.6c-1.8-3.4-5.3-10.3-5.3-12.6c0-2.9,2.4-5.3,5.3-5.3c2.9,0,5.3,2.4,5.3,5.3
			C547.9-313.9,544.5-307,542.6-303.6z"/>
		<path class="st1" d="M542.6-318.5c-1.7,0-3,1.3-3,3c0,1.7,1.3,3,3,3c1.7,0,3-1.3,3-3C545.6-317.1,544.3-318.5,542.6-318.5z
			 M542.6-313.6c-1,0-1.9-0.8-1.9-1.9c0-1,0.8-1.9,1.9-1.9c1,0,1.9,0.8,1.9,1.9C544.5-314.4,543.7-313.6,542.6-313.6z"/>
	</g>
	<g>
		<polygon class="st1" points="543.3,-222.8 550.1,-218.3 550.9,-219.5 543.3,-224.4 543.3,-224.4 543.3,-224.4 535.8,-219.5 
			536.6,-218.3 		"/>
		<polygon class="st1" points="543.3,-220.8 543.3,-220.8 535.8,-215.8 536.6,-214.7 543.3,-219.1 550.1,-214.7 550.9,-215.8 
			543.3,-220.8 		"/>
	</g>
	<path class="st1" d="M546.8-280.9v-2.7h-13.3v10.7h2.6v2.7h13.3v-10.7H546.8z M536.1-273.9h-1.6v-8.7h11.3v1.7h-9.7V-273.9z
		 M548.4-271.2h-11.3v-8.7h11.3V-271.2z"/>
	<g>
		<path class="st1" d="M356.4,6.1c-50.6,0-91.8,41.2-91.8,91.8s41.2,91.8,91.8,91.8s91.8-41.2,91.8-91.8S407.1,6.1,356.4,6.1z
			 M356.4,179.6c-45,0-81.7-36.7-81.7-81.7s36.7-81.7,81.7-81.7s81.7,36.6,81.7,81.7S401.5,179.6,356.4,179.6z"/>
		<rect x="348.7" y="68.9" class="st1" width="15.3" height="87.3"/>
		<path class="st1" d="M364.1,33.7c-1-1-2.2-1.8-3.5-2.4c-1.3-0.6-2.7-0.9-4.2-0.9s-2.9,0.3-4.2,0.9c-1.3,0.6-2.4,1.4-3.4,2.4
			c-1,1-1.8,2.2-2.4,3.5c-0.6,1.3-0.9,2.8-0.9,4.3s0.3,2.9,0.9,4.2c0.6,1.3,1.4,2.4,2.4,3.4c1,1,2.2,1.8,3.4,2.4
			c1.3,0.6,2.7,0.9,4.2,0.9s2.9-0.3,4.2-0.9c1.3-0.6,2.5-1.4,3.5-2.4c1-1,1.8-2.2,2.4-3.4c0.6-1.3,0.9-2.7,0.9-4.2s-0.3-2.9-0.9-4.3
			C365.9,35.8,365.1,34.7,364.1,33.7z"/>
	</g>
	<g>
		<path class="st1" d="M571.8-290.9v10c2.8,0,5-2.2,5-5C576.8-288.7,574.6-290.9,571.8-290.9z M574.4-284.9l-0.3,0.2l-0.7-1.1
			l0.7-1.1l0.3,0.2l-0.6,1L574.4-284.9z"/>
	</g>
	<g>
		<g>
			<path class="st1" d="M664.3-301.8h-75.4v-8.8h75.4l2.1,4.4L664.3-301.8z M589.3-302.2h74.8l1.9-4.1l-1.9-4.1h-74.8V-302.2z"/>
		</g>
		<g>
			<g>
				<path class="st1" d="M594-304.4l-0.1-0.2c0-0.1-1.1-2.1-1.1-2.7c0-0.7,0.6-1.2,1.2-1.2c0.7,0,1.2,0.6,1.2,1.2
					c0,0.6-1.1,2.6-1.1,2.7L594-304.4z M594-308.3c-0.6,0-1,0.5-1,1c0,0.4,0.7,1.8,1,2.4c0.4-0.7,1-2,1-2.4
					C595-307.8,594.5-308.3,594-308.3z"/>
			</g>
		</g>
		<g>
			<g>
				<path class="st1" d="M594-306.5c-0.3,0-0.6-0.3-0.6-0.6c0-0.3,0.3-0.6,0.6-0.6c0.3,0,0.6,0.3,0.6,0.6
					C594.6-306.8,594.3-306.5,594-306.5z M594-307.5c-0.2,0-0.4,0.2-0.4,0.4c0,0.2,0.2,0.4,0.4,0.4c0.2,0,0.4-0.2,0.4-0.4
					C594.3-307.3,594.2-307.5,594-307.5z"/>
			</g>
		</g>
	</g>
	<g>
		<path class="st1" d="M670.9-1.3c0-1.7-0.4-3.3-1.2-4.8c-5.6-9.8-30.9-46.6-96.1-46.6c-0.2,0-0.4,0-0.6,0
			c-68,0.2-91.6,37.8-96.5,47.4c-0.7,1.4-1.1,2.9-1,4.5l0.2,22.6c0,5.5,4.5,10,10,10c0,0,0,0,0,0l20.7-0.1v74.4h133.9V31.2l20.9-0.1
			c5.5,0,10-4.5,10-10L670.9-1.3z M640.2,19.8l-5.7,0l-5.7,0l-15.4,0.1l-0.2-11.7c0-10.4-7.5-19.2-17.8-21.1
			c-7.1-1.3-14.5-1.9-22.3-1.9c0,0,0,0,0,0c-7.6,0-15.1,0.7-22.3,2.1c-10.2,1.9-17.7,10.8-17.6,21.3l0.2,11.6l-15.6,0.1l-5.7,0
			l-5.7,0L487,20.3l-0.2-20.8c1.9-3.6,7.7-12.8,19.5-21.5c2.7-2,5.6-3.9,9-5.8c13.3-7.4,31.9-13.4,57.8-13.5l0.6,0
			c25.5,0,44,6,57.4,13.5c3.4,1.9,6.5,4,9.3,6c10.7,8,16.7,16.5,19.3,20.9l0.2,20.6L640.2,19.8z M628.8,94.7H517.7v-63l17.1-0.1
			c5.5,0,10-4.5,10-10l-0.2-13.2c0-4.9,3.5-9,8.3-9.9c6.4-1.2,13.2-1.9,20.3-1.9c0.1,0,0.3,0,0.4,0c6.9,0,13.6,0.6,19.8,1.8
			c4.8,0.9,8.3,5,8.4,9.9l0.2,13.2c0,5.5,4.5,10,10,10c0,0,0,0,0,0l16.8-0.1V94.7z"/>
		<path class="st1" d="M573.7,33.2c-12.3,0-22.3,10-22.3,22.3s10,22.3,22.3,22.3s22.3-10,22.3-22.3S586,33.2,573.7,33.2z
			 M573.7,66.4c-6,0-10.9-4.9-10.9-10.9s4.9-10.9,10.9-10.9c6,0,10.9,4.9,10.9,10.9S579.7,66.4,573.7,66.4z"/>
	</g>
	<g>
		<polygon class="st1" points="641,-177.1 722.7,-123 731.7,-136.5 641,-196.6 641,-196.6 641,-196.6 550.3,-136.5 559.3,-123 		"/>
		<polygon class="st1" points="641,-152.1 641,-152.2 550.3,-92.1 559.3,-78.5 641,-132.7 722.7,-78.5 731.7,-92.1 641,-152.2 		"/>
	</g>
	<path class="st1" d="M210.3-224.8V-256H58.9v121h29.8v31.2h151.4v-121H210.3z M88.8-146.3H70.3v-98.3H199v19.8H88.8V-146.3z
		 M228.8-115.2H100.1v-98.3h128.7V-115.2z"/>
</g>
</svg>
