<?xml version="1.0" encoding="utf-8"?>
<!-- Generator: Adobe Illustrator 22.0.0, SVG Export Plug-In . SVG Version: 6.00 Build 0)  -->
<svg version="1.1" xmlns="http://www.w3.org/2000/svg" xmlns:xlink="http://www.w3.org/1999/xlink" x="0px" y="0px" width="88.3px"
	 height="88.3px" viewBox="0 0 88.3 88.3" style="enable-background:new 0 0 88.3 88.3;" xml:space="preserve">
<style type="text/css">
	.st0{fill:none;}
	.st1{fill:#DBD9D7;}
	.st2{fill:#FFFFFF;}
	.st3{fill:#3D2222;}
	.st4{fill:#C51B4A;}
</style>
<g id="Layer_2">
</g>
<g id="Layer_1">
</g>
<g id="Layer_3">
</g>
<g id="Layer_4">
	<g>
		<polygon class="st2" points="88.3,88.3 0,88.3 88.3,0 		"/>
		<g>
			<g>
				<path class="st3" d="M64.5,71.5c-3.7,0-7.4-1.4-10.3-4.2c-5.7-5.7-5.7-14.9,0-20.6s14.9-5.7,20.6,0v0c5.7,5.7,5.7,14.9,0,20.6
					C71.9,70,68.2,71.5,64.5,71.5z M64.5,50c-1.8,0-3.6,0.7-4.9,2c-2.7,2.7-2.7,7.1,0,9.9c2.7,2.7,7.1,2.7,9.9,0
					c2.7-2.7,2.7-7.1,0-9.9C68.1,50.6,66.3,50,64.5,50z"/>
			</g>
			
				<rect x="42" y="65.6" transform="matrix(0.7071 -0.7071 0.7071 0.7071 -34.1581 56.9799)" class="st3" width="19.3" height="8.2"/>
		</g>
	</g>
</g>
</svg>
