<?xml version="1.0" encoding="utf-8"?>
<!-- Generator: Adobe Illustrator 22.0.0, SVG Export Plug-In . SVG Version: 6.00 Build 0)  -->
<svg version="1.1" xmlns="http://www.w3.org/2000/svg" xmlns:xlink="http://www.w3.org/1999/xlink" x="0px" y="0px"
	 viewBox="0 0 181.5 118.1" style="enable-background:new 0 0 181.5 118.1;" xml:space="preserve">
<style type="text/css">
	.st0{fill:none;}
	.st1{fill:#DBD9D7;}
</style>
<g id="Layer_2">
</g>
<g id="Layer_1">
	<g>
		<polygon class="st0" points="549,-364 549,-373.8 549,-373.8 544.3,-369.3 		"/>
		<polygon class="st0" points="531.4,-373.8 531.4,-373.8 531.4,-364 536.1,-369.3 		"/>
		<polygon class="st0" points="547.5,-373.7 532.9,-373.7 540.2,-366.8 		"/>
		<polygon class="st0" points="540.2,-365.4 536.9,-368.6 532,-363.2 548.4,-363.2 543.6,-368.6 		"/>
		<path class="st1" d="M530.4-374.8v12.6H550v-12.6H530.4z M549-373.8v9.8l-4.7-5.3L549-373.8L549-373.8z M531.4-373.8L531.4-373.8
			l4.7,4.5l-4.7,5.3V-373.8z M532.9-373.7h14.6l-7.3,6.9L532.9-373.7z M532-363.2l4.8-5.4l3.3,3.2l3.4-3.2l4.8,5.4H532z"/>
	</g>
	<g>
		<path class="st1" d="M551.3-394.7c0-0.1,0-0.3-0.1-0.4c-0.5-0.9-2.7-4.1-8.4-4.1c0,0,0,0-0.1,0c-5.9,0-8,3.3-8.4,4.1
			c-0.1,0.1-0.1,0.3-0.1,0.4l0,2c0,0.5,0.4,0.9,0.9,0.9c0,0,0,0,0,0l1.8,0v6.5h11.7v-6.6l1.8,0c0.5,0,0.9-0.4,0.9-0.9L551.3-394.7z
			 M548.6-392.9l-0.5,0l-0.5,0l-1.3,0l0-1c0-0.9-0.7-1.7-1.6-1.8c-0.6-0.1-1.3-0.2-2-0.2c0,0,0,0,0,0c-0.7,0-1.3,0.1-2,0.2
			c-0.9,0.2-1.5,0.9-1.5,1.9l0,1l-1.4,0l-0.5,0l-0.5,0l-1.7,0l0-1.8c0.2-0.3,0.7-1.1,1.7-1.9c0.2-0.2,0.5-0.3,0.8-0.5
			c1.2-0.6,2.8-1.2,5.1-1.2l0.1,0c2.2,0,3.9,0.5,5,1.2c0.3,0.2,0.6,0.3,0.8,0.5c0.9,0.7,1.5,1.4,1.7,1.8l0,1.8L548.6-392.9z
			 M547.6-386.4h-9.7v-5.5l1.5,0c0.5,0,0.9-0.4,0.9-0.9l0-1.2c0-0.4,0.3-0.8,0.7-0.9c0.6-0.1,1.2-0.2,1.8-0.2c0,0,0,0,0,0
			c0.6,0,1.2,0.1,1.7,0.2c0.4,0.1,0.7,0.4,0.7,0.9l0,1.2c0,0.5,0.4,0.9,0.9,0.9c0,0,0,0,0,0l1.5,0V-386.4z"/>
		<path class="st1" d="M542.8-391.7c-1.1,0-2,0.9-2,2s0.9,2,2,2s2-0.9,2-2S543.8-391.7,542.8-391.7z M542.8-388.8c-0.5,0-1-0.4-1-1
			s0.4-1,1-1c0.5,0,1,0.4,1,1S543.3-388.8,542.8-388.8z"/>
	</g>
	<g>
		<path class="st1" d="M538.5-347.8c-3.5,0-6.4,2.9-6.4,6.4c0,3.3,5.7,13.6,5.9,14.1l0.5,0.9l0.5-0.9c0.2-0.4,5.9-10.7,5.9-14.1
			C544.9-344.9,542-347.8,538.5-347.8z M538.5-328.8c-1.8-3.4-5.3-10.3-5.3-12.6c0-2.9,2.4-5.3,5.3-5.3c2.9,0,5.3,2.4,5.3,5.3
			C543.8-339.1,540.3-332.2,538.5-328.8z"/>
		<path class="st1" d="M538.5-343.6c-1.7,0-3,1.3-3,3c0,1.7,1.3,3,3,3c1.7,0,3-1.3,3-3C541.5-342.2,540.1-343.6,538.5-343.6z
			 M538.5-338.7c-1,0-1.9-0.8-1.9-1.9c0-1,0.8-1.9,1.9-1.9c1,0,1.9,0.8,1.9,1.9C540.4-339.6,539.5-338.7,538.5-338.7z"/>
	</g>
	<g>
		<polygon class="st1" points="539.2,-247.9 546,-243.5 546.7,-244.6 539.2,-249.6 539.2,-249.6 539.2,-249.6 531.7,-244.6 
			532.4,-243.5 		"/>
		<polygon class="st1" points="539.2,-245.9 539.2,-245.9 531.7,-240.9 532.4,-239.8 539.2,-244.3 546,-239.8 546.7,-240.9 
			539.2,-245.9 		"/>
	</g>
	<path class="st1" d="M542.6-306v-2.7h-13.3v10.7h2.6v2.7h13.3V-306H542.6z M531.9-299.1h-1.6v-8.7h11.3v1.7h-9.7V-299.1z
		 M544.3-296.3h-11.3v-8.7h11.3V-296.3z"/>
	<g>
		<path class="st1" d="M540.1-280.3c-5,0-9.1,4.1-9.1,9.1s4.1,9.1,9.1,9.1s9.1-4.1,9.1-9.1S545.1-280.3,540.1-280.3z M540.1-263.2
			c-4.5,0-8.1-3.6-8.1-8.1s3.6-8.1,8.1-8.1s8.1,3.6,8.1,8.1S544.5-263.2,540.1-263.2z"/>
		<rect x="539.3" y="-274.1" class="st1" width="1.5" height="8.6"/>
		<path class="st1" d="M540.8-277.6c-0.1-0.1-0.2-0.2-0.3-0.2s-0.3-0.1-0.4-0.1s-0.3,0-0.4,0.1s-0.2,0.1-0.3,0.2
			c-0.1,0.1-0.2,0.2-0.2,0.3c-0.1,0.1-0.1,0.3-0.1,0.4s0,0.3,0.1,0.4c0.1,0.1,0.1,0.2,0.2,0.3c0.1,0.1,0.2,0.2,0.3,0.2
			c0.1,0.1,0.3,0.1,0.4,0.1s0.3,0,0.4-0.1c0.1-0.1,0.2-0.1,0.3-0.2c0.1-0.1,0.2-0.2,0.2-0.3s0.1-0.3,0.1-0.4s0-0.3-0.1-0.4
			C541-277.4,540.9-277.5,540.8-277.6z"/>
	</g>
	<g>
		<path class="st1" d="M567.7-316v10c2.8,0,5-2.2,5-5C572.7-313.8,570.4-316,567.7-316z M570.2-310.1l-0.3,0.2l-0.7-1.1l0.7-1.1
			l0.3,0.2l-0.6,1L570.2-310.1z"/>
	</g>
	<g>
		<g>
			<path class="st1" d="M660.2-326.9h-75.4v-8.8h75.4l2.1,4.4L660.2-326.9z M585.1-327.3H660l1.9-4.1l-1.9-4.1h-74.8V-327.3z"/>
		</g>
		<g>
			<g>
				<path class="st1" d="M589.8-329.5l-0.1-0.2c0-0.1-1.1-2.1-1.1-2.7c0-0.7,0.6-1.2,1.2-1.2c0.7,0,1.2,0.6,1.2,1.2
					c0,0.6-1.1,2.6-1.1,2.7L589.8-329.5z M589.8-333.4c-0.6,0-1,0.5-1,1c0,0.4,0.7,1.8,1,2.4c0.4-0.7,1-2,1-2.4
					C590.9-332.9,590.4-333.4,589.8-333.4z"/>
			</g>
		</g>
		<g>
			<g>
				<path class="st1" d="M589.8-331.7c-0.3,0-0.6-0.3-0.6-0.6c0-0.3,0.3-0.6,0.6-0.6c0.3,0,0.6,0.3,0.6,0.6
					C590.4-331.9,590.2-331.7,589.8-331.7z M589.8-332.6c-0.2,0-0.4,0.2-0.4,0.4c0,0.2,0.2,0.4,0.4,0.4c0.2,0,0.4-0.2,0.4-0.4
					C590.2-332.4,590-332.6,589.8-332.6z"/>
			</g>
		</g>
	</g>
	<g>
		<path class="st1" d="M666.7-26.4c0-1.7-0.4-3.3-1.2-4.8c-5.6-9.8-30.9-46.6-96.1-46.6c-0.2,0-0.4,0-0.6,0
			c-68,0.2-91.6,37.8-96.5,47.4c-0.7,1.4-1.1,2.9-1,4.5l0.2,22.6c0,5.5,4.5,10,10,10c0,0,0,0,0,0l20.7-0.1V81H636V6.1L657,6
			c5.5,0,10-4.5,10-10L666.7-26.4z M636-5.4l-5.7,0l-5.7,0l-15.4,0.1L609-17c0-10.4-7.5-19.2-17.8-21.1c-7.1-1.3-14.5-1.9-22.3-1.9
			c0,0,0,0,0,0c-7.6,0-15.1,0.7-22.3,2.1C536.4-36,528.9-27,529-16.6L529.1-5l-15.6,0.1l-5.7,0l-5.7,0l-19.3,0.1l-0.2-20.8
			c1.9-3.6,7.7-12.8,19.5-21.5c2.7-2,5.6-3.9,9-5.8c13.3-7.4,31.9-13.4,57.8-13.5l0.6,0c25.5,0,44,6,57.4,13.5c3.4,1.9,6.5,4,9.3,6
			c10.7,8,16.7,16.5,19.3,20.9l0.2,20.6L636-5.4z M624.6,69.6H513.5v-63l17.1-0.1c5.5,0,10-4.5,10-10l-0.2-13.2c0-4.9,3.5-9,8.3-9.9
			c6.4-1.2,13.2-1.9,20.3-1.9c0.1,0,0.3,0,0.4,0c6.9,0,13.6,0.6,19.8,1.8c4.8,0.9,8.3,5,8.4,9.9l0.2,13.2c0,5.5,4.5,10,10,10
			c0,0,0,0,0,0l16.8-0.1V69.6z"/>
		<path class="st1" d="M569.5,8.1c-12.3,0-22.3,10-22.3,22.3s10,22.3,22.3,22.3c12.3,0,22.3-10,22.3-22.3S581.8,8.1,569.5,8.1z
			 M569.5,41.3c-6,0-10.9-4.9-10.9-10.9s4.9-10.9,10.9-10.9c6,0,10.9,4.9,10.9,10.9S575.5,41.3,569.5,41.3z"/>
	</g>
	<g>
		<polygon class="st1" points="90.7,19.5 172.5,73.7 181.5,60.1 90.8,0 90.7,0.1 90.7,0 0,60.1 9,73.7 		"/>
		<polygon class="st1" points="90.7,44.5 90.7,44.5 0,104.6 9,118.1 90.7,64 172.5,118.1 181.5,104.6 90.8,44.5 		"/>
	</g>
</g>
</svg>
