<?xml version="1.0" encoding="utf-8"?>
<!-- Generator: Adobe Illustrator 22.0.0, SVG Export Plug-In . SVG Version: 6.00 Build 0)  -->
<svg version="1.1" xmlns="http://www.w3.org/2000/svg" xmlns:xlink="http://www.w3.org/1999/xlink" x="0px" y="0px"
	 viewBox="0 0 183.6 183.6" style="enable-background:new 0 0 183.6 183.6;" xml:space="preserve">
<style type="text/css">
	.st0{fill:none;}
	.st1{fill:#DBD9D7;}
</style>
<g id="Layer_2">
</g>
<g id="Layer_1">
	<g>
		<polygon class="st0" points="553.6,-338.1 553.6,-347.9 553.5,-347.9 548.9,-343.4 		"/>
		<polygon class="st0" points="536,-347.9 536,-347.9 536,-338.1 540.7,-343.4 		"/>
		<polygon class="st0" points="552,-347.8 537.5,-347.8 544.8,-340.9 		"/>
		<polygon class="st0" points="544.8,-339.5 541.4,-342.7 536.6,-337.3 553,-337.3 548.1,-342.7 		"/>
		<path class="st1" d="M535-348.9v12.6h19.6v-12.6H535z M553.6-347.9v9.8l-4.7-5.3L553.6-347.9L553.6-347.9z M536-347.9L536-347.9
			l4.7,4.5l-4.7,5.3V-347.9z M537.5-347.8H552l-7.3,6.9L537.5-347.8z M536.6-337.3l4.8-5.4l3.3,3.2l3.4-3.2l4.8,5.4H536.6z"/>
	</g>
	<g>
		<path class="st1" d="M555.8-368.8c0-0.1,0-0.3-0.1-0.4c-0.5-0.9-2.7-4.1-8.4-4.1c0,0,0,0-0.1,0c-5.9,0-8,3.3-8.4,4.1
			c-0.1,0.1-0.1,0.3-0.1,0.4l0,2c0,0.5,0.4,0.9,0.9,0.9c0,0,0,0,0,0l1.8,0v6.5h11.7v-6.6l1.8,0c0.5,0,0.9-0.4,0.9-0.9L555.8-368.8z
			 M553.1-367l-0.5,0l-0.5,0l-1.3,0l0-1c0-0.9-0.7-1.7-1.6-1.8c-0.6-0.1-1.3-0.2-2-0.2c0,0,0,0,0,0c-0.7,0-1.3,0.1-2,0.2
			c-0.9,0.2-1.5,0.9-1.5,1.9l0,1l-1.4,0l-0.5,0l-0.5,0l-1.7,0l0-1.8c0.2-0.3,0.7-1.1,1.7-1.9c0.2-0.2,0.5-0.3,0.8-0.5
			c1.2-0.6,2.8-1.2,5.1-1.2l0.1,0c2.2,0,3.9,0.5,5,1.2c0.3,0.2,0.6,0.3,0.8,0.5c0.9,0.7,1.5,1.4,1.7,1.8l0,1.8L553.1-367z
			 M552.1-360.4h-9.7v-5.5l1.5,0c0.5,0,0.9-0.4,0.9-0.9l0-1.2c0-0.4,0.3-0.8,0.7-0.9c0.6-0.1,1.2-0.2,1.8-0.2c0,0,0,0,0,0
			c0.6,0,1.2,0.1,1.7,0.2c0.4,0.1,0.7,0.4,0.7,0.9l0,1.2c0,0.5,0.4,0.9,0.9,0.9c0,0,0,0,0,0l1.5,0V-360.4z"/>
		<path class="st1" d="M547.3-365.8c-1.1,0-2,0.9-2,2s0.9,2,2,2s2-0.9,2-2S548.4-365.8,547.3-365.8z M547.3-362.9c-0.5,0-1-0.4-1-1
			s0.4-1,1-1c0.5,0,1,0.4,1,1S547.8-362.9,547.3-362.9z"/>
	</g>
	<g>
		<path class="st1" d="M543-321.9c-3.5,0-6.4,2.9-6.4,6.4c0,3.3,5.7,13.6,5.9,14.1l0.5,0.9l0.5-0.9c0.2-0.4,5.9-10.7,5.9-14.1
			C549.5-319,546.6-321.9,543-321.9z M543-302.8c-1.8-3.4-5.3-10.3-5.3-12.6c0-2.9,2.4-5.3,5.3-5.3c2.9,0,5.3,2.4,5.3,5.3
			C548.3-313.1,544.9-306.2,543-302.8z"/>
		<path class="st1" d="M543-317.7c-1.7,0-3,1.3-3,3c0,1.7,1.3,3,3,3c1.7,0,3-1.3,3-3C546-316.3,544.7-317.7,543-317.7z M543-312.8
			c-1,0-1.9-0.8-1.9-1.9c0-1,0.8-1.9,1.9-1.9c1,0,1.9,0.8,1.9,1.9C544.9-313.6,544.1-312.8,543-312.8z"/>
	</g>
	<g>
		<polygon class="st1" points="543.7,-222 550.5,-217.5 551.3,-218.7 543.7,-223.6 543.7,-223.6 543.7,-223.6 536.2,-218.7 
			537,-217.5 		"/>
		<polygon class="st1" points="543.7,-220 543.7,-220 536.2,-215 537,-213.9 543.7,-218.3 550.5,-213.9 551.3,-215 543.7,-220 		"/>
	</g>
	<path class="st1" d="M547.2-280.1v-2.7h-13.3v10.7h2.6v2.7h13.3v-10.7H547.2z M536.5-273.1h-1.6v-8.7h11.3v1.7h-9.7V-273.1z
		 M548.8-270.4h-11.3v-8.7h11.3V-270.4z"/>
	<g>
		<path class="st1" d="M91.8,0C41.2,0,0,41.2,0,91.8s41.2,91.8,91.8,91.8s91.8-41.2,91.8-91.8S142.4,0,91.8,0z M91.8,173.5
			c-45,0-81.7-36.7-81.7-81.7s36.7-81.7,81.7-81.7s81.7,36.6,81.7,81.7S136.9,173.5,91.8,173.5z"/>
		<rect x="84.1" y="62.8" class="st1" width="15.3" height="87.3"/>
		<path class="st1" d="M99.5,27.6c-1-1-2.2-1.8-3.5-2.4c-1.3-0.6-2.7-0.9-4.2-0.9c-1.5,0-2.9,0.3-4.2,0.9c-1.3,0.6-2.4,1.4-3.4,2.4
			c-1,1-1.8,2.2-2.4,3.5c-0.6,1.3-0.9,2.8-0.9,4.3s0.3,2.9,0.9,4.2c0.6,1.3,1.4,2.4,2.4,3.4c1,1,2.2,1.8,3.4,2.4
			c1.3,0.6,2.7,0.9,4.2,0.9c1.5,0,2.9-0.3,4.2-0.9c1.3-0.6,2.5-1.4,3.5-2.4c1-1,1.8-2.2,2.4-3.4s0.9-2.7,0.9-4.2s-0.3-2.9-0.9-4.3
			C101.3,29.7,100.5,28.6,99.5,27.6z"/>
	</g>
	<g>
		<path class="st1" d="M572.2-290.1v10c2.8,0,5-2.2,5-5C577.2-287.9,575-290.1,572.2-290.1z M574.8-284.1l-0.3,0.2l-0.7-1.1l0.7-1.1
			l0.3,0.2l-0.6,1L574.8-284.1z"/>
	</g>
	<g>
		<g>
			<path class="st1" d="M664.7-301h-75.4v-8.8h75.4l2.1,4.4L664.7-301z M589.7-301.4h74.8l1.9-4.1l-1.9-4.1h-74.8V-301.4z"/>
		</g>
		<g>
			<g>
				<path class="st1" d="M594.4-303.6l-0.1-0.2c0-0.1-1.1-2.1-1.1-2.7c0-0.7,0.6-1.2,1.2-1.2c0.7,0,1.2,0.6,1.2,1.2
					c0,0.6-1.1,2.6-1.1,2.7L594.4-303.6z M594.4-307.5c-0.6,0-1,0.5-1,1c0,0.4,0.7,1.8,1,2.4c0.4-0.7,1-2,1-2.4
					C595.4-307,594.9-307.5,594.4-307.5z"/>
			</g>
		</g>
		<g>
			<g>
				<path class="st1" d="M594.4-305.7c-0.3,0-0.6-0.3-0.6-0.6c0-0.3,0.3-0.6,0.6-0.6c0.3,0,0.6,0.3,0.6,0.6
					C595-306,594.7-305.7,594.4-305.7z M594.4-306.7c-0.2,0-0.4,0.2-0.4,0.4c0,0.2,0.2,0.4,0.4,0.4c0.2,0,0.4-0.2,0.4-0.4
					C594.7-306.5,594.6-306.7,594.4-306.7z"/>
			</g>
		</g>
	</g>
	<g>
		<path class="st1" d="M671.3-0.5c0-1.7-0.4-3.3-1.2-4.8c-5.6-9.8-30.9-46.6-96.1-46.6c-0.2,0-0.4,0-0.6,0
			c-68,0.2-91.6,37.8-96.5,47.4c-0.7,1.4-1.1,2.9-1,4.5l0.2,22.6c0,5.5,4.5,10,10,10c0,0,0,0,0,0l20.7-0.1v74.4h133.9V32l20.9-0.1
			c5.5,0,10-4.5,10-10L671.3-0.5z M640.6,20.6l-5.7,0l-5.7,0l-15.4,0.1l-0.2-11.7c0-10.4-7.5-19.2-17.8-21.1
			c-7.1-1.3-14.5-1.9-22.3-1.9c0,0,0,0,0,0c-7.6,0-15.1,0.7-22.3,2.1C540.9-10,533.5-1.1,533.5,9.3l0.2,11.6L518.1,21l-5.7,0l-5.7,0
			l-19.3,0.1l-0.2-20.8c1.9-3.6,7.7-12.8,19.5-21.5c2.7-2,5.6-3.9,9-5.8c13.3-7.4,31.9-13.4,57.8-13.5l0.6,0c25.5,0,44,6,57.4,13.5
			c3.4,1.9,6.5,4,9.3,6c10.7,8,16.7,16.5,19.3,20.9l0.2,20.6L640.6,20.6z M629.2,95.5H518.1v-63l17.1-0.1c5.5,0,10-4.5,10-10
			L545,9.2c0-4.9,3.5-9,8.3-9.9c6.4-1.2,13.2-1.9,20.3-1.9c0.1,0,0.3,0,0.4,0c6.9,0,13.6,0.6,19.8,1.8c4.8,0.9,8.3,5,8.4,9.9
			l0.2,13.2c0,5.5,4.5,10,10,10c0,0,0,0,0,0l16.8-0.1V95.5z"/>
		<path class="st1" d="M574.1,34c-12.3,0-22.3,10-22.3,22.3s10,22.3,22.3,22.3s22.3-10,22.3-22.3S586.4,34,574.1,34z M574.1,67.2
			c-6,0-10.9-4.9-10.9-10.9s4.9-10.9,10.9-10.9c6,0,10.9,4.9,10.9,10.9S580.1,67.2,574.1,67.2z"/>
	</g>
	<g>
		<polygon class="st1" points="390.7,-168.1 472.4,-113.9 481.4,-127.4 390.7,-187.6 390.7,-187.5 390.6,-187.6 299.9,-127.4 
			308.9,-113.9 		"/>
		<polygon class="st1" points="390.7,-143 390.6,-143.1 299.9,-83 308.9,-69.4 390.7,-123.6 472.4,-69.4 481.4,-83 390.7,-143.1 		
			"/>
	</g>
	<path class="st1" d="M210.7-224v-31.2H59.4v121h29.8v31.2h151.4v-121H210.7z M89.2-145.5H70.7v-98.3h128.7v19.8H89.2V-145.5z
		 M229.2-114.4H100.5v-98.3h128.7V-114.4z"/>
</g>
</svg>
