<?xml version="1.0" encoding="utf-8"?>
<!-- Generator: Adobe Illustrator 22.0.0, SVG Export Plug-In . SVG Version: 6.00 Build 0)  -->
<svg version="1.1" id="Layer_1" xmlns="http://www.w3.org/2000/svg" xmlns:xlink="http://www.w3.org/1999/xlink" x="0px" y="0px"
	 viewBox="0 0 2129.4 447.5" style="enable-background:new 0 0 2129.4 447.5;" xml:space="preserve">
<style type="text/css">
	.st0{fill:none;}
	.st1{fill:#41201F;}
	.st2{fill:#DBD9D7;}
	.st3{fill:#C51B4A;}
</style>
<g>
	<polygon class="st0" points="1167.2,282.5 1167.2,282.5 1167.2,282.5 1167.2,282.5 	"/>
	<path class="st0" d="M972.2,283.1l0.1,0.4c0,0,0,0,0,0c0,0,0-0.1,0-0.1C972.2,283.4,972.2,283.2,972.2,283.1z"/>
	<path class="st0" d="M1183.8,345.6C1183.7,345.6,1183.7,345.5,1183.8,345.6C1183.7,345.5,1183.7,345.5,1183.8,345.6L1183.8,345.6z"
		/>
	<polygon class="st0" points="1082.9,351.8 1082.9,351.8 1082.9,351.8 1082.9,351.8 	"/>
	<path class="st0" d="M1105.5,304.7C1105.4,304.7,1105.4,304.7,1105.5,304.7L1105.5,304.7L1105.5,304.7
		C1105.5,304.7,1105.5,304.7,1105.5,304.7z"/>
	<polygon class="st0" points="1250.1,269 1250.1,269 1250.1,269 1250.1,269 	"/>
	<path class="st0" d="M1206.9,272.7c0.1,2.2,0.2,4.4,0.2,6.5c0.1,2.1,0.1,4.3,0.1,6.4c1.8,0.1,3.7,0.2,5.5,0.4
		c0-2.1,0.1-4.1,0.2-6.2c0.1-2.2,0.2-4.5,0.3-6.9l-3.4-0.1C1208.9,272.8,1207.9,272.8,1206.9,272.7z"/>
	<path class="st0" d="M1184.7,342C1184.7,342,1184.7,341.9,1184.7,342c-0.1,0.1-0.2,0.3-0.3,0.5
		C1184.5,342.3,1184.6,342.2,1184.7,342z"/>
	<path class="st0" d="M516.1,190C516.1,190,516.1,190,516.1,190c-0.1,0-0.1,0-0.1,0.1l0,0.1l0,0l0,0l0,0L516.1,190z"/>
	<path class="st0" d="M776.9,107.6l-3.7-1.2c-2.5-0.8-5-1.6-7.5-2.4c-0.4,0.9-0.9,1.8-1.4,2.6c-1.6,2.8-3.4,5.3-5.4,7.7l15.5,16.1
		c0.9,0.9,1.5,1.6,2.2,2.1c0.6,0.5,1.1,0.9,1.4,1c0.1,0,0.1,0,0.1,0.1c0.1-0.1,0.1-0.2,0.2-0.3c0.1-0.3,0.2-0.7,0.2-1
		c0-0.1,0-0.8-0.3-1.6c-0.2-0.8-0.5-1.6-0.9-2.7c-0.4-1-0.9-2.2-1.4-3.5c-0.5-1.3-0.9-2.8-1.2-4.6c-0.5-3.4-0.1-6.8,0.9-9.8
		C776.2,109.3,776.5,108.4,776.9,107.6z"/>
	<path class="st0" d="M1044.2,151.5l-21.3,2.9c2.9,1.2,5.9,2.3,8.9,3.1c6.8,1.9,14,2.7,21.1,2.5c7.2-0.2,14.3-1.2,21.3-2.9
		c13.9-3.4,27.3-9.1,40.2-15.6l-9.8,1.4C1084.5,145.8,1064.4,148.7,1044.2,151.5z"/>
	<path class="st0" d="M691.3,248.9C691.3,248.9,691.2,248.9,691.3,248.9c-0.3-0.3-0.3-0.2-0.2-0.1
		C691.1,248.8,691.2,248.8,691.3,248.9z"/>
	<path class="st0" d="M1416.2,169.8c0.4,1.5,1,2.7,1.7,3.6c0.7,0.9,1.8,1.8,3.3,2.9c0.8,0.6,1.6,1.2,2.5,1.9
		c0.9,0.7,1.8,1.6,2.6,2.5c1.6,1.8,2.9,3.6,3.9,5.4c1.1,1.8,2,3.5,2.9,5.1c0.5,0.8,0.9,1.5,1.4,2.3l1.5,2.2
		c4.1,5.7,9.3,10.7,15.2,14.6c2.9,1.9,6.1,3.6,9.3,5c0.8,0.4,1.6,0.7,2.6,1.1c1,0.4,2,0.8,3.2,1.5c1.2,0.7,2.4,1.5,3.6,2.8
		c1.2,1.3,1.9,2.6,2.5,3.7c0.3,0.6,0.6,1.2,0.8,1.8c0.5-1.3,1-2.7,1.3-4.1c0.7-3,0.8-6.2,0.2-9.3c-0.5-3.1-1.7-6.1-3.3-9
		c-3.2-5.9-8.2-11.3-13.4-16.8l-4.2-4.5l4.8-4c2.2-1.9,4.3-3.8,6.3-5.9c1.9-2.1,3.6-4.2,5-6.4c1.3-2.2,2.3-4.4,2.6-6.4
		c0.3-2,0.1-3.6-0.8-5.3l-0.8-1.5l0-0.3c-12.5,2.7-25.2,4.8-37.9,6.3c-6,0.7-12,1.2-18,1.5l0.5,4.5
		C1415.5,166.7,1415.7,168.4,1416.2,169.8z"/>
	<path class="st0" d="M1612.6,118.7l-1.1,5.4c-0.6,3.5-1,6.7-0.6,9.1c0.4,2.5,1.2,3.5,2.8,4.6c0.8,0.5,2.1,1,3.6,1.4
		c1.5,0.4,3.4,0.8,5.4,1.2c1,0.2,2.2,0.6,3.4,1c1.2,0.4,2.3,0.9,3.4,1.5c1.1,0.6,2.3,1.3,3.4,2.2c1.1,0.9,2.2,1.9,3.2,3.3
		c1,1.3,1.8,3,2.3,4.7c0.3,0.9,0.3,1.8,0.4,2.7c0,0.9,0,1.7-0.1,2.4c-0.1,1.1-0.3,1.9-0.4,2.5c0,0,0,0,0.1,0
		c0.2,0.1,0.6,0.2,0.9,0.3c0.3,0.1,0.7,0.2,1,0.3c0.7,0.2,1.4,0.3,2.1,0.4c5.7,0.7,12-1.1,16.2-4.7l4.2-3.6l4.2,3.7
		c1.5,1.3,3.2,2.5,5.1,3.5c1.9,1,3.9,1.7,6.1,2.4c2.2,0.6,4.4,1.1,6.8,1.4c2.1,0.3,4.2,0.5,6.3,0.6c0.3,0,0.6,0.1,0.9,0.1
		c2.5,0.1,5,0.2,7.5,0.2l3.8,0c1.1,0,1.9-0.1,2.2-0.2c0,0,0,0,0,0c0-0.1,0.1-0.3,0.2-0.6c0.1-0.7,0.2-1.7,0.2-3c0-1.2,0-2.7,0.2-4.4
		c0.2-1.7,0.5-3.6,1.4-5.7c0.9-2.1,2.3-3.7,3.6-5c2.6-2.5,5.2-3.9,7.1-5.3c0.5-0.3,0.9-0.6,1.3-0.9c0.3-0.3,0.8-0.6,1-0.8
		c0.3-0.3,0.5-0.5,0.7-0.7c0.1-0.2,0.2-0.3,0.2-0.4c0,0,0-0.1,0.1-0.1c0,0,0-0.1,0-0.1c0-0.1,0.1-0.1,0.1-0.1c0-0.1,0-0.2,0-0.4
		c0-0.4-0.2-1.1-0.6-2c-0.4-0.9-1-2.1-1.6-3.5c-0.3-0.7-0.6-1.4-0.9-2.3c-0.3-0.8-0.5-1.8-0.7-2.7c-0.4-1.9-0.5-3.9-0.3-5.8
		c-8.7-2.6-17.5-5-26.3-7.2c-7.4-1.8-14.7-3.3-22.2-4.7c-14.5-2.5-29.2-4.1-43.8-3.5c-4.2,0.2-8.4,0.6-12.6,1.2
		c0.3,1.6,0.4,3.2,0.4,4.7C1613.2,114.1,1613.1,116.4,1612.6,118.7z"/>
	<path class="st0" d="M1213.1,312.8C1213.1,312.8,1213.1,312.8,1213.1,312.8C1213.1,312.8,1213.1,312.8,1213.1,312.8
		C1213.1,312.8,1213.2,312.8,1213.1,312.8C1213.2,312.8,1213.1,312.8,1213.1,312.8z"/>
	<path class="st0" d="M1112.6,343.6c-2-0.4-4.2,0.7-5,2.4l0,0l0,0l-0.4,0.3c0,0,0,0,0,0l0,0l0,0l0,0l-0.1,0.1l-0.1,0.1
		c-0.1,0.1-0.1,0.1-0.2,0.2l-0.3,0.5c-0.2,0.4-0.4,0.7-0.6,1.1c-0.3,0.5-0.5,1-0.8,1.5c0.7-0.2,1.5-0.4,2.2-0.6
		c1-0.3,2.1-0.5,3.1-0.7l3.1-0.7c1-0.2,2-0.5,3-0.7C1116,345.5,1114.5,343.9,1112.6,343.6z"/>
	<polygon class="st0" points="1231.3,314.7 1231.3,314.7 1231.3,314.7 	"/>
	<polygon class="st0" points="1213.3,272.9 1213.3,272.9 1213.3,272.9 1213.3,272.9 	"/>
	<path class="st0" d="M1230.1,280.5c-0.1-2.2-0.1-4.3-0.1-6.5l-4.2-0.2c0,2.1,0,4.2,0,6.3c0,2.3,0,4.6-0.1,7v0l0,0l4.7,0
		C1230.3,284.9,1230.2,282.7,1230.1,280.5z"/>
	<polygon class="st0" points="1222.8,272 1222.8,272 1222.8,272 	"/>
	<path class="st0" d="M1217.4,279.7c-0.1,2.3-0.2,4.6-0.3,7l0,0l4.5,0c-0.1-2.2-0.2-4.4-0.2-6.7c-0.1-2.1-0.1-4.3-0.1-6.4l-3.7-0.1
		C1217.5,275.5,1217.4,277.6,1217.4,279.7z"/>
	<path class="st0" d="M1007,145.7c1.7,1.1,3.5,2.2,5.3,3.2c2.4,1.4,4.9,2.7,7.4,3.9l24.3-3.7c20.1-3.1,40.3-6,60.4-9l17.7-2.6
		c10.1-5.4,20.2-11,30.6-16.1l-40.7,6.8L1007,145.7z"/>
	<polygon class="st0" points="1197.9,274.4 1197.9,274.4 1197.9,274.4 1197.9,274.4 	"/>
	<path class="st0" d="M1219,319.2C1219,319.2,1219,319.2,1219,319.2C1219,319.2,1219,319.2,1219,319.2
		C1219,319.2,1219,319.2,1219,319.2C1219,319.2,1219,319.2,1219,319.2z"/>
	<path class="st0" d="M1107,346.5l-0.1-0.2c0,0-0.1,0.1-0.2,0.1C1106.8,346.5,1107,346.5,1107,346.5z"/>
	<path class="st0" d="M1196.7,301.9C1196.7,301.9,1196.7,301.9,1196.7,301.9C1196.7,301.9,1196.7,301.9,1196.7,301.9
		C1196.7,301.9,1196.7,301.9,1196.7,301.9C1196.7,301.9,1196.7,301.9,1196.7,301.9z"/>
	<polygon class="st0" points="1226.4,325 1226.4,325 1226.4,325 	"/>
	<path class="st0" d="M1185.3,339.1C1185.3,339.1,1185.2,339,1185.3,339.1C1185.2,339.1,1185.2,339.1,1185.3,339.1
		C1185.2,339.1,1185.3,339.1,1185.3,339.1z"/>
	<path class="st0" d="M1186.2,348.5C1186.2,348.5,1186.3,348.5,1186.2,348.5C1186.3,348.6,1186.3,348.6,1186.2,348.5L1186.2,348.5z"
		/>
	<path class="st0" d="M1012.4,314.5C1012.4,314.5,1012.4,314.5,1012.4,314.5L1012.4,314.5L1012.4,314.5L1012.4,314.5z"/>
	<polygon class="st0" points="1031.3,274.3 1031.3,274.3 1031.3,274.3 	"/>
	<polygon class="st0" points="1070.3,248.2 1070.3,248.2 1070.3,248.2 1070.3,248.2 	"/>
	<polygon class="st0" points="1155.2,287.4 1155.2,287.4 1155.2,287.4 	"/>
	<polygon class="st0" points="1016,284 1016,284 1016,284 1016,284 	"/>
	<path class="st0" d="M791.3,314.1c0.1,0.1,0.2,0.1,0.3,0.1C791.6,314.2,791.5,314.1,791.3,314.1
		C791.3,314.1,791.3,314.1,791.3,314.1z"/>
	<path class="st0" d="M1147.6,227.8c-0.6,0-1.2,0-1.8-0.1l1.1,0.1C1147.1,227.8,1147.4,227.8,1147.6,227.8z"/>
	<polygon class="st0" points="1148,227.8 1148,227.8 1148,227.8 	"/>
	<polygon class="st0" points="1120.2,237.2 1120.2,237.2 1120.2,237.2 1120.2,237.2 	"/>
	<path class="st1" d="M1060.6,124.9l-36.9,6.5l-24.8,4.4l135.6-23.3c-12.3,2.1-24.7,4-37,6.2
		C1085.2,120.6,1072.8,122.7,1060.6,124.9z"/>
	<polygon class="st1" points="1406.8,99.2 1406.8,99.2 1406.8,99.2 	"/>
	<path class="st2" d="M963.3,259.7c0.3,0.5,0.6,1,0.9,1.4c0,0.1,0.1,0.1,0.1,0.2c0,0,0,0,0,0c1.6-0.5,3.2-1,4.7-1.5l11.9-3.8l10-3.4
		c10.1-3.4,20.2-6.9,30.4-10.4c9.8-3.5,19.7-6.9,29.5-10.4l10.4-3.7l39.7-14.5l11.4,1.9l0,0l0,0l27.9-8.9l12,6.8l12.1,6.7l23.8,12.9
		l-7.4,3.3l0.2,0.6l5.4-1.6c1.8-0.6,3.6-1.1,5.4-1.6l0.7-0.2l-0.6-0.4l-25.3-16.3l-12.7-8l-12.8-7.9l-0.2-0.1l-0.2,0.1l-14.5,4.1
		l-14.4,4.1l-11.5-2l-0.1,0l-0.1,0l-40.3,14.8l-40.1,15.2l-39.9,15.7l-16.7,6.9c0,0,0,0,0,0.1C963.2,259.6,963.3,259.7,963.3,259.7z
		"/>
	<path class="st2" d="M1191.7,252.3l1.4,0.3l-1.1-0.9c-2.5-2-5.3-3.7-8.1-5.3c-1.4-0.8-2.8-1.6-4.3-2.2l0,0
		c-1.4-0.7-2.8-1.4-4.3-2.1c-1.5-0.7-3-1.3-4.5-1.9l-0.3-0.1c-0.5-0.2-1.1-0.5-1.6-0.7l0,0l0,0c-1.9,0.8-3.7,1.6-5.5,2.6l-0.6,0.4
		l0.7,0c1.7-0.1,3.5-0.3,5.2-0.5c1.8,1.1,3.5,2.2,5.3,3.3c1.9,1,3.8,1.9,5.7,2.9C1183.6,249.9,1187.6,251.4,1191.7,252.3z"/>
	<path class="st2" d="M1250.1,269L1250.1,269L1250.1,269L1250.1,269L1250.1,269C1250.1,269,1250.1,269,1250.1,269L1250.1,269
		L1250.1,269l-7.4-1.1l-5-0.7l-12.4-1.4l0,0.2l8.2,2.1l4.1,1.1l2.8,0.6c-0.6,0.1-1.3,0.1-1.9,0.2l-0.2,0l0,0.2l-0.4,13
		c-0.1,4.3-0.1,8.7-0.1,13c0,8.7,0.1,17.3,0.8,26l0.9,0c0.4-4.1,0.7-8.2,1-12.3c0.2-4.1,0.4-8.2,0.6-12.3l0.3-12.3l0.2-12.3
		l16.9-2.7l0.2,0l-0.2,0L1250.1,269z"/>
	<path class="st2" d="M1162.9,300.4v0.4v0.2v0.4l0.4,0l16.7,0.2c2.8,0,5.6,0.1,8.4,0.2c2.8,0.1,5.6,0.2,8.4,0.1c0,0,0,0,0,0
		c0,0,0,0,0,0c0,0,0,0,0,0c0,0,0,0,0,0c3.7-0.1,7.4-0.2,11.2-0.5l0.1,0l0-0.1l0-0.2l0-0.1l-0.1,0c-3.7-0.5-7.4-0.7-11.1-0.9
		c-3.7-0.2-7.5-0.1-11.2-0.1l-11.1,0.1l-11.1,0.3L1162.9,300.4z"/>
	<path class="st2" d="M1194.7,325.2l0,0.4l0.4,0l15.7-0.3c2.6-0.1,5.2-0.1,7.8-0.1c2.6,0,5.2,0,7.8-0.2l0,0c0,0,0,0,0,0c0,0,0,0,0,0
		c3.5-0.2,7-0.4,10.4-0.9l0.1,0l0-0.1l0-0.2l0-0.1l-0.1,0c-3.5-0.4-7-0.5-10.4-0.6c-3.5-0.1-7,0.1-10.5,0.3l-10.4,0.5l-10.4,0.6
		l-0.4,0l0,0.4L1194.7,325.2z"/>
	<path class="st2" d="M1186.5,318.5l0,0.4l0.4,0l16,0.1c2.7,0,5.3,0,8,0.1c2.7,0.1,5.3,0.1,8,0c0,0,0,0,0,0c0,0,0,0,0,0c0,0,0,0,0,0
		c0,0,0,0,0,0c3.6-0.1,7.1-0.2,10.7-0.6l0.1,0l0-0.1l0-0.2l0-0.1l-0.1,0c-3.5-0.5-7.1-0.7-10.7-0.9c-3.6-0.2-7.2-0.1-10.7,0
		l-10.7,0.2l-10.7,0.3l-0.4,0l0,0.4L1186.5,318.5z"/>
	<path class="st2" d="M1196.4,312.6c2.8,0,5.6,0.1,8.4,0.2c2.8,0.1,5.6,0.2,8.4,0.1c0,0,0,0,0,0c0,0,0,0,0,0c0,0,0,0,0,0
		c0,0,0,0,0,0c3.7-0.1,7.5-0.2,11.2-0.5l0.1,0l0-0.1l0-0.2l0-0.1l-0.1,0c-3.7-0.5-7.4-0.7-11.1-0.9c-3.7-0.2-7.5-0.1-11.2-0.1
		l-11.2,0.1l-11.2,0.3l-0.4,0v0.4v0.2l0,0.4l0.4,0L1196.4,312.6z"/>
	<path class="st2" d="M1195.4,305.2l-10.8,0.1l-10.8,0.3l-0.4,0v0.4v0.2v0.4l0.4,0l16.1,0.2c2.7,0,5.4,0.1,8.1,0.2
		c2.7,0.1,5.4,0.2,8.1,0.1l0,0c0,0,0,0,0,0c0,0,0,0,0,0c3.6-0.1,7.2-0.2,10.8-0.5l0.1,0l0-0.1l0-0.2l0-0.1l-0.1,0
		c-3.6-0.5-7.2-0.7-10.7-0.9C1202.6,305.1,1199,305.1,1195.4,305.2z"/>
	<path class="st2" d="M964.5,271.2c0-0.2,0-0.4,0-0.6c0,0,0-0.1,0-0.1C964.5,270.8,964.5,271,964.5,271.2z"/>
	<path class="st2" d="M972,304.2c-0.1,0.6-0.2,1.2-0.4,1.8c0,0.1-0.1,0.2-0.1,0.3c0,0.1,0,0.2-0.1,0.2c1.2,0.1,2.4,0.2,3.6,0.2
		c3.8,0.2,7.6,0.3,11.4,0.4l11.4,0.2l11.4,0l0,0l0,0l20.5-2.2l20.4-2.3l27.6,1l12.3,0.3l15.2,0.4l0.1,0l0,0c0,0,0,0,0,0c0,0,0,0,0,0
		l0,0l0.1,0l16.7,0.3l11.1,0.2l27.8,0l0-0.2l-27.7-2.4l-27.8-1.9l-27.8-1.5l-27.8-1.2l0,0l0,0l-20.5,2.3l-20.5,2.4l-10.7,0.3
		l-10.8,0.2l-15.2,0.1c0,0.2-0.1,0.4-0.1,0.5C972.1,303.9,972.1,304,972,304.2z"/>
	<path class="st2" d="M1039.7,314.5c0.1,5.7,0.1,11.3,0.2,17l0.3,17.5l0.9,0l0.9-36.7l0-0.1l-0.1,0l-29.3,2.4l0,0c0,0,0,0,0,0l0,0
		l0,0l-1,0.1l0,0c0,0.1,0,0.2,0,0.3l-0.1,0.9c0,0.4-0.1,0.8-0.1,1.2c-0.1,1.1-0.2,2.3-0.2,3.4c0,0.2,0,0.4,0,0.6
		c-0.1,1.1-0.1,2.3-0.1,3.4c0,0.3,0,0.6,0,0.9c0,0.7,0,1.4,0,2c0,2.1,0.2,4.3,0.3,6.4c0.2,2.1,0.4,4.3,0.8,6.4l0.1,0.4l0.1-0.4
		c0.5-1.9,0.8-3.8,1.1-5.8l0.6-5.8c0.2-1.9,0.2-3.9,0.3-5.9c0.1-1.9,0-3.7,0-5.6l12.9-1.3L1039.7,314.5z"/>
	<path class="st2" d="M1231.1,306.2l-0.6,0c-1.6-0.1-3.1-0.3-4.8-0.2c-1.6,0.1-3.2,0.3-4.7,0.8l-0.4,0.1l0,0.4l0,0.2l0,0.4l0.4,0.1
		c1.6,0.4,3.3,0.6,5,0.6c0.8,0,1.7-0.1,2.5-0.2l2.2-0.2c0.2,2.3,0.4,4.5,0.6,6.6c0,0,0,0,0,0c0,0,0,0,0,0h0l0.2,0l0,0l0,0
		c0.2-1.6,0.4-3.1,0.6-4.7l0.3-2.3c0-0.2,0-0.4,0.1-0.6c0-0.3-0.2-0.6-0.5-0.8C1231.5,306.1,1231.4,306.2,1231.1,306.2z"/>
	<path class="st2" d="M1156.9,267.5c3.5-0.7,7-1.4,10.4-2.1l0,0l0,0c7.2-2.6,14.4-5.2,21.6-7.9l21.5-8l-0.3-0.9l-30.4,8.5l0,0l0,0
		l-16.7,6.3c-5.5,2.1-10.9,4.2-16.4,6.2l0,0l0,0l0,0c0,0,0,0,0,0C1150,268.9,1153.4,268.2,1156.9,267.5z"/>
	<path class="st2" d="M1219.2,268.6l-15-0.6l-0.4-7l-0.5-7.4l-0.7,0l0,7.8l0,7.8l0,0.2l0.2,0l15.1,1l15,0.9l0.1,10.9l0,0
		c0,2.1,0,4.2,0,6.2c0,3.8,0,7.5,0.1,11.3c0.1,5.9,0.2,11.7,0.4,17.6h0.3l0.5-11.9l0.3-11.9l0.2-11.9l0.1-11.9l0-0.4l-0.4,0
		C1229.4,269.1,1224.3,268.8,1219.2,268.6z"/>
	<polygon class="st2" points="1202.2,297.3 1202.2,297.3 1202.3,297.3 1202.7,284.2 1203,271.2 1203,271 1202.8,271 1186.5,269.3 
		1170.2,267.9 1169.7,267.9 1169.7,268.4 1169.7,282.7 1170,296.9 1170.9,297 1171.4,283.4 1171.7,270.1 1186.4,271.3 1201.4,272.4 
		1201.8,284.5 1201.8,284.5 1201.8,284.6 1202,292.2 1202.2,297.3 1202.2,297.3 	"/>
	<path class="st2" d="M1209.9,287.6c1.4,0.2,2.9,0.3,4.4,0.4l0.3,0l0-0.3c0.1-2.6,0.2-5.3,0.2-7.9l0.1-7.9l0-0.5l-0.5,0l-9-0.6
		l-0.5,0l0,0.5c0,2.7,0.2,5.4,0.3,8.1c0.1,2.7,0.2,5.3,0.3,7.9v0l0,0l0,0l0,0L1209.9,287.6z M1213.3,272.9
		C1213.3,272.9,1213.3,272.9,1213.3,272.9c-0.1,2.3-0.3,4.6-0.3,6.9c-0.1,2.1-0.2,4.1-0.2,6.2c-1.8-0.1-3.7-0.3-5.5-0.4
		c0-2.1-0.1-4.3-0.1-6.4c0-2.2-0.1-4.4-0.2-6.5c1,0,2,0.1,3,0.1L1213.3,272.9L1213.3,272.9L1213.3,272.9L1213.3,272.9z"/>
	<path class="st2" d="M1223.4,288.6l0-0.5c0-1.4,0-2.7-0.1-4.1l-0.2-4.1c-0.1-2.7-0.2-5.4-0.4-8c0,0,0,0,0,0v0l0,0l-3.4-0.2
		c-1.2-0.1-2.3-0.2-3.5-0.2l-0.3,0l0,0.3c-0.1,2.7-0.2,5.3-0.2,8l-0.1,8l0,0.5l0.5,0l7.1,0.3L1223.4,288.6z M1221.2,273.6
		c0,2.1,0.1,4.3,0.1,6.4c0.1,2.2,0.2,4.4,0.2,6.7l-4.5,0l0,0c0.1-2.4,0.2-4.7,0.3-7c0.1-2.1,0.1-4.2,0.2-6.3L1221.2,273.6z"/>
	<path class="st2" d="M1232,280.4c-0.1-2.7-0.2-5.4-0.4-8c-2.4-0.2-4.9-0.5-7.5-0.6l-0.3,0l0,0.3c0,2.7,0,5.4,0.1,8.1l0.2,8.1l0,0.5
		l0.5,0l7.2,0.3l0.5,0l0-0.5C1232.2,285.9,1232.1,283.1,1232,280.4z M1225.7,287.2L1225.7,287.2c0-2.4,0.1-4.8,0.1-7.1
		c0-2.1,0-4.2,0-6.3l4.2,0.2c0,2.2,0.1,4.3,0.1,6.5c0.1,2.2,0.2,4.4,0.2,6.7L1225.7,287.2L1225.7,287.2z"/>
	<path class="st2" d="M1218.4,263.6c-1.3-0.9-2.6-1.6-4-2.3c-1.4-0.6-2.8-1.2-4.3-1.6c-1.5-0.4-3-0.7-4.5-0.6h0c0,0,0,0,0,0
		c0,0,0,0,0,0c0.9,1.2,2.1,2.2,3.2,3.2c1.2,0.9,2.5,1.7,3.9,2.5c1.3,0.7,2.8,1.3,4.2,1.8c1.5,0.5,3,0.8,4.5,0.9l1.2,0.1l-0.8-0.9
		C1220.9,265.4,1219.6,264.4,1218.4,263.6z"/>
	<path class="st2" d="M969.1,313.3c-0.4,0.8-0.8,1.5-1.2,2.3c-0.1,0.2-0.2,0.3-0.3,0.5c-0.1,0.2-0.2,0.3-0.3,0.5c0,0,0,0,0,0
		c0,0,0,0,0,0c-0.2,0.3-0.3,0.6-0.5,0.8c-0.7,1-1.4,2-2.3,3c-0.1,0.1-0.1,0.2-0.2,0.3c-0.1,0.1-0.1,0.2-0.2,0.3c0,1.2,0,2.4,0,3.6
		c0.2,3.8,0.4,7.6,1.1,11.3l0.4,2l0.4-1.9c0.7-3.2,1.1-6.6,1.4-9.8c0.1-1.7,0.1-3.3,0.2-5l0.1-4.5c5.8-0.1,11.7-0.2,17.6-0.5l9-0.5
		l9-0.7l0-0.2l-9.4-0.6l-9.3-0.4c0,0,0,0-0.1,0c0,0,0,0-0.1,0l-10-0.4l-5.3-0.1C969.2,313.2,969.2,313.2,969.1,313.3
		C969.1,313.3,969.1,313.3,969.1,313.3z"/>
	<path class="st2" d="M1212.9,294.5l5.6,0.9c1.8,0.3,3.7,0.6,5.6,0.7c1.9,0.1,3.8,0,5.7-0.2l0.4-0.1l0-0.4l0-0.2l0-0.4l-0.4-0.1
		c-1.8-0.6-3.7-0.9-5.6-1.1c-1.9-0.2-3.8-0.2-5.6-0.2l-5.6,0c-1.9,0-3.7,0-5.6,0.1l0,0l0,0l0,0.2l0,0c0,0,0,0,0,0L1212.9,294.5z"/>
	<path class="st2" d="M1185.1,295.1c0.5-2.7,0.7-5.5,0.7-8.3c0.1-2.8,0-5.5-0.3-8.3l-0.5-4.8l-0.5,4.8c-0.3,2.8-0.3,5.5-0.3,8.3
		c0.1,1.4,0.1,2.8,0.2,4.1C1184.7,292.4,1184.8,293.8,1185.1,295.1C1185.1,295.1,1185.1,295.1,1185.1,295.1
		C1185.1,295.1,1185.1,295.1,1185.1,295.1C1185.1,295.1,1185.1,295.1,1185.1,295.1z"/>
	<path class="st2" d="M1198.3,274.3l-0.4,0.1l0,0l0,0l0,0h0h0l0,0l0,0l0,0l0,0c0,0,0,0,0,0l0,0l-7.7,1.3l0,0l0,0
		c0,3.3,0.1,6.7,0.1,10l0,10h0.6c0.1-3.2,0.2-6.5,0.3-9.7l0.2-9.3c1.9-0.3,3.8-0.7,5.7-1.1c0.1,3.2,0.2,6.4,0.3,9.6l0.5,10.2l0.4,0
		l0-10.6L1198.3,274.3L1198.3,274.3z"/>
	<path class="st2" d="M973,293.4L973,293.4L973,293.4l0,0.1l11.6,0.1l1.3,0l15.3,0.1l10.6,0c7.2,0,14.4,0.1,21.7,0.1l0,0h0h0l32.2,0
		l32.2-0.2l0.5,0.1l0.1,1.9l0.1,0l0.1-1.8l17.5,2.4l0,0h0l25,0.1l24.9-0.1c0,0.1,0,0.2,0,0.3l0.3,1.9l0.2-1.9
		c0.2-2.3,0.4-4.6,0.4-6.9c0.1-2.3,0.1-4.6,0.1-6.9c0,0,0,0,0,0c0,0,0,0,0,0c0,0,0,0,0,0c0,0,0,0,0,0c0-2.3,0-4.6-0.1-6.9
		c-0.1-2.3-0.2-4.6-0.4-6.9l-0.2-1.9l-0.3,1.9c-0.4,2.3-0.6,4.6-0.8,6.9c-0.2,2.3-0.2,4.6-0.2,7c0,2.3,0.1,4.6,0.2,7
		c0.2,2.1,0.4,4.3,0.7,6.4l-24.8-0.6l-25-0.5l-17.5-2.5l0.1-3.8c0-1.3,0-2.5,0.1-3.8l1.8,0.3l0.2,0l0-0.2l0-1.4l0-0.1l-0.1,0
		l-1.8-0.4c0-2.4,0.1-4.8,0.1-7.2l1.5,0.4l0.2,0.1l0-0.2l0-1.4l0-0.1l-0.1,0l-1.6-0.4l0-7.2l17.5,5.7l0,0l0,0l21,0.2l21,0l0-0.5
		l-20.9-0.8l-20.9-0.6l-17.7-5.9c0-2.2-0.1-4.4-0.1-6.7l16.7,5.7l0,0l0,0l18,0.2l18,0l0-0.6l-17.8-0.8l-17.8-0.6l-17-6l-0.2-7.8
		l19,7.7l0.1,0l0.1,0l13.6,0.4l13.6,0.3l13.6,0.3l13.6,0.2l0-0.9l-13.5-0.8l-13.5-0.7l-13.5-0.6l-13.4-0.5l-19.5-7.9l-0.3-7
		c6.8,2.7,13.7,5.5,20.5,8.2l0.1,0l0.1,0c8.8,0.3,17.5,0.5,26.3,0.7l13.1,0.2l13.1,0l0-0.9l-13.1-0.8l-13.1-0.6
		c-8.7-0.4-17.4-0.7-26.1-1c-7.1-2.7-14.2-5.4-21.3-8l-0.3-5.5l-0.8,0l-0.2,5.4l-12,0.3l-12.4,0.5l0,0.7l12.4,0.2l12,0.1l-0.1,7.5
		l-6.4,0.3l-0.3,0l0,0.3l0,1.4l0,0.3l0.3,0l6.3-0.2l0,7.5l-21.2,0.2l-21.2,0.3l-42.4,1.1l0,0.5l42.2,0.2l21.1-0.1l21.1-0.2l0.4,0.1
		c0,2.3,0,4.7,0.1,7l-3.4,0l-0.2,0l0,0.2l0,1.4l0,0.2l0.2,0l3.4,0l0.2,7.4l-3.5,0l-0.2,0l0,0.2l0,1.4l0,0.2l0.2,0l3.4,0l0.1,0
		c0.1,2.5,0.1,4.9,0.2,7.4l-0.7-0.1l0,0l0,0l-2.9,0l-0.2,0l0,0.2l0,1.4v0.2l0.2,0l2.9,0l0,0l0.8,0.1c0.1,1.3,0.1,2.6,0.2,3.9
		l0.2,3.8l-0.2,0l0,0l0,0l-32.3,0.1l-32.3,0.2l-32.3,0.4l-28.2,0.5L973,293.4L973,293.4z"/>
	<path class="st2" d="M972.2,283.5c0,0,0,0.1,0,0.1c0,0.1,0,0.2,0,0.3c0,0,0,0.1,0,0.1c0.8,0,1.7,0,2.5-0.1c2.1-0.1,4.1-0.1,6.1-0.3
		h0v0l0-0.4l0,0l0,0c-2.1-0.2-4.1-0.2-6.2-0.2c-0.8,0-1.7,0-2.5,0c0,0,0,0.1,0,0.1C972.2,283.2,972.2,283.4,972.2,283.5z"/>
	<path class="st2" d="M1042.8,282.7l0,1.4l0,0.5l0.4,0c5.9-0.1,11.7-0.3,17.3-0.4c0,0,0,0,0,0c0,0,0,0,0,0c0,0,0,0,0,0v0l0-1.5l0,0
		l0,0l-17.3-0.4l-0.5,0L1042.8,282.7z"/>
	<path class="st2" d="M1155.2,287.4L1155.2,287.4L1155.2,287.4C1155.2,287.4,1155.2,287.4,1155.2,287.4c0.6,0.3,1.7,0.5,2.7,0.5
		l0.5,0l0-0.5l0-0.2l0-0.5l-0.5,0c-0.9,0-1.8,0-2.7,0.3l-0.1,0l0,0.1C1155.1,287.2,1155.1,287.3,1155.2,287.4z"/>
	<path class="st2" d="M1115.2,287.7L1115.2,287.7L1115.2,287.7c5.6,0.1,11.1,0.2,16.6,0.2c5.5,0,11,0.1,16.6,0l0.5,0l0-0.5l0-0.5
		l0-0.5l-0.5,0c-5.5-0.1-11-0.2-16.5-0.3l-16.5-0.1l-9.9-1.7c0,0,0,0,0,0v0l0,1.3l0,0l0,0L1115.2,287.7z"/>
	<path class="st2" d="M1023.6,282.4l-3.8,0.2c-1.3,0-2.5,0.2-3.8,0.2l-0.1,0l0,0.1l0.1,1.1l0,0v0c0,0,0,0,0,0c0,0,0,0,0,0
		c2.4,0.1,4.9,0.3,7.5,0.4c2.5,0.1,5.1,0.2,7.7,0.2l0.5,0l0-0.5l0-1.3l0-0.5l-0.5,0C1028.7,282.3,1026.2,282.3,1023.6,282.4z"/>
	<path class="st2" d="M970.4,275.4C970.4,275.4,970.4,275.4,970.4,275.4C970.4,275.4,970.4,275.4,970.4,275.4
		C970.4,275.4,970.4,275.4,970.4,275.4c0.7,0,1.4,0.1,2.1,0.1l2.7,0.2c1.8,0.2,3.8,0.3,5.7,0.3l0.5,0l0-0.5l0-0.4l0-0.5l-0.5,0
		c-1.9,0-3.8,0.2-5.7,0.4l-2.7,0.3C971.8,275.3,971.1,275.4,970.4,275.4C970.4,275.4,970.4,275.4,970.4,275.4
		C970.4,275.4,970.4,275.4,970.4,275.4z"/>
	<path class="st2" d="M1157.9,279.3c-0.6-0.3-1.6-0.5-2.6-0.6l-0.5,0l0,0.5c0,0.1,0,0.2,0,0.2l0,0.5l0.5,0c0.9,0,1.8-0.1,2.6-0.4
		l0.1,0l0,0C1158,279.4,1158,279.4,1157.9,279.3L1157.9,279.3C1157.9,279.3,1157.9,279.3,1157.9,279.3z"/>
	<path class="st2" d="M1043.2,274.1l-0.1,1.4l0,0.1l0.1,0c1.4,0.1,2.9,0.1,4.3,0.2l4.3,0.1c2.9,0.1,5.8,0.1,8.6,0.1l0.5,0l0-0.5
		l0-1.5l0-0.5l-0.5,0c-2.9,0-5.9,0.1-8.8,0.3C1048.8,273.8,1045.9,274,1043.2,274.1z"/>
	<path class="st2" d="M1031.3,274.3L1031.3,274.3L1031.3,274.3C1031.3,274.3,1031.3,274.3,1031.3,274.3c-2.4-0.1-4.9-0.2-7.5-0.2
		c-2.5-0.1-5.2-0.1-7.7-0.1l-0.5,0l0,0.5l0,1.1l0,0.5l0.5,0c2.5,0,5.1,0,7.6-0.1l3.8-0.1c1.3,0,2.5-0.1,3.8-0.2l0.1,0l0-0.1
		L1031.3,274.3z"/>
	<path class="st2" d="M1115.7,280L1115.7,280l8.2,0l8.2-0.1c5.5-0.1,10.9-0.2,16.4-0.3l0,0v0l0-0.5l-16.2-0.6
		c-5.4-0.2-10.9-0.4-16.4-0.5l-10.5-2.7l-0.6-0.2l0,0.7l0,1.3l0,0.4l0.4,0.1L1115.7,280L1115.7,280z"/>
	<path class="st2" d="M1060.9,264.9l0-0.5l-0.5,0c-2.9,0.1-5.9,0.1-8.8,0.3c-2.9,0.1-5.7,0.3-8.5,0.5h0v0l-0.1,1.3l0,0.1l0.1,0
		c1.4,0.1,2.9,0.1,4.3,0.2l4.3,0.1c2.9,0,5.7,0,8.6,0l0.5,0l0-0.5L1060.9,264.9z"/>
	<path class="st2" d="M1031.4,265.4L1031.4,265.4l-11.7,0c-4,0-8,0-11.9,0.1c-3.9,0-7.9,0.2-11.8,0.2l-11.8,0.3l0,1l11.8,0l11.8,0
		c7.9,0,15.7-0.2,23.6-0.4l0,0l0,0L1031.4,265.4L1031.4,265.4L1031.4,265.4L1031.4,265.4z"/>
	<path class="st2" d="M1083.1,248.5l-0.1-0.6l-0.2-1.3l0-0.4l-0.3,0c-0.9,0.2-1.8,0.3-2.6,0.4c0,0,0,0,0,0v0v0c0,0,0,0,0,0l-0.2,1.3
		l0,0.1l0.2,0l2.6,0.3L1083.1,248.5z"/>
	<path class="st2" d="M1071.9,247.1c-2.5,0.1-4.9,0.2-7.4,0.3l-7.4,0.2c-4.9,0.1-9.9,0.4-14.8,0.7l0,1c4.7-0.1,9.3-0.3,13.9-0.5
		l7-0.3c2.3-0.1,4.6-0.2,7-0.2c0,0,0,0,0,0l0,0c0,0,0,0,0,0l0,0l1.6,0l0,0l0,0L1071.9,247.1L1071.9,247.1L1071.9,247.1z"/>
	<path class="st2" d="M1109.9,232.7c-2.8-1.1-6-2.2-9.2-3.1l-0.3,0.9c3.1,1.2,6.2,2.3,9.5,3.1l0.1,0l0-0.1
		C1109.9,233.2,1109.9,232.9,1109.9,232.7L1109.9,232.7C1109.9,232.7,1109.9,232.7,1109.9,232.7z"/>
	<path class="st2" d="M1118.1,234.6l-0.7-0.2l0,0.7c0,0.5,0.1,0.9,0.1,1.4l0,0.3l0.2,0.1c0.8,0.2,1.6,0.3,2.4,0.4c0,0,0,0,0,0l0,0h0
		c0,0,0,0,0,0c0.3,0.1,0.6,0.2,0.9,0.2l0.2,0l0-0.2c0.1-0.5,0.1-0.9,0.1-1.4l0-0.3l-0.4,0c-0.2,0-0.3,0-0.5-0.1
		C1119.8,235.1,1118.9,234.8,1118.1,234.6z"/>
	<path class="st2" d="M1134.8,237.9c2.8,0.1,5.6,0.2,8.4,0.3c2.8,0,5.6,0.1,8.4,0l8.4-0.1l0-1l-8.4-0.5c-2.8-0.2-5.6-0.3-8.4-0.4
		c-2.8-0.1-5.7-0.1-8.5-0.2l-8.3,0c0,0,0,0,0,0v0l0,0l0,0l0,1.5l0,0l0.1,0L1134.8,237.9z"/>
	<path class="st2" d="M1124.3,228.2l1.6,0.3c1.1,0.2,2.1,0.3,3.2,0.4c2.1,0.1,4.3,0.2,6.4,0.2c2.1-0.1,4.3-0.2,6.4-0.3
		c1.7-0.2,3.3-0.3,5-0.6l0.1,0c0.3,0,0.5-0.1,0.8-0.2c0.1,0,0.2-0.1,0.3-0.1c0,0,0,0,0.1,0l0,0c0.1,0,0.2-0.1,0.2-0.2l0,0
		c0-0.1-0.1-0.1-0.2-0.1l0,0l0,0c0,0,0,0,0,0v0c0,0,0,0,0,0c0,0,0,0,0.1,0c0,0,0,0,0,0c0,0,0,0,0,0c0,0,0,0,0,0c0,0-0.1,0-0.2,0
		l-0.3,0c0,0,0,0,0,0c0,0,0,0,0,0c-2.1,0-4.1-0.2-6.2-0.3l-6.2-0.4l-6.2-0.2l-3.1-0.1c-1,0-2.1,0-3-0.2l-2.5-0.6l2.1,1.5
		C1123.2,227.9,1123.8,228,1124.3,228.2z M1148,227.8C1148,227.8,1148,227.8,1148,227.8C1148,227.8,1148,227.8,1148,227.8
		C1148,227.8,1148,227.8,1148,227.8z M1147.6,227.8c-0.3,0-0.5,0-0.8,0l-1.1-0.1C1146.4,227.8,1147,227.8,1147.6,227.8z"/>
	<polygon class="st2" points="1130.3,331.1 1130.3,331.1 1130.3,331.1 	"/>
	<path class="st2" d="M1089.9,312.4l-0.3,0l-19.5-0.7l-19.6-0.5l-0.3,0l0,0.3c-0.3,3.1-0.2,6.3-0.1,9.5l0.2,9.4l0.5,18.9l0,0.4
		l0.4,0l0.3,0l0.4,0l0-0.4l1.1-17.3c0.3-5.6,0.6-11.3,0.9-16.9l16.6,0.1l16.5,0l1,28.1c-1.9,0-3.7,0.1-5.5,0c-1,0-1.9-0.1-2.9-0.3
		c-0.9-0.2-1.9-0.5-2.8-0.8c-0.9-0.3-1.9-0.6-2.9-0.9c-1-0.2-2.1-0.3-3.1-0.2c-1,0.1-2.1,0.4-3,1c-0.9,0.6-1.6,1.4-1.9,2.5
		c0,0,0,0,0,0l0,0c0,0,0,0,0,0.1l0.8,0.3c0.4-1,1.4-1.8,2.5-2.1c1.1-0.4,2.3-0.4,3.5-0.1c2.4,0.5,4.6,1.8,7.1,2.4
		c2.5,0.6,5.1,0.4,7.6,0.5c1.2,0,2.5,0.1,3.7,0.3c0.6,0.2,1.2,0.3,1.8,0.5c0.6,0.2,1.3,0.4,1.9,0.4c0.7,0,1.4-0.2,2-0.5
		c0.6-0.4,1.1-0.9,1.4-1.4c0.7-1.1,1.1-2.4,1.5-3.5c0.2-0.6,0.5-1.1,0.8-1.6c0.4-0.5,0.8-0.8,1.3-1.1c1-0.6,2.2-0.9,3.4-1.3
		c1.2-0.3,2.4-0.7,3.6-1.2c1.2-0.5,2.2-1.3,3.3-1.9c1-0.6,2.2-1.2,3.3-0.9c1.1,0.2,2.2,1,2.1,2.1l0.7,0.1c0,0,0,0,0,0l0,0
		c0,0,0,0,0,0c0.1-0.5,0-1.1-0.2-1.6c-0.3-0.5-0.7-0.9-1.1-1.1c-0.9-0.6-1.9-0.8-2.9-0.7c-2,0.3-3.6,1.6-5.2,2.3
		c-1.7,0.7-3.5,1-5.4,1.5c-0.9,0.2-1.8,0.6-2.7,1.1c-0.5,0.3-1,0.7-1.4,1.2l1.1-10.5c0.4-3.8,0.8-7.5,1.2-11.3l14,0l14.3-0.1
		l28.3-0.5c0.2,2.4,0.3,4.9,0.6,7.3c-1.7,0.2-3.4,0.7-5,1.2c-1.7,0.5-3.4,1-5.1,1.4c-3.4,0.8-6.9,1.3-10.5,1.4l-0.1,0l0,0.1
		c-0.1,0.8-0.4,1.6-0.9,2.2c-0.5,0.6-1.2,1.1-2,1.4c-0.8,0.3-1.6,0.3-2.4,0.1c-0.4-0.1-0.8-0.2-1.3-0.2c-0.4,0-0.9,0.1-1.2,0.4
		c-0.4,0.3-0.6,0.7-0.8,1.1l0,0l0,0c-0.2,0.6-0.2,1.1-0.2,1.7l0.1,1.7c0,0.6,0,1.1-0.1,1.6c-0.1,0.5-0.3,1-0.6,1.5l0.2,0.2
		c0,0,0,0,0,0l0,0c0,0,0,0,0,0c0.5-0.6,0.8-1.3,0.9-2c0.1-0.7,0.1-1.5,0.1-2.2c0-0.7,0-1.5,0.2-2.1c0.2-0.7,0.9-1,1.6-0.9
		c0.7,0.1,1.4,0.4,2.2,0.4c0.8,0,1.5-0.2,2.2-0.5c1.3-0.6,2.4-1.8,2.9-3.2c4-0.1,8.1-0.6,12-1.6c1-0.2,2-0.5,2.9-0.8
		c1-0.3,1.9-0.6,2.9-0.9c1-0.2,2-0.4,3-0.4c1,0,2,0.3,2.7,1.1l0,0l0,0c0.3,0.3,0.4,0.7,0.7,1.1c0.3,0.4,0.5,0.7,0.9,0.9
		c0.4,0.2,0.8,0.4,1.3,0.3c0.5,0,0.9-0.2,1.3-0.4c0.8-0.5,1.4-1.1,2-1.7c0.6-0.7,1.1-1.4,1.7-2c1.3-1.2,3.1-1.7,4.8-1.5
		c1.7,0.1,3.4,0.9,4.6,2.1c1.3,1.3,1.5,3.1,1.8,4.8c0.2,0.9,0.3,1.7,0.6,2.5c0.3,0.8,0.6,1.6,0.9,2.5c0.6,1.6,1.3,3.3,1.2,5
		c0,0.9-0.2,1.7-0.5,2.5c0,0,0,0.1,0,0.1c-0.2,0.5-0.6,1-1,1.4c-0.1,0.1-0.2,0.1-0.3,0.2c-0.1,0.1-0.3,0.2-0.4,0.3l0,0l0,0
		c0,0.2,0.1,0.4,0.2,0.6c0.1,0.2,0.3,0.3,0.4,0.5l0,0c0.1,0.2,0.3,0.3,0.5,0.5c0.1,0.1,0.1,0.2,0.2,0.2l0.2,0.2c0.5,0.5,1,1,1.6,1.5
		c0.4,0.4,0.8,0.8,1.2,1.2c0.2,0.2,0.4,0.4,0.5,0.6c0.1,0.1,0.2,0.2,0.3,0.4c0.1,0.1,0.1,0.2,0.1,0.3c0,0.1,0.1,0.1,0.1,0.2l0,0
		c-0.1-0.7-0.6-1.1-1-1.6l-1.3-1.4l-1.2-1.3c-0.2-0.2-0.4-0.4-0.6-0.7c0,0,0,0,0,0c-0.2-0.2-0.3-0.5-0.5-0.8
		c0.3-0.2,0.5-0.4,0.8-0.6c0,0,0.1-0.1,0.1-0.1c0.4-0.4,0.8-0.9,1-1.5c0-0.1,0.1-0.1,0.1-0.2c0,0,0,0,0,0c0-0.1,0.1-0.2,0.1-0.3
		c0,0,0-0.1,0-0.1c0.1-0.2,0.1-0.4,0.2-0.6c0,0,0,0,0-0.1c0,0,0,0,0-0.1c0.1-0.5,0.2-1.1,0.2-1.6c0-2-0.7-3.9-1.3-5.8
		c-0.3-0.9-0.6-1.9-0.8-2.9c-0.2-1-0.3-2-0.4-2.9c-0.2-1-0.5-1.9-1-2.8c-0.5-0.8-1.2-1.6-2.1-2.1c-1.6-1.1-3.7-1.7-5.7-1.5
		c-2,0.1-4,1-5.2,2.5c-0.6,0.8-1.2,1.6-2,2.2c-0.4,0.3-0.8,0.6-1.2,0.7c-0.2,0-0.4-0.1-0.6-0.2c-0.2-0.2-0.3-0.4-0.4-0.6
		c-0.5-0.9-1.2-1.6-2.1-2.1c-0.9-0.4-1.9-0.6-2.8-0.5c0.1-1.5,0.3-3.1,0.4-4.6l0.3-4.7l0-0.1l-0.1,0l-30.8-0.7l-15.4-0.2l-15.4-0.1
		l-0.2,0l0,0.2c-0.1,2.3-0.1,4.6-0.1,6.9l-0.1,6.9c-0.1,4.6-0.1,9.2-0.2,13.8c-0.4,0.9-0.7,1.8-1.1,2.7c-0.4,0.8-1.1,1.6-2,1.4
		c-0.9-0.1-1.8-0.5-2.8-0.7c-0.9-0.2-1.8-0.2-2.7-0.3l0.7-30.9L1089.9,312.4z M1186.2,348.5L1186.2,348.5
		C1186.3,348.6,1186.3,348.6,1186.2,348.5C1186.3,348.5,1186.2,348.5,1186.2,348.5z M1183.8,345.6L1183.8,345.6
		C1183.7,345.5,1183.7,345.5,1183.8,345.6C1183.7,345.5,1183.7,345.6,1183.8,345.6z M1184.7,342c-0.1,0.2-0.2,0.3-0.3,0.5
		C1184.5,342.3,1184.6,342.1,1184.7,342C1184.7,341.9,1184.7,342,1184.7,342z M1185.3,339.1C1185.3,339.1,1185.2,339.1,1185.3,339.1
		C1185.2,339.1,1185.2,339.1,1185.3,339.1C1185.2,339,1185.3,339.1,1185.3,339.1z"/>
	<path class="st2" d="M1158.4,332.4l-0.4,0c-1.8-0.2-3.7-0.2-5.5,0c0,0,0,0,0,0c0,0,0,0,0,0c-1.4,0.1-2.8,0.4-4.2,0.8
		c-1.4,0.4-2.7,1.1-3.8,2c-1.2,0.9-2.2,2-2.9,3.3c-0.7,1.3-1.1,2.8-0.9,4.4l0.4,2.4l0.5-2.4c0.3-1.6,1.2-3.2,2.3-4.4
		c1.1-1.2,2.5-2.3,4.1-3c3.1-1.5,6.7-2,10.1-2.9L1158.4,332.4z"/>
	<path class="st2" d="M1168.6,333.9l0.2,0.5c0.7,1.7,2.3,2.9,4,3.4c0.4,0.1,0.9,0.2,1.3,0.3l1.3,0.1c0.9,0.1,1.7,0.2,2.6,0.2
		l2.5,0.2l-2.2-1.1c-1.5-0.7-2.9-1.4-4.4-2.1c-1.5-0.6-3.1-1.1-4.7-1.3c0,0,0,0,0,0c0,0,0,0,0,0c0,0,0,0,0,0c0,0,0,0,0,0
		c0.1,0.1,0.1,0.1,0.2,0.2l-0.3-0.2L1168.6,333.9z"/>
	<path class="st2" d="M1165.9,345.3C1165.9,345.3,1165.9,345.3,1165.9,345.3C1165.9,345.3,1165.9,345.3,1165.9,345.3
		c-0.2-0.2-0.5-0.4-0.7-0.6c-0.2-0.2-0.4-0.5-0.5-0.8l-0.1-0.2l-0.2,0.1c-0.5,0.3-0.7,1-0.6,1.6c0.1,0.6,0.4,1.1,0.9,1.5
		c0.5,0.3,1.1,0.5,1.7,0.4c0.6-0.1,1.1-0.5,1.3-1.1l0.1-0.2l-0.2,0c-0.3,0-0.6-0.1-0.9-0.2C1166.4,345.6,1166.2,345.4,1165.9,345.3z
		"/>
	<path class="st2" d="M1154.7,344L1154.7,344L1154.7,344L1154.7,344L1154.7,344L1154.7,344L1154.7,344l-0.1,0l0,0c0,0,0,0,0,0
		c-0.9-0.7-2.2-0.8-3.4-0.6l-0.1,0l-0.7,0l0.1,0.2l-0.2,0.1l0.1,0.4c0.2,0.5,0.3,0.9,0.5,1.4l0.2,0.5l0.3-0.1l0,0.1l0.4-0.3l0,0
		l0.1,0l0,0c0.9-0.5,1.8-1,2.7-1.6l0,0L1154.7,344L1154.7,344z"/>
	<path class="st2" d="M1112.6,342.4c-2.4-0.7-5.1,0.4-6.5,2.6c-0.3,0.2-0.6,0.4-0.8,0.7l0,0l0,0c-0.5,0.7-1,1.4-1.4,2.2
		c-0.4,0.7-0.8,1.5-1.3,2.3c-0.2,0.4-0.4,0.7-0.7,1.1c-0.2,0.3-0.6,0.6-0.9,0.9l-1.8,1.9l-0.8,0.9l1.1-0.5l2.1-0.9
		c0.7-0.3,1.4-0.6,2.1-0.8c1.4-0.5,2.9-0.9,4.3-1.3c1.5-0.4,2.9-0.9,4.4-1.4c0.7-0.2,1.4-0.5,2.2-0.8c0.7-0.3,1.5-0.5,2.2-0.9
		l2.9-1.6l-3.1,0.7C1116.5,345,1114.8,343,1112.6,342.4z M1106.9,346.3l0.1,0.2c0,0-0.2,0-0.3-0.1
		C1106.8,346.4,1106.8,346.3,1106.9,346.3z M1110.3,348.7c-1,0.2-2.1,0.5-3.1,0.7c-0.8,0.2-1.5,0.4-2.2,0.6c0.3-0.5,0.5-1,0.8-1.5
		c0.2-0.4,0.4-0.8,0.6-1.1l0.3-0.5c0.1-0.1,0.1-0.2,0.2-0.2l0.1-0.1l0.1-0.1l0,0l0,0l0,0c0,0,0,0,0,0l0.4-0.3l0,0l0,0
		c0.9-1.8,3-2.9,5-2.4c1.8,0.4,3.4,1.9,3.9,3.8c-1,0.2-2,0.5-3,0.7L1110.3,348.7z"/>
	<path class="st2" d="M1068.6,352.8c0.9-0.4,1.9-0.8,2.8-1c1-0.3,2-0.5,3-0.6c0.5,0,1,0,1.5,0c0.3,0,0.5,0.1,0.7,0.1
		c0.1,0,0.2,0.1,0.3,0.1l0.2,0.3l0.1,0.1l0.1,0c3.4-0.1,6.9,1.3,9.4,3.7l0.2,0.2l-0.2-0.3c-1-1.5-2.3-2.8-3.9-3.6c0,0,0,0,0,0
		c0,0,0,0,0,0c0,0,0,0,0,0c0,0,0,0,0,0c-1.5-0.9-3.2-1.4-4.9-1.6c-0.9-0.8-2.1-0.9-3.3-0.9c-1.2,0-2.3,0.2-3.4,0.4
		c-1.1,0.2-2.2,0.6-3.3,1.1c-0.5,0.3-1,0.5-1.5,0.9c-0.4,0.3-0.8,0.7-1,1.3c-0.5,0-0.9,0-1.4,0l-1.6,0.1l-1.5,0.1
		c-0.5,0-1,0.1-1.5,0.1l-3.9-0.4l3.7,1.3c0.7,0.2,1.3,0.3,1.9,0.3l1.9,0.1l1.8,0.1c0.3,0,0.6,0,0.9,0.1l0.9,0.2l0.7,0.2l0-0.7l0-0.8
		c0,0.1,0.1-0.2,0.2-0.3C1067.8,353.3,1068.2,353,1068.6,352.8z"/>
	<path class="st2" d="M1221.9,332.2c3.5-0.1,7-0.1,10.5-0.3c3.5-0.3,6.9-0.6,10.4-1.2l0.1,0l0-0.1l0-0.2l0-0.1l-0.1,0
		c-3.5-0.3-7-0.3-10.5-0.3c0,0,0,0,0,0h0c0,0,0,0,0,0c0,0,0,0,0,0h0c-2.6,0-5.2,0.1-7.8,0.3c-2.6,0.1-5.2,0.2-7.8,0.3l-15.6,0.6
		l-0.4,0l0,0.4l0,0.2l0,0.4l0.4,0l10.4,0L1221.9,332.2z"/>
	<path class="st2" d="M1158.2,354.9c-12.5,1-25,1.7-37.5,2.3c-25,1.2-50,2-75,2.7c-50,1.5-100.1,2.6-150.1,3.8
		c-100.1,2.5-200.2,5.7-300.2,10.7c-34.8,1.8-69.6,3.9-104.3,6.2c-15.2,1-30.4,2.1-45.6,3.2c-25,1.9-49.9,3.9-74.9,6.2
		c-24.9,2.2-49.9,4.7-74.7,7.5c-49.8,5.5-99.4,11.9-148.9,19.9c-49.4,8.1-98.6,17.7-147.1,30c48.6-11.9,97.9-21,147.3-28.6
		c49.4-7.7,99.1-13.9,148.9-19.1c64.9-6.8,129.9-12.1,194.9-16.3c34.8-2.3,69.6-4.3,104.5-6c50-2.6,100-4.7,150-6.6
		c50-1.9,100-3.3,150.1-4.8c50-1.5,100.1-2.9,150.1-4.7c25-0.9,50-2,75-3.4c12.5-0.7,25-1.6,37.5-2.7c6.2-0.5,12.5-1.2,18.7-2
		c6.2-0.8,12.4-1.7,18.5-3.2c-6.1,1.4-12.3,2.2-18.5,3C1170.7,353.8,1164.5,354.4,1158.2,354.9z"/>
	<path class="st2" d="M2116.1,401.4l-6.7-1l-6.7-0.9l-6.7-0.8l-6.7-0.7c-4.5-0.5-9-1-13.4-1.4c-9-0.9-17.9-1.8-26.9-2.5
		c-9-0.8-18-1.6-26.9-2.3c-35.9-2.9-71.9-5.4-107.9-7.8c-36-2.5-72-4.6-107.9-6.9l-108-6.7l-6.8-0.4l-101.1-6.3
		c-36-2.3-71.9-4.8-107.9-7.2c-36-2.5-71.9-5.2-107.8-8.4c-35.9-3.1-71.8-6.6-107.5-11.8c17.8,3,35.7,5.4,53.6,7.5
		c4.5,0.6,9,1.1,13.4,1.5l13.4,1.5l26.9,2.8c35.9,3.5,71.8,6.4,107.8,9.2c35.9,2.8,71.9,5.3,107.9,7.7l101.3,6.5l6.6,0.4l215.9,12.9
		c36,2.2,72,4.4,107.9,7c9,0.6,18,1.3,27,2c9,0.7,18,1.4,26.9,2.2c4.5,0.4,9,0.8,13.5,1.3l6.7,0.7l6.7,0.8l6.7,0.7l6.7,0.9
		c4.5,0.5,8.9,1.4,13.3,2.2C2125,403,2120.6,402,2116.1,401.4z"/>
	<path class="st1" d="M1431.4,238.2c-0.1,0-0.2-0.1-0.2-0.1C1431.2,238.2,1431.3,238.2,1431.4,238.2
		C1431.4,238.2,1431.4,238.2,1431.4,238.2z"/>
	<path class="st3" d="M1266.1,322c1.9-1.8,4.2-3.3,6.6-4.6c0.6-0.3,1.2-0.6,1.8-0.9l1.9-1c0.6-0.3,1.3-0.7,1.9-1.1
		c0.6-0.4,1.2-0.7,1.8-1.1c2.4-1.6,4.7-3.4,6.9-5.2c7-5.9,13.1-12.5,19.8-17.8c0.3-0.2,0.6-0.5,0.9-0.7c1.4-1.1,2.8-2.1,4.2-3.1
		c4.3-2.8,9-5.1,13.9-6.6c4.9-1.6,10-2.5,15.1-2.7c2.5-0.1,5.1,0,7.6,0.1c2.6,0.2,5.8,0.7,9.5,0.3c4.1-0.5,8.1-2,11.6-4.3
		c1.6,1.2,3.3,1.8,4.9,2.3c2.2,0.6,4.4,0.7,6.7,0.5c1.1-0.1,2.3-0.4,3.5-0.8c1.1-0.4,2.5-1.1,3.2-1.5c3.3-2,5.6-4.3,7.6-5.8
		c1-0.8,1.9-1.4,2.7-1.8c0.8-0.4,1.4-0.6,2.1-0.7c0.7-0.1,1.7-0.1,2.7,0c0.6,0.1,1.1,0.1,1.8,0.2l0.9,0.2l1,0.2
		c2.7,0.5,5.8,1.3,9.8,1.4c2.1,0,4.5-0.2,7-1.3c0.6-0.3,1.2-0.6,1.8-1c0.3-0.2,0.6-0.3,0.9-0.6l0.8-0.6c1-0.8,1.9-1.8,2.7-3
		c1.5-2.3,2.2-4.9,2.4-7c0.2-2.2,0-4-0.2-5.7c-0.2-1.7-0.5-3.2-0.7-4.5l-0.1-0.5l0-0.2l0-0.1c0-0.2,0-0.4,0-0.6c0-0.4,0-0.8,0-1.3
		c0.1-0.8,0.3-1.7,0.6-2.2c0-0.1,0.1-0.2,0.1-0.3c0.3,0.2,0.8,0.5,1.3,1c1,0.8,2.3,2.1,4.2,3.2c2.1,1.3,4.4,1.9,6.3,2.2
		c1.9,0.3,3.5,0.3,4.8,0.4c0.7,0,1.3,0.1,1.8,0.2c0.5,0.1,0.9,0.2,1.4,0.3c1.8,0.5,3.5,1.5,5,3c1.4,1.5,2.6,3.4,3.2,5.3
		c0.6,2,0.6,4,0.1,5.9l6.6,5.6c0.1,0,0.2,0,0.3,0.1c0.5,0.2,1.3,0.8,1.8,1.5c0.3,0.4,0.5,0.7,0.6,1.1c0.2,0.5,0.3,1.1,0.5,1.8
		c0.3,1.3,0.4,2.9,0.7,4.6c0.3,1.7,0.7,3.7,1.6,5.6c0.9,1.9,2.2,3.5,3.4,4.8c1.3,1.3,2.5,2.4,3.7,3.4l3.6,3.1
		c4.8,4.1,9.6,8.3,14.6,12.4c1.3,1.1,2.5,2.1,3.8,3.2c-0.8,0.1-1.7,0.2-2.5,0.3c-3.2,0.4-6.4,0.8-9.6,1.5c-3.2,0.7-6.5,1.5-9.5,2.8
		c-3.1,1.3-6.1,3-8.6,5.2c-1.3,1.1-2.4,2.3-3.4,3.6c-1,1.3-1.9,2.7-2.6,4.2c-0.7,1.5-1.2,3.1-1.5,4.7c-0.3,1.6-0.2,3.2,0,4.8
		c0,0,0,0,0,0c0.1-3.2,1.1-6.2,2.8-8.8c0.8-1.3,1.8-2.4,2.9-3.5c1.1-1.1,2.3-2,3.5-2.9c2.5-1.7,5.3-2.8,8.2-3.6
		c2.9-0.8,5.9-1.3,8.9-1.6c3.1-0.3,6.2-0.4,9.3-0.4l9.5-0.2c0.1,0,0.1,0,0.2,0c0.3,0,0.7,0,1,0c6-0.2,12.2-0.6,18.5-2.1
		c3.3-0.8,6.7-2,10-3.8c3.2-1.8,6.3-4.3,8.7-7.4c1.3-1.6,2.2-3.2,2.9-4.7c0.8-1.5,1.5-2.8,2.2-3.8c0.7-1,1.3-1.7,1.9-2.1
		c0.6-0.4,1-0.5,2-0.6c1-0.1,2.4-0.1,4.1-0.2c1.7,0,3.8-0.1,6.3-0.9c1.2-0.4,2.5-1,3.7-1.9c1.2-0.9,2.2-1.9,3-3
		c1.6-2.3,2.4-4.8,2.6-7.2c0.2-2.4-0.1-4.8-0.8-7.2c-0.4-1.2-0.9-2.2-1.4-3.2c-0.5-0.9-1.1-1.8-1.7-2.6c0.5-0.2,1-0.4,1.5-0.6
		c2-0.9,4-1.9,6-3.3c2-1.4,3.9-3.1,5.5-5.4c1.6-2.2,2.7-5,3.2-7.7c0.2-1.3,0.3-2.4,0.4-3.2c0.1-0.9,0.2-1.5,0.3-1.9
		c0-0.2,0.1-0.3,0.1-0.4c0,0,0-0.1,0-0.1c0,0,0,0,0,0c0,0-0.1,0.1-0.1,0.2c-0.2,0.3-0.4,0.4-0.5,0.5c-0.1,0.1-0.2,0.1-0.3,0.2
		c-0.2,0-0.2,0.1-1,0c-0.3-0.1-1-0.3-1.6-0.9c-0.2-0.1-0.3-0.3-0.4-0.5c-0.1-0.2-0.3-0.4-0.4-0.6c-0.1-0.2-0.2-0.4-0.3-0.6
		c-0.1-0.2-0.1-0.4-0.2-0.6l12.8-1.2c0-0.6,0.2-1.3,0.7-2c0.4-0.7,1.1-1.4,2-2c0.2-0.1,0.4-0.2,0.5-0.3l0.1,7.2l7.9-2.1l7.2-1.9
		c0.6,1,1.2,1.8,1.8,2.7c1.9,2.4,3.8,4.2,5.4,5.9c0.8,0.8,1.6,1.6,2.3,2.3c0.4,0.4,0.6,0.7,0.9,1.1c0.3,0.4,0.6,0.7,0.8,1.1
		c1.1,1.5,1.9,3.2,2.6,5c0.7,1.8,1.1,3.7,1.4,5.6c0.2,1.9,0.2,3.9,0,5.8c-0.2,1.9-0.7,3.8-1.3,5.6c-0.7,1.8-1.6,3.5-2.7,5.1
		l-4.1,6.1l6.6,2l8.4,2.5c0.2,0.6,0.4,1.1,0.7,1.6c0.9,1.6,2.2,2.9,3.6,3.9c1.2,0.8,2.5,1.4,3.9,1.8c-0.2,3.3,0.2,6.5,1,9.6
		c1.2,4.9,3.4,9.3,6.3,13.2c2.9,3.9,6.5,7.2,10.6,9.7c3.5,2.1,7.3,3.6,11.2,4.3c-0.1,0.5-0.1,1.1,0,1.6c0.2,1.4,1,2.8,2.2,3.6
		l0.2,0.1l0.1,0c2.8,1.1,5.6,2.5,8.2,4.2c2.2,1.4,4.3,3,6.3,4.8c0.4,0.3,0.7,0.6,1.1,1c0,0,0,0,0,0c-0.3-0.5-0.7-0.9-1.1-1.4
		c-1.6-2-3.4-3.9-5.4-5.6c-2.3-2.1-4.9-3.8-7.6-5.4c-0.4-0.4-0.7-1-0.7-1.6c0-0.6,0.3-1.2,0.6-1.5l2.7-2.1l-3.7-0.9
		c-4.1-1-7.9-2.8-11.1-5.3c-3.3-2.5-6-5.7-8.1-9.1c-4.2-6.9-5.7-15.3-3.4-22.5l2-6.3l-7.7,1c-0.2,0-0.5,0-0.9-0.1
		c-0.4-0.1-0.8-0.3-1.1-0.6c-0.3-0.3-0.6-0.6-0.7-0.9c-0.1-0.3-0.1-0.4,0-0.5l1.8-3.1l-5.1-1.9l-4.7-1.7c0.2-0.5,0.5-1,0.7-1.5
		c1.1-2.6,1.9-5.4,2.4-8.2c0.4-2.8,0.6-5.6,0.3-8.5c-0.3-2.8-0.8-5.6-1.7-8.4c-0.9-2.7-2.1-5.4-3.8-7.8c-0.4-0.6-0.8-1.2-1.3-1.8
		c-0.4-0.6-0.9-1.2-1.3-1.7c-0.9-1-1.8-2-2.6-2.9c-1.7-1.8-3.2-3.3-4.2-4.8c-0.5-0.7-0.9-1.4-1.1-1.9c-0.2-0.6-0.4-1.1-0.4-1.5
		l-0.9-7.1l-6.9,1.7l-4.7,1.2l0-2.2l-4.5-1.4c-2.9-0.9-5.9-1-8.6-0.5c-2.7,0.5-5.3,1.6-7.5,3.1c-2.2,1.5-4.2,3.5-5.7,5.9
		c-0.1,0.1-0.1,0.2-0.2,0.3c-1,0.1-1.9,0.3-2.7,0.6c-1.9,0.7-3.8,1.8-5.3,3.9c-0.2,0.2-0.4,0.6-0.5,0.8l-0.3,0.6
		c-0.2,0.4-0.4,0.8-0.6,1.2c-0.3,0.8-0.6,1.6-0.7,2.3c-0.4,1.4-0.5,2.6-0.6,3.6c-0.1,1-0.2,1.8-0.3,2.3c-0.2,1-0.5,1.8-1.1,2.6
		c-1.1,1.6-3.4,3.3-6.2,4.6c-2.8,1.3-6.1,2.3-9.5,3.2l-12.2,3.1l9.7,7.7c2.5,1.9,4.6,3.7,6,5.5c0.3,0.4,0.6,0.9,0.9,1.3
		c0.2,0.4,0.5,0.9,0.6,1.2c0.2,0.7,0.4,1.5,0.3,2.2c0,0.7-0.2,1.3-0.4,1.7c-0.2,0.3-0.3,0.4-0.8,0.7c-0.6,0.2-1.6,0.4-3.1,0.5
		c-1.4,0.1-3.2,0.1-5.4,0.5c-2.1,0.3-4.8,1.4-6.7,3c-2,1.6-3.3,3.5-4.2,5.1c-1.9,3.4-2.9,6.2-4.2,8.1c-1.3,2-3.1,3.8-5.4,5.2
		c-2.2,1.5-4.8,2.6-7.5,3.5c-5.5,1.8-11.6,2.7-17.8,3.4c-1.3,0.1-2.7,0.3-4,0.4c-1.5-1.7-3-3.4-4.5-5.1c-4.2-4.8-8.5-9.5-12.8-14.2
		l-3.2-3.5c-1.1-1.2-2.1-2.3-3-3.4c-0.9-1.1-1.5-2.1-1.8-3.1c-0.3-1-0.5-2.2-0.6-3.6c-0.1-1.4-0.1-3.1-0.3-4.9
		c-0.1-0.9-0.2-1.9-0.5-2.9c-0.3-1.2-0.8-2.3-1.4-3.3c-1.2-2-2.7-3.7-5-5c-0.3-0.2-0.6-0.3-1-0.5c0.1-1.9-0.1-3.7-0.5-5.5
		c-0.9-3.7-2.6-7.1-5.1-10c-2.5-2.9-5.7-5.2-9.6-6.5c-1-0.3-2-0.6-2.9-0.7c-0.9-0.2-1.8-0.3-2.6-0.4c-1.6-0.2-2.9-0.3-3.9-0.5
		c-1-0.2-1.5-0.5-2-0.8c-0.5-0.4-1.4-1.2-2.6-2.3c-0.6-0.5-1.3-1.2-2.2-1.8c-0.9-0.6-2-1.3-3.4-1.8c-1.4-0.5-2.9-0.8-4.4-0.7
		c-0.8,0-1.6,0.2-2.4,0.3c-0.8,0.2-1.6,0.5-2.3,0.9c-0.7,0.4-1.4,0.8-1.9,1.2c-0.3,0.2-0.6,0.5-0.8,0.7l-0.7,0.7
		c-0.9,1-1.6,2.1-2.2,3.1c-1.1,2.1-1.6,4.1-1.9,6.2c-0.1,1-0.2,2.1-0.2,3.1c0,0.5,0,1.1,0.1,1.6l0,0.4l0,0.3l0.1,0.6
		c0.2,1.6,0.4,3,0.5,4.2c0.1,1.2,0.1,2.3,0.1,3.1c-0.1,0.8-0.3,1.1-0.4,1.2c0,0.1-0.1,0.2-0.3,0.2c0,0,0,0.1-0.1,0.1
		c0,0-0.1,0-0.1,0c-0.1,0-0.1,0.1-0.1,0.1c-0.2,0.1-0.8,0.2-1.6,0.2c-1.8,0-4.5-0.6-7.5-1.3c-1.5-0.3-3.2-0.6-5-0.8
		c-1.8-0.1-3.8-0.2-6,0.2c-2.2,0.3-4.4,1.2-6.2,2.1c-1.8,1-3.3,2.1-4.6,3.1c-2.6,2.1-4.5,3.9-6.2,5c-0.2,0.1-0.5,0.3-0.5,0.3
		c-0.1,0-0.1,0.1-0.3,0.1c-0.2,0.1-0.5,0.2-0.8,0.2c-0.6,0.1-1.4,0.1-2-0.1c-0.6-0.1-1.1-0.5-0.8-0.3c0,0,0.1,0.1,0.1,0.1
		c0,0,0.1,0.1,0.1,0.2c0,0.1,0.2,0.3,0.2,0.6c0,0.1,0,0.2,0.1,0.3c0,0.1,0,0.2,0,0.3c0,0.2,0,0.3-0.1,0.4l-11.1-5.1
		c-2,3.1-5.8,5.5-9.7,6.1c-1.9,0.3-4.3,0.2-7.3,0.1c-3-0.1-6.1,0-9.1,0.3c-6.1,0.7-12,2.1-17.6,4.3c-2.8,1.1-5.5,2.4-8.1,3.9
		c-2.6,1.5-5.1,3.1-7.5,5c-1.2,1-2.4,2-3.6,3c-1-1.7-1.9-3.4-2.7-5.2c-1.2-2.7-2-5.7-1.9-8.5c0.1-1.4,0.5-2.7,1.2-3.9
		c0.7-1.2,1.7-2.1,2.9-3c1.2-0.9,2.5-1.6,3.8-2.5c0.7-0.4,1.3-0.9,2-1.4c0.6-0.5,1.3-1.2,1.9-1.9c1.1-1.5,1.8-3.2,1.9-5.1
		c0-1-0.1-2-0.6-3c0-0.1-0.1-0.2-0.1-0.2c2-0.4,4.1-0.3,5.9,0.4l3.4,1.3l-1-3.6c-1.6-5.8-2.4-11.8-2.2-17.8c2.1-0.4,4.1-1.1,5.9-2.1
		c2.4-1.3,4.5-3.1,6.3-5.2c1.7-2.1,3.1-4.6,3.9-7.2c0.6-2,0.9-4.2,0.8-6.4c3-1.4,6.5-1.7,9.8-1c3.8,0.7,7.4,2.8,9.5,5.8l4.1,5.7
		l1.4-7l3.5-17c0.3-0.1,0.7-0.2,1-0.4c1.1-0.5,2.1-1.3,3-2.1c1.7-1.6,2.7-3.6,3.4-5.5c0.7-1.9,1-4,1-6c0-1.9-0.2-3.7-0.3-5.3
		c-0.3-3.3-0.5-6.1,0.4-8.3c0.8-2.2,2.5-4.3,4.7-6.1c0,0,0.1,0,0.1-0.1c2.2-1.8,4.8-3.3,7.5-5c0,0,0.1-0.1,0.1-0.1
		c2.8-1.7,5.7-3.3,8.5-4.9c3.8-2.1,7.6-4.2,11.5-6.3l1.1,11.7l0.5,4.7l0.1,0.6l0.5,5.2c0.2,2,0.5,4.2,1.1,6.4
		c0.6,2.2,1.6,4.6,3.2,6.7c1.6,2.2,3.6,3.7,5.1,4.9c0.8,0.6,1.5,1.1,2.1,1.6c0.6,0.5,1.1,1,1.5,1.5c1,1.1,1.8,2.4,2.7,3.9
		c0.9,1.5,1.7,3.2,2.7,5c0.5,0.9,1.1,1.8,1.6,2.7c0.6,0.9,1.1,1.7,1.7,2.6c4.7,6.8,10.7,12.8,17.5,17.5c3.4,2.4,7,4.4,10.8,6.1
		c2,0.9,3.8,1.6,4.7,2.2c0.5,0.3,0.8,0.6,0.9,0.7c0.1,0.1,0.3,0.5,0.6,1.1c0.3,0.6,0.6,1.5,1,2.4c0.4,1,0.9,2.1,1.7,3.5
		c0.2,0.3,0.5,0.7,0.8,1.1c0.3,0.4,0.7,0.8,1.1,1.1c0.5,0.4,0.9,0.8,1.5,1.1c0.6,0.3,1.2,0.6,1.8,0.8c1.3,0.4,2.5,0.4,3.7,0.3
		c1.3-0.2,2.5-0.6,3.4-1.2c2-1.2,3-2.6,3.8-3.8c0.4-0.6,0.7-1.2,1-1.8c0.2-0.5,0.5-1,0.7-1.5c0.9-2.1,1.7-4.3,2.2-6.5
		c1-4.4,1.2-9.1,0.5-13.6c-0.7-4.5-2.4-8.8-4.4-12.6c-2.1-3.8-4.5-7.2-7.1-10.4c-1.2-1.5-2.5-3-3.8-4.5c0.9-0.9,1.9-1.8,2.8-2.7
		c2.3-2.5,4.6-5.1,6.5-8.2c1.9-3.1,3.6-6.6,4.3-10.8l0.1-0.8c0-0.3,0-0.5,0.1-0.8l0.1-1.6c0.1-0.5,0-1.1,0-1.6l-0.1-1.7
		c-0.2-1.1-0.5-2.2-0.7-3.2c-0.1-0.1-0.1-0.3-0.2-0.4c0.1-0.1,0.1-0.1,0.2-0.2c0.6-0.5,1.7-1,2.9-1.4c0.6-0.2,1.3-0.3,1.9-0.3
		c0.6,0,1.4-0.1,2.2,0c1.7,0,3.6,0.2,5.8,0.3c2.1,0.1,4.5,0.1,7.2-0.3c0.6-0.1,1.3-0.2,2-0.4l1-0.3c0.4-0.1,0.8-0.3,1.2-0.4
		c1.6-0.6,2.9-1.4,4.1-2.4c1.2-1,2.3-2.1,3.2-3.4c0.5-0.7,1-1.5,1.4-2.3c0.3-0.7,0.6-1.3,0.8-2.1c0.3-1,0.5-2,0.6-3.2
		c0-0.9,0-1.7-0.2-2.7c-0.1-0.5-0.2-1-0.4-1.5c2.4-3.8,6.1-7.1,10.4-9.1c5.2-2.5,11.3-3.2,16.5-1.8l4.8,1.3l2.4-4.5
		c1.5-2.7,3.3-5.4,5.5-7.6c2.2-2.2,4.6-4,7-4.8c0.6-0.3,1.2-0.3,1.7-0.5l0.8-0.1c0.3-0.1,0.5-0.1,0.8,0c1.1-0.1,2,0.2,3.1,0.6
		c1.1,0.4,2.8,1.5,5.6,2.4c0.7,0.2,1.5,0.4,2.3,0.6c0.8,0.1,1.7,0.2,2.5,0.2c1.6,0,3.1-0.3,4.4-0.6c2.6-0.7,4.6-1.7,6.2-2.4
		c1.7-0.8,3-1.3,3.9-1.4c0.4-0.1,0.7-0.1,1,0c0.1,0,0.3,0,0.4,0.1c0.1,0.1,0.2,0.1,0.3,0.1c0.4,0.2,0.8,0.5,1.3,1.3
		c0.3,0.4,0.5,1,0.8,1.6c0.4,1.1,0.7,2.4,0.9,3.7c0.1,0.7,0.1,1.4,0.1,2c0,1.4-0.1,2.9-0.4,4.3c-0.4,1.8-0.8,3.7-1.1,5.7
		c-0.4,2-0.7,4.1-0.8,6.3c-0.2,2.2-0.2,4.6,0.2,7.1c0.4,2.5,1.2,5.3,2.8,7.8c0.8,1.2,1.7,2.4,2.8,3.4c1,1,2.3,1.9,3.5,2.6
		c2.4,1.4,4.8,2.1,6.9,2.7c2.1,0.5,4,0.9,5.7,1.3c0.9,0.2,1.5,0.4,2.1,0.6c0.6,0.2,1.2,0.5,1.8,0.7c0.5,0.3,1,0.6,1.4,0.9
		c0.4,0.3,0.6,0.6,0.8,0.8c0.2,0.2,0.2,0.3,0.2,0.3c0,0.1,0.1,0,0,0.5c-0.1,0.5-0.2,1.4-0.4,2.7c-0.1,1.3-0.3,3.2,0.4,5.4
		c0.3,1.1,0.9,2.2,1.6,3.2c0.7,0.9,1.5,1.7,2.3,2.3c1.5,1.2,3,1.7,4.2,2.2c0.6,0.2,1.2,0.4,1.8,0.5c0.6,0.2,1.1,0.3,1.7,0.4
		c1.1,0.3,2.3,0.5,3.5,0.6c4.6,0.5,9.3,0.1,13.7-1.2c2.8-0.8,5.5-2,8-3.6c1.2,0.8,2.4,1.5,3.6,2.1c2.7,1.4,5.6,2.5,8.4,3.3
		c2.8,0.8,5.7,1.4,8.5,1.8c2.7,0.4,5.4,0.6,8.1,0.8c0.1,0,0.1,0,0.2,0c2.7,0.1,5.4,0.2,8.1,0.2l4,0c1.5,0,3.3-0.1,5.5-0.7
		c1.1-0.3,2.3-0.8,3.4-1.5c1.1-0.8,2.1-1.6,3-2.7c0.8-1.1,1.5-2.3,1.9-3.4c0.2-0.6,0.3-1.1,0.5-1.6c0.2-0.5,0.2-1,0.3-1.5
		c0.3-1.9,0.3-3.4,0.3-4.8c0-1.4,0-2.5,0.1-3.4c0.2-2,0.3-1.9,1.3-3.1c1.1-1.1,3-2.4,5.4-4c0.6-0.4,1.2-0.9,1.8-1.3
		c0.7-0.5,1.3-1,2-1.7c0.7-0.6,1.3-1.4,2-2.2c0.6-0.9,1.2-1.8,1.7-2.9l0.3-0.8l0.2-0.9c0.1-0.6,0.3-1.2,0.4-1.8
		c0.2-1.2,0.2-2.4,0-3.5c-0.3-2.2-1-3.9-1.6-5.4c-0.6-1.4-1.2-2.6-1.7-3.6c-0.4-0.8-0.6-1.5-0.7-2.1c0-0.1-0.1-0.2-0.1-0.4
		c-0.1-0.7-0.2-1.4-0.2-2.1c0-0.8,0.2-1.6,0.5-2.4c1.1-3.3,4-6.9,7.4-10.1c1.7-1.6,3.6-3.2,5.5-4.6l6.1-4.7c4.1-3.1,8.2-6,12.4-8.6
		c4.2-2.6,8.5-5,13-6.8l1.7-0.7l1.7-0.6c0.3-0.1,0.6-0.2,0.8-0.3c0.2,0,0.3-0.1,0.5-0.1c0.3-0.1,0.7-0.1,1-0.2
		c1.5-0.1,3.2,0.2,4.9,1c3.4,1.5,6.5,4.7,7.5,7.7c0.1,0.4,0.2,0.7,0.3,1.1c0,0.4,0.1,0.7,0.1,1.1c0,0.9-0.1,2.1-0.2,3.5
		c-0.1,1.4-0.2,3,0,5c0.2,1.9,1,4.3,2.5,6.1c1.5,1.8,3.2,2.9,4.6,3.7c1.4,0.8,2.7,1.3,3.7,1.8c0.5,0.2,0.9,0.5,1.2,0.7
		c0.4,0.2,0.7,0.5,1.1,0.7c0.7,0.6,1.3,1.2,1.8,2c2.2,2.9,3,7.1,2,10.4l8.5,4.6c0,0.1-0.1,0.1-0.2,0.1c-0.1,0.1-0.2,0.2-0.4,0.2
		c-0.1,0.1-0.3,0.1-0.4,0.1c-0.1,0-0.1,0-0.2,0c-0.1,0-0.1,0-0.1,0c0,0,0,0,0,0c0.1,0,0.4,0.2,0.7,0.4c0.4,0.3,0.8,0.9,1.1,1.4
		c0.3,0.5,0.4,1,0.4,1.2c0,1.6-0.6,3.7-1.2,6.1c-0.3,1.2-0.6,2.6-0.8,4.1c-0.2,1.5-0.3,3.2,0,5c0.1,0.9,0.4,1.8,0.6,2.5
		c0.1,0.2,0.1,0.4,0.2,0.6c0.2,0.5,0.4,0.9,0.5,1.3c0.3,0.7,0.4,1.2,0.5,1.5c0,0.2,0.1,0.4,0.1,0.5c0,0,0,0,0,0c0,0.3-0.1,0.6-0.3,1
		c-0.2,0.4-0.7,0.9-1.2,1.3c-0.6,0.4-1.2,0.7-1.8,0.9c-0.8,0.2-1.6,0.4-2.5,0.4c-1.9,0.1-4-0.2-6.4-0.5l-6.9-1l2,6.6
		c0.6,1.9,1.5,3.7,2.6,5.2c1.1,1.5,2.2,2.9,3.4,4.1c2.4,2.4,4.8,4.3,6.7,6.2c1.1,1,1.7,1.8,2.4,2.8c0.7,1,1.3,2,1.7,3.1
		c0.8,2.2,0.9,4.4,0.2,5.5c0,0.2-0.2,0.3-0.3,0.4c-0.1,0.2-0.2,0.3-0.4,0.4c-0.2,0.3-0.6,0.5-1.1,0.8c-1,0.7-2.6,1.3-4.4,2.7
		c-0.9,0.7-1.9,1.8-2.5,3.1c-0.6,1.3-0.8,2.9-0.6,4.3c0.2,1.4,0.7,2.4,1.1,3.3c0.5,0.9,0.9,1.6,1.4,2.3c0.4,0.6,0.8,1.2,1.1,1.7
		c0.2,0.4,0.4,0.9,0.6,1.4c0.3,1,0.4,2,0.3,3.1c-0.2,2.1-1.3,4.2-2.8,5.4l-4.5,3.7l5.3,2.2c3.4,1.4,6.7,3,9.7,4.9
		c3.1,1.9,5.8,4.1,8,6.6c0.3,0.3,0.5,0.6,0.7,1c0.2,0.3,0.5,0.7,0.7,1c0.4,0.7,0.8,1.4,1,2.1c0.6,1.4,0.8,2.9,0.8,4.4
		c-0.1,0.8-0.1,1.5-0.2,2.3c-0.2,0.8-0.4,1.7-0.7,2.7c-0.2,1-0.5,2.1-0.5,3.3c-0.1,1.2,0.1,2.6,0.5,3.8c0.4,1.2,1.1,2.4,1.8,3.3
		c0.8,0.9,1.6,1.7,2.5,2.4c1.7,1.4,3.6,2.4,5.3,3.2l2.6,1.3l2.5,1.3c1.7,0.8,3.3,1.7,5,2.6c6.6,3.6,13,7.7,19.1,12.1
		c1.5,1.1,3,2.2,4.5,3.4c1.5,1.2,3,2.3,4.3,3.5c1.3,1.2,2.6,2.5,3.7,4c1.1,1.4,2,2.9,2.5,4.5c0.5,1.6,0.6,3.3,0.3,4.9
		c-0.4,1.6-1.3,3.1-2.3,4.7c-1,1.5-2.2,3.1-3.2,4.8c-0.5,0.9-0.9,1.8-1.2,2.9c-0.3,1-0.4,2.1-0.3,3.2c0.2,2.2,1.3,4.1,2.5,5.7
		c1.2,1.6,2.5,3,3.6,4.4c2.2,2.9,3.1,6.7,2.5,10.3c-0.3,1.8-0.9,3.6-1.9,5.1c-1,1.6-2.4,2.9-3.9,3.9c-3.1,2-7.1,2.8-10.9,1.9
		c0,0,0,0,0,0c3.7,1.1,7.8,0.5,11.2-1.4c1.7-1,3.2-2.3,4.3-3.9c1.2-1.6,1.9-3.5,2.3-5.4c0.8-3.9,0-8.2-2.3-11.5
		c-1.1-1.6-2.4-3.1-3.4-4.6c-1-1.5-1.8-3.1-1.9-4.7c-0.1-1.6,0.5-3.2,1.5-4.7c0.9-1.5,2.2-3,3.3-4.6c1.1-1.6,2.3-3.3,2.9-5.5
		c0.6-2.1,0.5-4.4-0.1-6.4c-0.6-2.1-1.6-3.9-2.7-5.6c-1.2-1.7-2.5-3.2-3.9-4.6c-1.4-1.4-2.9-2.7-4.4-3.9c-1.5-1.2-3-2.4-4.5-3.6
		c-6.1-4.8-12.5-9.1-19.2-13c-1.7-1-3.3-1.9-5-2.9l-2.6-1.4l-2.5-1.3c-1.6-0.9-3.1-1.8-4.4-2.8c-1.2-1-2.1-2.2-2.4-3.3
		c-0.2-0.6-0.2-1.1-0.2-1.8c0.1-0.7,0.2-1.4,0.5-2.3c0.2-0.8,0.5-1.8,0.8-2.8c0.3-1.1,0.4-2.2,0.5-3.4c0.1-2.3-0.2-4.7-1-6.8
		c-0.3-1.1-0.9-2.1-1.4-3.1c-0.3-0.5-0.6-0.9-0.9-1.4c-0.3-0.5-0.6-0.9-1-1.3c-2.7-3.4-5.9-6.1-9.3-8.3c-2.1-1.4-4.2-2.6-6.4-3.7
		c1.2-1.9,1.9-4,2.2-6.2c0.2-1.9,0.1-3.9-0.4-5.9c-0.3-1-0.6-1.9-1.1-2.8c-0.5-0.9-0.9-1.6-1.3-2.2c-0.8-1.2-1.3-2.3-1.3-2.6
		c0-0.1,0-0.1,0-0.2c0,0,0.1-0.1,0.4-0.3c0.6-0.5,1.9-1.1,3.5-1.9c0.8-0.4,1.7-1,2.5-1.8c0.4-0.4,0.9-0.8,1.2-1.3
		c0.4-0.5,0.7-0.9,1-1.4c1.2-2,1.6-4.3,1.6-6.4c0-2.1-0.4-4-1-5.7c-0.6-1.8-1.4-3.4-2.4-4.9c-1-1.5-2.3-3-3.4-4.1
		c-2.1-2.1-4.2-3.9-6-5.7c1.2-0.1,2.5-0.3,3.7-0.6c1.7-0.5,3.3-1.3,4.7-2.3c1.4-1,2.7-2.3,3.7-4c1-1.6,1.7-3.7,1.6-5.9
		c0-0.5,0-0.9-0.1-1.3c0-0.1,0-0.2,0-0.3c-0.1-0.6-0.2-1.1-0.4-1.7c-0.2-0.7-0.4-1.3-0.6-1.9c-0.2-0.6-0.4-1.1-0.5-1.5
		c-0.1-0.4-0.2-0.7-0.2-1c-0.2-1.3,0.1-3.1,0.8-5.3c0.6-2.2,1.5-4.8,1.7-8.1c0.1-2.2-0.5-4.2-1.3-5.8c-0.8-1.7-1.9-3.1-3.3-4.4
		c-1.1-0.9-2.3-1.8-4-2.4c0-1-0.1-1.9-0.3-2.9c-0.1-0.8-0.4-1.6-0.6-2.4c-0.3-0.8-0.5-1.6-0.8-2.4c-0.6-1.5-1.5-3-2.4-4.4
		c-1-1.4-2.1-2.6-3.4-3.8c-0.7-0.5-1.3-1.1-2.1-1.6c-0.7-0.5-1.5-0.9-2.1-1.3c-1.3-0.7-2.5-1.2-3.3-1.7c-0.8-0.5-1.3-0.9-1.4-1.1
		c-0.1-0.2-0.2-0.4-0.3-1c-0.1-0.6,0-1.6,0.1-2.8c0.1-1.2,0.3-2.6,0.4-4.3c0-0.9-0.1-1.9-0.2-2.8c-0.2-0.9-0.4-1.8-0.6-2.7
		c-1.1-3.5-2.9-6.4-5.2-8.8c-2.3-2.4-4.9-4.4-7.9-5.8c-3-1.4-6.5-2.3-10.2-2.1c-0.9,0.1-1.9,0.1-2.8,0.4l-1.4,0.3
		c-0.4,0.1-0.7,0.2-1.1,0.3l-2,0.7l-2,0.8c-5.2,2.1-10.1,4.7-14.7,7.5c-4.6,2.8-9,5.9-13.3,9l-6.3,4.7c-2.2,1.6-4.4,3.4-6.4,5.3
		c-2.1,1.9-4.1,4-6,6.4c-1.8,2.4-3.6,5.2-4.7,8.4c-0.3,0.8-0.5,1.7-0.7,2.5c-1.7-0.5-3.4-1.1-5.1-1.6c-7.1-2.2-14.3-4.2-21.6-6
		c-7.2-1.8-14.4-3.4-21.6-4.8c-14.6-2.7-29.5-4.5-44.5-4c-4.4,0.2-8.9,0.5-13.3,1.2c-0.6-2-1.4-3.9-2.7-5.9c-1.5-2.4-3.9-4.8-7-6.1
		c-0.8-0.3-1.6-0.5-2.3-0.8c-0.8-0.2-1.6-0.3-2.4-0.4c-0.8-0.1-1.6-0.1-2.4-0.1c-0.8,0-1.5,0.2-2.2,0.3c-2.8,0.6-5,1.6-6.8,2.4
		c-1.8,0.8-3.2,1.5-4.3,1.8c-0.5,0.1-0.9,0.2-1.2,0.2c-0.3,0-0.4,0-0.8-0.1c-0.8-0.2-2.3-1.1-4.8-2.1c-5-2-11.1-1.8-15.7,0.1
		c-4.7,1.8-8.4,4.7-11.6,7.8c-2,2-3.7,4.2-5.3,6.6c-2.7-0.3-5.4-0.3-8.1,0c-4.3,0.5-8.4,1.7-12.2,3.5c-3.8,1.8-7.4,4.2-10.5,7.3
		c-3.1,3-5.7,6.6-7.4,10.7l1.2,6.7c-0.1-0.1-0.3-0.4-0.3-0.6c0-0.2,0-0.2,0,0c0,0.2-0.2,0.5-0.4,0.8c-0.2,0.3-0.5,0.7-0.9,0.9
		c-0.3,0.3-0.7,0.5-0.9,0.6c-0.1,0-0.1,0.1-0.2,0.1l-0.4,0.1c-0.3,0.1-0.6,0.1-0.9,0.2c-1.3,0.2-2.8,0.2-4.6,0.2
		c-1.8-0.1-3.8-0.2-6-0.3c-1.1,0-2.3,0-3.7,0.1c-1.3,0.1-2.6,0.4-3.9,0.7c-2.6,0.7-5.1,1.8-7.6,3.8c-1.2,1-2.4,2.3-3.3,3.9
		c-0.3,0.5-0.5,0.9-0.7,1.4c-19,4-38.3,6.8-57.7,7.8l-2.2-18.8l-0.8-6.6l-5.7,3.1c-5.8,3.2-11.6,6.5-17.3,10
		c-2.9,1.7-5.7,3.4-8.5,5.2c-2.8,1.7-5.7,3.6-8.5,5.9c-1.3-0.1-2.7-0.3-4-0.5c-3.6-0.5-7.3-0.9-10.8-1.6c-3.6-0.7-7.1-1.5-10.6-2.4
		c-7-1.9-13.9-4.3-20.8-6.9c-13.7-5.3-27-11.7-40.5-17.8c-4.5-2-9-4-13.5-5.9l15.1-2.2l60.4-8.7l60.4-8.8c0,0,0,0,0,0s0,0,0,0
		c0,0,0,0,0,0h0c0,0,0,0,0,0c-20.2,2.4-40.4,4.9-60.6,7.4l-60.5,7.9c-6.5,0.8-12.9,1.7-19.4,2.6c-7.8-3.1-15.7-5.8-23.9-7.9
		c-2.1-0.5-4.2-1-6.4-1.5l1.7-0.3l62.8-10.6c20.9-3.6,41.9-7.2,62.8-10.9c-21,3.1-42,6.3-63,9.5l-63,9.8c-2.8,0.4-5.6,0.9-8.3,1.3
		c-3-0.4-6-0.8-9-1c-7.6-0.6-15.3-0.2-22.8,0.9c-12.2,1.9-23.9,5.9-35,10.8l-50.7,8.2l-62.8,10.7c-14.9,2.6-29.8,5.1-44.8,7.7
		c-3.3-2.2-6.6-4.5-9.9-6.9c-0.1-0.1-0.1-0.1-0.2-0.2l5.2-0.9l24.8-4.4l36.9-6.5c12.3-2.2,24.6-4.2,36.9-6.3
		c12.3-2.1,24.6-4.1,37-6.2c-6.2,0.7-12.4,1.4-18.6,2.3l-18.6,2.4c-12.4,1.7-24.7,3.6-37.1,5.5c-23.3,3.6-46.6,7.6-69.9,11.7
		c-4.8-3.4-9.7-6.9-14.8-10.1c-6.4-4-13.1-7.7-20.4-10.1c-7.3-2.4-15.3-3.4-23.1-2.3c-7,1-13.5,3.6-19.5,7c-0.2-0.1-0.4-0.3-0.6-0.4
		c-3.1-1.8-6.6-3.4-10.4-4.3c-0.5-0.1-1-0.2-1.6-0.3c0.9-1.9,1.7-3.9,2.2-6.2c0.1-0.8,0.3-1.5,0.4-2.3c0-0.8,0.1-1.6,0.1-2.5
		c-0.1-0.9,0-1.7-0.3-2.6l-0.3-1.3c-0.1-0.4-0.3-0.9-0.5-1.3c-0.3-0.9-0.8-1.7-1.3-2.6l-0.4-0.6l-0.5-0.5c-0.3-0.4-0.6-0.7-1-1.1
		c-0.7-0.7-1.4-1.2-2.1-1.7c-0.7-0.5-1.5-1-2.3-1.3c-3.1-1.4-5.7-1.8-7.6-2.4c-2-0.6-2.9-1-4.3-2.1c-1.4-1.1-2.8-2.6-4.4-4.3
		c-1.6-1.7-3.3-3.7-5.7-5.6l-0.9-0.7l-1.1-0.7c-0.7-0.5-1.5-0.8-2.4-1.2c-0.8-0.4-1.8-0.6-2.7-0.8c-1-0.1-1.9-0.3-2.9-0.3
		c-1,0.1-1.9,0.1-2.8,0.3c-1,0.2-1.9,0.5-2.7,0.8c-1.7,0.7-3,1.5-4.2,2.3c-1.2,0.8-2.1,1.6-3,2.2c-0.9,0.7-1.8,1.3-2.7,1.9
		c-1.8,1.2-3.7,2.4-5.6,3.5c-3.8,2.2-7.8,4.2-11.9,5.9c-2,0.9-4.1,1.6-6.2,2.4c-2.1,0.7-4.3,1.4-6.2,1.9c-1,0.2-1.9,0.4-2.7,0.5
		c-0.9,0.1-1.6,0.1-2.5,0.1c-1.7-0.1-3.9-0.6-6.6-0.9c-0.7-0.1-1.4-0.2-2.1-0.2c-0.8,0-1.6,0-2.3,0c-0.8,0-1.5,0.1-2.3,0.2
		c-0.8,0.1-1.5,0.2-2.3,0.4c-3,0.6-5.8,1.9-8.4,3.4c-1.3,0.8-2.5,1.7-3.7,2.6l-1.6,1.6c-0.6,0.5-1,1.1-1.5,1.7
		c-0.6,0.7-1.1,1.5-1.6,2.2l-4.5-1.4c-2.4-0.7-4.7-1.5-7.1-2.2c0.2-0.5,0.4-1.1,0.6-1.7c0.9-2.8,1.4-5.8,1.3-9
		c-0.1-0.8-0.1-1.6-0.2-2.4c-0.1-0.8-0.3-1.6-0.5-2.4c-0.4-1.6-0.9-3.1-1.7-4.6c-1.5-2.9-3.6-5.5-5.9-7.5c-1.8-1.5-3.7-2.8-5.8-3.8
		c0.3-1.5,0.4-2.9,0.3-4.1c-0.1-1.7-0.3-3.1-0.7-4.6c-0.7-2.8-1.8-5.5-3.2-8l-3.4-5.8l-13.6-23.4c-1.1-1.9-2.2-3.9-3.5-6
		c-1.3-2.1-2.8-4.3-4.6-6.4c-3.8-4.2-8.6-7.3-13.8-9.1c-5.2-1.8-10.7-2.3-15.9-1.9c-2.6,0.2-5.1,0.6-7.5,1.1
		c-2.4,0.5-4.8,1.1-7.1,1.8c-4.6,1.4-8.9,3.1-13.2,4.6c-4.2,1.6-8.5,3.2-12.7,4.9c-8.4,3.3-16.8,6.8-25.2,10.4
		c-4.2,1.8-8.6,3.8-12.9,6.5c-2.2,1.4-4.3,3-6.3,4.8c-1,0.9-1.9,2-2.8,3c-0.9,1.1-1.6,2.2-2.3,3.2c-1.3,2-2.4,3.7-3.5,5
		c-0.5,0.6-1,1.1-1.5,1.5c-0.2,0.2-0.5,0.4-0.8,0.5c-0.1,0.1-0.1,0.1-0.1,0.1c0,0,0,0,0,0c0,0-0.1,0-0.1,0.1
		c-0.2,0.1-0.7,0.2-1.2,0.1c-0.5-0.1-1-0.2-1.4-0.3c-0.4-0.1-0.5-0.4-0.2,0c0,0.1,0.2,0.3,0.2,0.4c0.1,0.2,0.2,0.4,0.1,0.6
		c0.1,0.2,0,0.5,0,0.6c0,0.2,0,0.3-0.1,0.4l-9.6-6l-28.4,32.8c-2.1,0.3-4.2,0.8-6.3,1.3c-2.8,0.8-5.6,1.7-8.4,3.1
		c-2.8,1.4-5.6,3.3-7.9,6.2l-0.4,0.5l-0.4,0.6l-0.7,1.2c-0.5,0.8-0.8,1.7-1.2,2.6c0,0.1-0.1,0.2-0.1,0.3c-0.1,0-0.3,0-0.4,0.1
		c-1.9,0.4-3.6,1.1-5,2c-1.4,0.8-2.7,1.8-3.8,2.8c-0.6,0.5-1.1,1-1.5,1.5c-0.5,0.5-1,1-1.4,1.6c-1.9,2.1-3.5,4.5-4.9,6.9
		c-1.3,2.5-2.5,5-3.4,7.6c-0.9,2.6-1.6,5.3-1.9,8.1l-0.1,1l-0.1,1c-0.1,0.7-0.1,1.4-0.1,2.1c0,1.4-0.1,2.8,0.1,4.2
		c0.1,2.8,0.6,5.6,1.3,8.3l0.6,2c0.2,0.6,0.4,1.1,0.4,1.4c0,0,0,0.1,0,0.1c-0.2,0.1-0.5,0.3-1,0.5c-1.1,0.5-2.2,1-3.3,1.5
		c-2.2,1-4.6,2-6.9,3.1c-2.4,1.1-4.8,2.4-7.1,4c-1.7,1.2-3.3,2.5-4.7,4.1c-0.6,0.6-1.1,1.3-1.6,2c-0.4,0.6-0.9,1.3-1.2,1.9
		c-0.3,0.7-0.7,1.4-1,2.1c-0.6,1.4-1,2.7-1.4,3.9c-0.4,1.1-0.7,2.1-1.1,2.8c-0.4,0.7-0.9,1.5-1.6,2.3c-0.7,0.8-1.6,1.8-2.5,2.9
		c-0.5,0.6-0.9,1.2-1.3,1.8l-0.6,1c-0.2,0.3-0.3,0.7-0.5,1c-1.2,2.4-1.8,5-2,7.6c-0.1,0-0.2,0-0.3,0c-3.9-0.1-7.1,0.8-10.1,2
		c-1.5,0.6-2.9,1.3-4.2,2.1c-0.7,0.4-1.3,0.9-2,1.3c-0.6,0.4-1.3,1-2.2,1.8c-0.8,0.8-1.8,1.9-2.5,3.5c-0.4,0.8-0.7,1.7-0.7,2.6
		c-0.1,0.9-0.1,1.8,0,2.8c0.3,1.8,1.1,3.3,1.7,4.3c0.7,1,1.3,1.7,1.9,2.3l1.4,1.4l0.5,0.5c0,0.1,0.1,0.1,0.2,0.2
		c0,0.1,0,0.1-0.1,0.2c-0.3,0.5-0.9,1.3-1.6,2.1c-0.7,0.8-1.5,1.7-2.4,2.6c-0.9,1-1.9,2-2.9,3.3c-0.5,0.7-1,1.4-1.6,2.3
		c-0.5,0.9-1,2-1.4,3.3c-0.4,1.3-0.4,3.1-0.1,4.6c0.3,1.6,1.1,2.9,1.9,4l2.1,3l3.6-0.6c0.6-0.1,1.1,0,1.7,0.2
		c0.7,0.3,1.4,0.8,2.1,1.5c1.4,1.5,2.4,3.7,2.5,5.6c0.2,2.4-0.4,5-1.4,7.7c-0.8,2.2-1.9,4.4-3.1,6.7c-0.3,0-0.6-0.1-0.9-0.3
		c-0.4-0.2-0.8-0.5-1-0.8c-0.2-0.3-0.3-0.5-0.3-0.6l-1.9-8.4l-6.3,4.2c-5.6,3.8-10.9,8-15.8,12.7c-0.6-0.3-1.3-0.5-1.9-0.7
		c-1.9-0.5-3.9-0.9-5.8-1c-3.9-0.2-7.8,0.5-11.4,2.1c-0.9,0.4-1.8,0.9-2.6,1.3c-0.8,0.5-1.7,1-2.4,1.7c-0.8,0.6-1.5,1.3-2.2,2
		c-0.7,0.7-1.3,1.4-1.9,2.2c-2.3,3-3.9,6.2-5.2,9.2c-2.6,6-4.8,11.5-9,14.4c-2.1,1.6-5,2.9-7.8,4.4c-1.5,0.8-2.9,1.5-4.4,2.5
		c-1.5,1-3,2-4.4,3.6c-1.3,1.5-2.4,3.5-2.9,5.6c-0.1,1-0.2,2.2-0.1,3.1c0.1,0.9,0.1,1.6,0.1,2c0,0.5-0.1,0.5-0.1,0.5
		c0,0,0,0-0.1,0.1c-0.1,0-0.2,0.1-0.5,0.1c-0.5,0.1-1.2,0.1-2.1,0.1c-0.8,0-1.8,0-3,0.3c-1.1,0.3-2.3,0.9-3,1.7
		c-0.8,0.7-1.4,1.5-1.9,2.2c-1,1.4-1.8,2.7-2.6,3.6c-0.4,0.4-0.8,0.7-1.1,0.8c-0.4,0.1-0.8,0.1-1.2,0c-0.9-0.2-2.1-1.2-3.4-2.3
		c-0.7-0.5-1.4-1.1-2.2-1.5c-0.8-0.5-1.9-0.8-2.9-0.9c-1.1-0.1-2.1,0.2-3,0.6c-0.9,0.4-1.7,0.9-2.3,1.5c-1.4,1.1-2.4,2.4-3.4,3.7
		l-2.9,3.8c-3.8,5.1-7.7,10.2-11.4,15.3c4.3-4.7,8.6-9.4,12.9-14.2l3.2-3.6c1-1.2,2.1-2.3,3.3-3.1c1.2-0.8,2.4-1.3,3.5-1.1
		c1.1,0.1,2.1,0.9,3.2,1.9c0.6,0.5,1.1,1.1,1.8,1.7c0.7,0.6,1.5,1.2,2.5,1.6c1,0.4,2.3,0.5,3.5,0.3c1.2-0.3,2.2-0.9,3-1.6
		c1.5-1.4,2.4-2.8,3.3-3.9c0.5-0.6,0.9-1,1.3-1.3c0.4-0.4,0.8-0.5,1.2-0.6c0.4-0.1,1-0.1,1.8,0c0.8,0,1.6,0.1,2.7,0
		c0.5,0,1.2-0.2,1.8-0.4c0.7-0.3,1.4-0.7,1.9-1.2c0.6-0.5,1-1.2,1.3-1.9c0.3-0.7,0.4-1.3,0.5-1.9c0.1-1.1,0-2,0.1-2.7
		c0-0.7,0.1-1.1,0.2-1.7c0.3-1,0.8-1.8,1.7-2.7c1.7-1.7,4.4-2.9,7.2-4.2c1.4-0.6,2.9-1.3,4.4-2c1.5-0.7,3.1-1.5,4.6-2.5
		c0.8-0.5,1.5-1.1,2.3-1.7c0.7-0.6,1.4-1.3,2-2c1.2-1.4,2.3-2.9,3.3-4.4c1.9-3,3.3-6,4.7-8.7c1.4-2.8,2.9-5.3,4.5-7.2
		c0.4-0.5,0.9-0.9,1.3-1.4c0.5-0.4,0.9-0.8,1.4-1.1c0.5-0.4,1-0.6,1.5-1c0.6-0.3,1.1-0.6,1.7-0.8c4.6-1.8,10.2-1.3,14,1.3l3.1,2.1
		l2.9-2.8c3.8-3.6,7.8-6.9,12.1-9.9c1.1,1.2,2.4,2.2,3.7,3c1.8,1,3.8,1.6,6,1.7c2.2,0.1,4.6-0.4,6.7-1.7l1.2-0.7l0.7-1.3
		c1.7-3,3.5-6.2,5-9.9c1.5-3.6,2.6-7.8,2.4-12.4c-0.2-4.9-2.1-9.4-5.2-13.1c-1.6-1.8-3.6-3.5-6.1-4.6c0,0,0,0-0.1,0
		c1-1,2.2-2.2,3.4-3.5c1-1.1,2-2.3,3-3.9c0.3-0.4,0.5-0.8,0.7-1.3l0.3-0.7l0.3-0.8c0.2-0.5,0.4-1.2,0.5-1.8c0.1-0.7,0.2-1.3,0.2-2
		c0-1.4-0.3-2.9-0.7-4.1c-0.5-1.3-1.2-2.4-1.8-3.2c-0.3-0.5-0.6-0.8-0.9-1.1c-0.3-0.3-0.6-0.6-0.8-0.9l-0.2-0.2c0,0,0.1-0.1,0.1-0.1
		c0.8-0.5,1.7-0.9,2.5-1.3c0.9-0.4,1.7-0.6,2.5-0.8c0.8-0.1,1.6-0.2,2.1-0.2c0.6,0.1,1,0.2,1.2,0.3c0.2,0.1,0.3,0.2,0.5,0.4l3.8,3.8
		l5.3-2.6c0.3-0.2,0.5-0.4,0.8-0.6c1.3-0.9,2.7-1.7,4.2-2.3c1-0.4,2.1-0.7,3.2-1c2.3-0.5,4.6-0.7,6.9-0.4c1.6,1.8,3.3,3.1,5.2,4.3
		c1.4,0.8,2.8,1.5,4.4,2c1.6,0.5,3.3,0.9,5.4,0.9c2,0,4.5-0.5,6.8-1.9c0.3-0.2,0.5-0.4,0.8-0.6l0.4-0.3l0.3-0.3l0.6-0.5
		c0.4-0.3,0.7-0.7,1.1-1c1.5-1.3,3.2-2.4,4.9-3.5c1.7-1.1,3.5-2,5.3-2.8c1.8-0.8,3.7-1.5,5.6-2.1c1.9-0.6,3.9-1,5.9-1.3
		c0.2,0,0.4,0,0.5-0.1c0.3,1.5,0.7,3,1.3,4.5c0.7,1.9,1.6,3.8,2.9,5.7c1.3,1.9,3.1,3.7,5.4,5.1c0.6,0.3,1.2,0.6,1.8,0.9
		c0.6,0.2,1.2,0.4,1.8,0.6c1.3,0.4,2.5,0.5,3.5,0.6c2.1,0.1,3.6,0.1,4.6,0.2c1.9,0.2,4,0.9,6.2,2.2c2.2,1.3,4.4,3.1,6.6,5
		c1.1,1,2.3,2.1,3.3,3c1,0.9,1.8,1.8,2.4,2.6c0.3,0.4,0.5,0.8,0.7,1.2c0.2,0.4,0.3,0.7,0.4,1c0.2,0.7,0.2,1.5,0.1,2.4
		c-0.2,1.7-1.2,3.3-2.3,4.2l-6.8,5.2l7.2,4.3c6.5,3.9,12.5,8.7,17.7,14.3c3.9,4.1,7.4,8.6,10.4,13.4c1.1,1.7,2.1,3.4,3,5.2
		c0.5,1,1,2,1.5,3c0.3,0.7,0.7,1.5,1,2.2l1.1,2.6c0.4,0.9,0.8,1.9,1.2,3c0.5,1.1,1.1,2.3,2,3.5c0.9,1.2,2.1,2.4,3.4,3.3
		c1.4,0.9,2.8,1.4,4.1,1.7c1.3,0.3,2.5,0.5,3.6,0.6c2.1,0.3,3.9,0.4,5.1,0.8c1.2,0.4,2.3,1.1,3.5,2.3c1.2,1.2,2.4,2.6,3.7,4.2
		c0.7,0.8,1.4,1.6,2.2,2.5c0.8,0.9,1.6,1.6,2.4,2.4c3.3,3.1,7.2,5.4,11.4,7.1c4.2,1.7,8.8,2.6,13.4,2.3c2.3-0.2,4.6-0.6,6.8-1.5
		c2.2-0.8,4.4-2.2,5.9-3.2c0.8-0.5,1.5-0.9,2.1-1.1c0.3-0.1,0.6-0.2,0.9-0.2c0.1,0,0.3,0,0.4,0c0.1,0,0.3,0,0.4,0
		c0.6,0.1,1.2,0.3,1.8,0.7c0.6,0.4,1.3,1,1.9,1.6c1.3,1.3,2.5,2.9,3.8,4.5c1.3,1.6,3,3.3,4.8,4.6c3.7,2.5,7.7,3.9,11.5,5.3
		c1.9,0.7,3.8,1.4,5.5,2.2c1.7,0.9,3.4,1.9,4.9,3.1c1.5,1.2,2.8,2.7,3.7,4.3c0.9,1.7,1.4,3.5,1.3,5.5l0,0.8l0.7-0.2
		c1.6-0.5,3.5,0.2,4.9,1.4c1.3,1.2,2.2,3.1,1.9,5c0,0,0,0,0,0c0.3-0.9,0.2-1.9,0-2.9c-0.3-0.9-0.8-1.8-1.4-2.6
		c-0.7-0.7-1.5-1.3-2.4-1.7c-0.7-0.3-1.5-0.5-2.3-0.4c0.2-1.9-0.2-3.9-1-5.7c-0.9-2-2.2-3.7-3.7-5.2c-1.5-1.5-3.2-2.8-5.1-3.9
		c-1.8-1.1-3.7-2-5.6-2.8c-3.7-1.7-7.4-3.3-10.2-5.6c-1.4-1.2-2.6-2.4-3.7-4.1c-1.1-1.6-2.3-3.3-3.7-5c-0.8-0.9-1.6-1.7-2.6-2.5
		c-1-0.8-2.3-1.4-3.8-1.7c-1.4-0.3-3-0.2-4.3,0.2c-1.3,0.4-2.4,1-3.4,1.5c-1,0.5-1.8,1.1-2.6,1.4c-0.8,0.3-1.6,0.7-2.4,0.9
		c-1.6,0.6-3.4,0.7-5.1,0.8c-7,0.1-14.1-3.5-19.1-8.6c-0.6-0.6-1.3-1.3-1.8-2c-0.6-0.7-1.1-1.4-1.7-2.2c-1.2-1.6-2.4-3.4-4.1-5.1
		c-1.6-1.7-3.8-3.5-6.4-4.6c-2.6-1-5-1.3-6.8-1.6c-1.9-0.3-3.3-0.7-3.9-1.2c-0.3-0.2-0.6-0.5-0.9-1c-0.3-0.4-0.6-1.1-0.9-1.8
		c-0.3-0.8-0.6-1.7-1-2.7l-1.1-3c-0.6-1.4-1.1-2.7-1.8-4.1c0.2,0,0.3-0.1,0.5-0.1c0.7-0.1,1.6-0.3,2.5-0.5c0.9-0.2,1.7-0.5,2.6-0.7
		c1.7-0.6,3.2-1.2,4.7-1.9c3-1.4,5.5-2.8,8.1-4.1l7.7-4.2c1.3-0.7,2.6-1.4,3.9-2.1c1.3-0.7,2.7-1.5,4.1-2.4c1.4-0.9,2.9-1.9,4.3-3.2
		c0.4-0.4,0.8-0.7,1.2-1.1c1.4,0.1,2.7,0,3.9,0c2.4-0.2,4.4-0.4,5.9-0.5c0.2,0,0.4,0,0.6,0l0.4,0c0.2,0,0.5,0,0.7,0.1
		c0.5,0.1,1,0.2,1.5,0.4c0.1,0,0.1,0.1,0.2,0.1c-0.1,0.2-0.2,0.5-0.3,0.8c-0.4,0.9-0.8,2.5-0.6,4.4c0.1,0.9,0.4,1.8,0.8,2.6
		c0.4,0.8,0.9,1.4,1.4,2c1,1,1.9,1.6,2.7,2c0.8,0.4,1.5,0.7,2.1,0.9l1.5,0.5c3.9,1.4,7.8,2.7,11.7,4.1l5.9,2l5.7,1.9
		c0.8,0.3,1.5,0.6,2,0.9c0.5,0.3,0.8,0.5,1.3,1.2c0.5,0.6,1.1,1.6,2,2.7c0.9,1.1,1.9,1.9,2.9,2.6c2.1,1.4,4.1,2.2,6.1,3
		c1.9,0.7,3.9,1.4,5.5,2.3c1.6,0.9,3.1,2.1,4.2,3.6c0.5,0.8,1,1.6,1.1,2.6c0.2,0.9,0,2-0.4,2.9c0,0,0,0,0,0c0.7-0.7,1.3-1.8,1.4-2.9
		c0.2-1.1,0-2.3-0.4-3.4c-0.7-2.2-2.1-4.1-3.8-5.7c-1.8-1.6-3.6-2.7-5.3-3.9c-1.7-1.1-3.3-2.2-4.5-3.4c-0.6-0.6-1.1-1.2-1.4-1.8
		c-0.3-0.6-0.7-1.4-1.2-2.5c-0.3-0.6-0.6-1.2-1.1-1.8c-0.5-0.6-1-1.2-1.6-1.7c-1.1-1-2.3-1.7-3.3-2.3c-1.1-0.6-2-1-2.9-1.5l-2.8-1.4
		l-5.6-2.7c-3.7-1.7-7.4-3.5-11.1-5.2c0.1-0.3,0.3-0.7,0.4-1.2c0.3-1.2,0.4-2.6,0.2-4c-0.2-1.3-0.7-2.6-1.2-3.6
		c-0.6-1-1.2-1.8-1.9-2.5c-1.4-1.4-2.8-2.3-4.2-3c-1.4-0.7-2.9-1.2-4.4-1.5c-0.8-0.2-1.6-0.3-2.4-0.3l-0.6,0l-0.5,0
		c-0.3,0-0.7,0-1,0c-2.5,0-4.7,0.3-6.4,0.4c-1.7,0.1-3,0-3.8-0.3l-4.5-1.5l-2.8,4.1c-0.9,1.3-2.4,2.7-4.6,4.1
		c-1,0.7-2.2,1.4-3.4,2.1l-3.8,2.2l-7.6,4.5c-2.5,1.5-5,3.1-7.3,4.3c-1.2,0.6-2.3,1.2-3.3,1.7c-0.5,0.2-1.1,0.4-1.6,0.6
		c-0.5,0.2-1,0.3-1.8,0.5c-1,0.3-2.2,0.5-3.5,1c-6.2-10.1-14.4-19.1-24-26.2c1-1.8,1.7-3.8,2-5.8c0.4-2.3,0.4-4.6-0.2-7
		c-0.3-1.2-0.7-2.4-1.2-3.4c-0.5-1-1.1-2-1.7-2.9c-1.2-1.8-2.6-3.2-3.8-4.4c-1.3-1.3-2.4-2.3-3.6-3.4c-2.4-2.2-5.1-4.5-8.3-6.5
		c-3.2-2-7.1-3.7-11.4-4.1c-2.2-0.2-3.8-0.1-4.8-0.2c-0.5,0-0.9-0.1-1.1-0.2c-0.1-0.1-0.2-0.1-0.4-0.1c-0.1-0.1-0.2-0.1-0.3-0.2
		c-0.4-0.3-0.9-0.7-1.4-1.4c-0.5-0.7-0.9-1.7-1.3-2.8c-0.8-2.2-1.2-4.9-1.5-7.8l-0.6-5.8l-5.8,0.1c-2.6,0-5.2,0.2-7.7,0.6
		c-2.5,0.4-5.1,1-7.5,1.7c-2.5,0.7-4.9,1.6-7.2,2.7c-2.3,1.1-4.6,2.2-6.8,3.6c-2.2,1.4-4.3,2.8-6.3,4.5c-0.5,0.4-1,0.8-1.5,1.3
		l-0.4,0.3c-0.2,0-0.7-0.1-1.3-0.3c-0.6-0.2-1.2-0.5-1.8-0.8c-0.6-0.4-1.2-0.8-1.7-1.2c-0.5-0.4-0.8-0.9-1-1.1l-1.6-2.5l-2.6-0.6
		c-4.9-1-9.9-0.9-14.7,0.1c-0.1,0-0.2,0.1-0.4,0.1c-2.7,0.6-5.2,1.6-7.7,2.9c0.1-2,0.6-3.8,1.5-5.4c0.1-0.2,0.2-0.4,0.3-0.6l0.4-0.6
		c0.3-0.4,0.5-0.8,0.9-1.2c0.7-0.8,1.5-1.6,2.4-2.7c0.7-0.8,1.5-1.7,2.1-2.7c0.2-0.3,0.4-0.6,0.6-1c0.8-1.4,1.3-2.8,1.7-4
		c0.4-1.2,0.8-2.3,1.2-3.1l0.7-1.2c0.3-0.4,0.5-0.8,0.8-1.2c2.3-3,6.2-5.3,10.5-7.1c2.1-1,4.4-1.8,6.7-2.8c1.2-0.5,2.4-1,3.5-1.5
		c0.6-0.3,1.3-0.6,2.2-1.1c0.8-0.5,1.8-1.2,2.6-2.4c0.9-1.1,1.4-2.7,1.5-4c0.1-1.3-0.1-2.4-0.2-3.3c-0.2-0.9-0.4-1.6-0.6-2.1
		l-0.4-1.6c-0.5-2.1-0.8-4.2-0.9-6.4c-0.1-1.1,0-2.2,0-3.3c0-0.5,0.1-1.1,0.2-1.6l0.1-0.8l0.1-0.8c0.3-2.2,0.9-4.3,1.6-6.3
		c0.7-2.1,1.7-4,2.8-5.9c1.1-1.8,2.4-3.6,3.8-5.2c0.3-0.4,0.7-0.8,1.1-1.1c0.4-0.4,0.8-0.8,1.1-1.1c0.7-0.6,1.5-1.2,2.2-1.6
		c0.7-0.4,1.4-0.6,1.9-0.7c0.5-0.1,0.8,0,1,0.1l6.5,1.9l0.3-6.6c0.1-1.6,0.6-2.9,1.6-4.1c1-1.2,2.6-2.3,4.5-3.3
		c1.9-0.9,4.1-1.6,6.4-2.2c2.3-0.6,4.7-1,7.1-1.2l2-0.2l1.4-1.6l24.8-27.9c0.5,0.3,0.9,0.6,1.4,0.8c1.7,0.8,3.4,1.2,5.1,1.4
		c1.7,0.2,3.6,0.1,5.5-0.4c0.5-0.1,1-0.3,1.5-0.5l0.7-0.3c0.2-0.1,0.5-0.2,0.6-0.3c0.7-0.4,1.4-0.8,2.1-1.3c1.3-1,2.4-2.1,3.4-3.1
		c1.9-2.2,3.2-4.3,4.4-6c1.2-1.8,2.2-3,3.5-4.2c1.3-1.2,2.8-2.3,4.5-3.4c3.3-2.1,7.2-3.8,11.3-5.5c8.3-3.4,16.6-6.7,25-9.9
		c4.2-1.6,8.4-3.2,12.6-4.8c4.2-1.6,8.3-3.1,12.4-4.3c2-0.6,4-1.1,6-1.5c2-0.4,4-0.7,5.9-0.8c3.8-0.3,7.5,0.1,10.8,1.2
		c3.3,1.2,6.3,3.1,8.5,5.6c1.1,1.3,2.2,2.8,3.3,4.6c1.1,1.7,2.2,3.8,3.3,5.7l13.5,23.4l3.4,5.9c0.8,1.4,1.4,3,1.8,4.5
		c0.4,1.4,0.4,2.8,0.2,3.3l-16.7,12.3l18.1,0.4c1.5,0,3.1,0.3,4.6,0.9c1.5,0.6,2.9,1.4,4.1,2.4c1.2,1,2.1,2.2,2.8,3.4
		c0.3,0.6,0.5,1.3,0.7,2c0.1,0.4,0.1,0.7,0.2,1c0,0.4,0,0.7,0.1,1.1c0.1,2-0.4,4.2-1.3,6.5c-0.4,1.1-1,2.1-1.6,3.2
		c0,0,0,0.1-0.1,0.1c-2,3.4-4.6,6.8-7.6,10l-4.1,4.5l4.2,4.3l19.7,20.2c0.8,0.8,1.7,1.8,2.9,2.8c1.2,1,2.5,2.1,4.3,3
		c1.8,0.9,4.2,1.5,6.6,1.3c2.4-0.1,4.9-1.1,6.7-2.6c1.8-1.5,3.1-3.2,3.9-5.1c0.8-1.8,1.3-3.8,1.4-5.8c0.1-2.2-0.3-3.9-0.7-5.4
		c-0.4-1.5-0.9-2.8-1.4-4c-0.9-2.3-1.7-4.1-1.8-5.3c-0.2-1.3-0.1-2.6,0.4-4.1c0.3-0.9,0.7-1.7,1.3-2.6c0.7-1.2,1.6-2.3,2.7-3.2
		c0.7-0.6,1.4-1.1,2.1-1.6c1.4-0.9,3-1.6,4.6-1.9c0.4-0.1,0.8-0.2,1.2-0.2c0.4-0.1,0.8-0.1,1.2-0.1l1.2,0c0.4,0,0.9,0.1,1.4,0.1
		c2,0.2,4.4,0.7,7.3,0.9c1.5,0.1,3.1,0,4.6-0.2c1.5-0.2,2.9-0.5,4.2-0.8c2.7-0.7,4.9-1.5,7.3-2.3c2.3-0.8,4.6-1.7,6.9-2.7
		c4.6-2,9-4.2,13.2-6.8c2.1-1.3,4.2-2.6,6.3-4c1-0.7,2-1.4,3-2.2c1-0.8,1.9-1.5,2.7-2c0.8-0.5,1.4-0.9,1.9-1.1
		c0.3-0.1,0.5-0.2,0.7-0.2c0.2-0.1,0.4,0,0.7-0.1c0.2,0,0.4,0.1,0.6,0c0.2,0.1,0.4,0.1,0.6,0.2c0.2,0.1,0.5,0.2,0.8,0.4l0.4,0.3
		l0.5,0.4c1.3,1,2.8,2.5,4.4,4.2c1.6,1.7,3.4,3.7,5.8,5.5c0.6,0.4,1.3,0.9,1.9,1.3c0.7,0.4,1.4,0.8,2.1,1.2c1.5,0.7,3,1.1,4.3,1.5
		c2.6,0.7,4.6,1.1,5.9,1.6c0.3,0.1,0.6,0.3,0.8,0.4c0.2,0.2,0.5,0.3,0.6,0.5c0.3,0.3,0.6,0.6,0.7,1c0.3,0.8,0.5,2.1,0.1,3.8
		c-0.7,3.4-2.7,7.2-5.2,10.5l-8.4,11.5l13.7-3.2c3.6-0.8,7.4-0.3,11.1,1.1c1.4,0.5,2.7,1.2,4.1,1.9c0.3,0.2,0.7,0.4,1,0.6
		c4.7,2.8,9.2,6.6,13.4,10.6c1,1,1.7,1.9,1.9,2.3c0,0.1,0.1,0.1,0.1,0.1c0,0,0,0.1-0.1,0.1c-0.2,0.3-0.5,0.7-0.9,1.1l-1.7,1.7
		c-0.7,0.7-1.4,1.4-2.1,2.4c-0.4,0.5-0.7,1.1-1,1.7c-0.2,0.4-0.4,0.8-0.5,1.3c-0.1,0.3-0.2,0.6-0.2,0.9c0,0.1,0,0.1,0,0.2
		c0,0.1,0,0.2,0,0.2c-0.1,0.3-0.1,0.7-0.1,1c0,0.4,0,0.8,0,1.2l0.1,0.6c0,0.2,0.1,0.4,0.1,0.6c0.1,0.4,0.2,0.9,0.4,1.3
		c0.7,1.6,1.7,2.8,2.7,3.6c0.1,0,0.1,0.1,0.2,0.1c0.2,0.2,0.4,0.3,0.6,0.4c0.2,0.1,0.4,0.2,0.6,0.4c0.1,0.1,0.2,0.1,0.3,0.2
		c1.6,0.9,3.1,1.4,4.5,1.8c1.9,0.5,3.6,0.8,5.3,1.1l2.4,0.4c0.7,0.2,1.3,0.2,2,0.4c1.3,0.3,2.7,0.8,3.9,1.4c0.1,0,0.2,0.1,0.3,0.2
		c0,0,0,0,0,0c0.1,0.1,0.2,0.1,0.4,0.2c3.4,1.7,6.5,4.3,8.7,7.4c1.5,2.3,2.6,4.8,3.1,7.4c0.1,0.6,0.1,1.3,0.2,1.9c0,0.7,0,1.4,0,2.2
		c0,1.6-0.1,3.4,0.2,5.5c0.2,1,0.4,2.1,0.8,3.2c0.4,1.1,1.1,2.2,1.8,3.1c1.5,1.9,3.3,3.1,4.9,4c1.7,0.9,3.3,1.6,4.9,2.2
		c1.5,0.6,2.9,1.2,4.3,1.8c2.8,1.3,5.4,2.8,7.4,4.6c1,0.9,1.9,1.9,2.6,3c0.6,1,1,2.1,1.2,3.2c0.4,2.4-0.3,4.9-1.8,6.3
		c-0.4,0.4-0.8,0.7-1.2,1c-0.5,0.2-0.9,0.5-1.6,0.6c-1.3,0.4-2.9,0.5-4.7,1c-0.9,0.2-2,0.6-3,1.1c-1,0.6-2.1,1.4-2.8,2.4
		c-0.7,1-1.2,2.2-1.4,3.2c-0.3,1-0.4,2-0.5,2.8c-0.2,1.7-0.3,3.1-0.7,4c0,0.1-0.1,0.2-0.2,0.3c0,0.1-0.1,0.2-0.2,0.3l-0.2,0.3
		l-0.3,0.3c-0.4,0.4-0.9,0.8-1.5,1.3c-1.2,0.8-2.6,1.6-4.1,2.6c-0.7,0.5-1.5,1.1-2.3,1.8c-0.8,0.7-1.5,1.8-2,3
		c-0.1,0.3-0.2,0.6-0.3,1c0,0.3-0.1,0.7-0.1,1c0,0.7,0.1,1.3,0.3,1.9c0.4,1.2,1,2.1,1.5,2.9c0.6,0.8,1.2,1.4,1.6,2l1.5,1.8
		c0.8,1,1.5,2,2.2,3c0,0,0,0,0,0c0.1,0.1,0.1,0.2,0.2,0.3c0.3,0.4,0.5,0.7,0.8,1.1c0,0.1,0.1,0.1,0.1,0.2c0,0,0,0,0,0
		c1.5,2.3,2.9,4.7,4,7.1c0.1,0.2,0.2,0.4,0.3,0.6c0,0,0,0.1,0,0.1c0.1,0.3,0.2,0.5,0.4,0.8c0,0,0,0.1,0,0.1c0.1,0.3,0.3,0.6,0.4,1
		c0.3,0.7,0.6,1.4,0.8,2.1c1.1,2.7,1.9,5.6,2.6,8.5c0,0,0,0,0,0c0,0.2,0.1,0.3,0.1,0.5c0,0,0,0,0,0c0,0,0,0,0,0
		c0,0.2,0.1,0.3,0.1,0.5c0,0,0,0,0,0c0.6,3,1,6.1,1.2,9.1c0,0.1,0,0.1,0,0.2c0,0,0,0,0,0c0,0,0,0,0,0c0,0,0,0,0,0c0,0,0,0,0,0
		c0,0,0,0,0,0c0.1,3.2,0,6.5-0.4,9.7c0,0.2-0.1,0.3-0.1,0.5c0,0.1,0,0.3-0.1,0.4c-0.1,0.5-0.2,1.1-0.3,1.6c0,0.1,0,0.2-0.1,0.3
		c0,0.1,0,0.2-0.1,0.2c-0.4,1.9-0.9,3.8-1.7,5.6c-0.2,0.4-0.3,0.8-0.5,1.2c0,0,0,0.1,0,0.1c0,0,0,0.1-0.1,0.1
		c-0.7,1.5-1.5,3-2.4,4.4c-0.1,0.1-0.1,0.2-0.2,0.3c-0.1,0.1-0.1,0.2-0.2,0.3c-0.4,0.6-0.9,1.2-1.4,1.8c-2.1,2.4-4.6,4.5-7.4,6
		c-2.8,1.5-5.9,2.6-9.1,3.1c-3.2,0.5-6.5,0.4-9.7-0.3c0,0,0,0,0,0c3.1,0.9,6.5,1.2,9.8,0.8c3.3-0.3,6.5-1.3,9.5-2.7
		c3-1.4,5.7-3.5,8.1-5.9c0.1-0.1,0.1-0.2,0.2-0.2c0.1-0.1,0.1-0.2,0.2-0.3c0.1-0.1,0.1-0.2,0.2-0.3c0.8-0.9,1.6-1.9,2.3-3
		c0.2-0.3,0.3-0.5,0.5-0.8c0,0,0,0,0,0c0,0,0,0,0,0c0.1-0.2,0.2-0.3,0.3-0.5c0.1-0.2,0.2-0.3,0.3-0.5c0.4-0.8,0.8-1.5,1.2-2.3
		c0,0,0-0.1,0-0.1c0,0,0,0,0-0.1c0.1-0.1,0.1-0.3,0.2-0.4c0.9-2,1.6-4.1,2.1-6.2c0-0.1,0-0.2,0.1-0.2c0-0.1,0.1-0.2,0.1-0.3
		c0.1-0.6,0.3-1.2,0.4-1.8c0-0.1,0.1-0.3,0.1-0.4c0-0.2,0.1-0.4,0.1-0.5c0-0.1,0-0.1,0-0.2c0.3-1.7,0.5-3.3,0.6-5
		c0-0.8,0.1-1.7,0.2-2.5l0-2.1l0,0l0-0.1l0,0l0-0.1l0,0l0-0.2c0-3-0.3-6.1-0.7-9.1c0,0,0-0.1,0-0.1c0-0.1,0-0.2,0-0.3c0,0,0,0,0,0
		l-0.1-0.4c0,0,0-0.1,0-0.1c-0.4-2.6-1-5.1-1.8-7.6c0,0,0,0,0,0c0,0,0,0,0,0c0,0,0,0,0,0c0,0,0,0,0,0c0,0,0,0,0,0
		c-0.2-0.7-0.4-1.4-0.7-2.1c-1.4-4.1-3.2-8.1-5.4-11.9c0,0,0,0,0,0c0-0.1-0.1-0.1-0.1-0.2c-0.3-0.5-0.6-1-0.9-1.4
		c-0.1-0.1-0.1-0.2-0.2-0.3c0,0,0,0,0-0.1c-0.9-1.4-1.8-2.7-2.7-4l-1.5-2c-0.5-0.7-1-1.3-1.4-1.8c-0.4-0.6-0.6-1.1-0.7-1.4
		c0-0.2-0.1-0.3,0-0.5c0-0.1,0-0.2,0-0.2c0-0.1,0.1-0.1,0.1-0.2c0.2-0.6,1.1-1.4,2.4-2.2c1.3-0.8,2.7-1.5,4.3-2.5
		c0.8-0.5,1.6-1.1,2.3-1.8c0.8-0.7,1.5-1.7,2-2.7c1-2.1,1.1-4,1.3-5.6c0.2-1.6,0.5-2.7,1-3.2c0.2-0.3,0.5-0.5,0.9-0.7
		c0.4-0.2,1-0.4,1.6-0.5c1.3-0.3,3-0.4,4.9-0.9c1-0.2,2-0.6,3-1.1c1-0.5,1.9-1.2,2.7-1.9c1.6-1.5,2.7-3.5,3.4-5.5
		c0.6-2,0.8-4.1,0.6-6.2c-0.2-2.1-0.9-4.1-2-5.9c-1-1.7-2.3-3.2-3.7-4.5c-2.8-2.6-5.9-4.4-9-6c-1.5-0.8-3.1-1.5-4.6-2.1
		c-1.5-0.6-2.9-1.3-4-2c-1.2-0.7-2.1-1.4-2.6-2.2c-0.5-0.7-0.8-1.5-1-2.7c-0.1-1.2-0.1-2.6,0-4.3c0-0.8,0.1-1.7,0.1-2.7
		c-0.1-1-0.1-2-0.2-2.9c-0.6-3.9-2-7.5-4.1-10.7c-1-1.6-2.2-3.1-3.5-4.4c-0.1-0.1-0.2-0.2-0.3-0.3c0,0,0,0,0,0
		c-0.1-0.1-0.2-0.2-0.3-0.3c-2.8-2.8-6.2-5.1-9.9-6.7c-0.2-0.1-0.3-0.1-0.5-0.2c-0.3-0.1-0.7-0.3-1-0.4c-0.5-0.2-1.1-0.4-1.6-0.6
		c-0.2-0.1-0.5-0.1-0.7-0.2c-0.9-0.3-1.9-0.4-2.8-0.7l-2.4-0.4c-1.5-0.3-3-0.6-4.3-1c-1.2-0.4-2.3-0.9-2.7-1.2
		c0-0.1,0.1-0.1,0.2-0.2c0.2-0.3,0.7-0.8,1.2-1.2l1.8-1.7c0.2-0.2,0.4-0.4,0.5-0.6c0.1-0.1,0.3-0.3,0.4-0.4c0.3-0.3,0.6-0.7,0.9-1.1
		c0.1-0.2,0.3-0.3,0.4-0.5c0.2-0.3,0.4-0.6,0.6-1c0.5-1,0.9-2.1,1-3.4c0.2-1.7-0.2-3.4-0.7-4.7c-1.1-2.6-2.6-4.1-3.9-5.5
		c-0.7-0.7-1.3-1.2-1.9-1.8c-0.6-0.6-1.2-1.2-1.9-1.7c-1.3-1.2-2.5-2.3-3.9-3.4c-1-0.9-2.1-1.7-3.2-2.5c4.9-2.5,10.1-4.3,15.4-5.1
		c6.9-1,14-0.1,20.7,2.2c6.7,2.2,13.1,5.7,19.2,9.6c3.4,2.2,6.8,4.5,10.1,6.9c0.6,0.4,1.1,0.8,1.7,1.2c0.5,0.4,1.1,0.8,1.6,1.2
		c0,0,0.1,0,0.1,0.1c1.5,1.1,3.1,2.2,4.6,3.3c1.7,1.3,3.5,2.5,5.3,3.8c0.5,0.3,0.9,0.7,1.4,1c0.3,0.2,0.7,0.5,1,0.7
		c0.1,0.1,0.3,0.2,0.4,0.3c3.4,2.3,6.9,4.6,10.5,6.8c0.3,0.2,0.6,0.3,0.8,0.5c0.4,0.3,0.9,0.5,1.3,0.8c0,0,0,0,0.1,0
		c0.4,0.2,0.8,0.5,1.3,0.7c5.5,3,11.3,5.6,17.4,7.3c0.5,0.1,1,0.3,1.5,0.4c7,1.8,14.2,2.5,21.3,2.4c7.3-0.2,14.6-1.2,21.7-2.9
		c0.3-0.1,0.6-0.1,0.9-0.2c14.7-3.6,28.6-9.5,41.9-16.3c4.8-2.5,9.6-5,14.3-7.5c0.8-0.4,1.5-0.8,2.3-1.2c0.5-0.3,1-0.5,1.5-0.8
		c1.2-0.7,2.5-1.3,3.7-2c5.8-3.1,11.7-6.1,17.6-9c6.9-3.3,14-6.3,21.1-8.8c1-0.4,2.1-0.7,3.1-1c2.4-0.8,4.8-1.5,7.3-2.1
		c5.9-1,11.8-1.9,17.8-2.9c2-0.1,4-0.2,6-0.2c1,0,1.9,0,2.9,0c1.4,0,2.9,0.1,4.3,0.2c7.2,0.5,14.3,1.7,21.3,3.5
		c4.4,1.1,8.7,2.5,13,3.9c0.9,0.3,1.8,0.6,2.7,0.9c0.5,0.2,1,0.4,1.6,0.6c0.3,0.1,0.6,0.2,1,0.4c7.7,2.9,15.3,6.1,22.9,9.5
		c13.5,6,26.9,12.5,40.8,17.9c7,2.7,14.1,5.1,21.4,7c3.6,1,7.3,1.8,11,2.5c3.7,0.7,7.5,1.1,11.2,1.6c0,0,0,0,0.1,0
		c-1,1.4-1.8,3-2.4,4.7c-0.7,2-0.9,4.1-0.9,6c0,1.9,0.2,3.7,0.4,5.3c0.2,1.6,0.4,3.2,0.4,4.6c0,1.3-0.2,2.5-0.5,3.7
		c-0.4,1.2-1,2.2-1.6,2.9c-0.7,0.7-1.4,1-2.2,1.1l-2.7,0.4l-0.4,2.4l-2.4,13.8c-0.5-0.3-1-0.7-1.5-1c-2.3-1.3-4.8-2.1-7.4-2.5
		c-2.6-0.4-5.2-0.4-7.8,0.1c-2.6,0.5-5.1,1.4-7.3,2.9l-1.6,1l0.4,1.7c0.9,3.9-0.4,8.2-3,11.6c-2.6,3.4-6.5,5.8-10.6,6.1l-2,0.2
		l0,1.9c-0.1,6.1,0.6,12.2,2.2,18c-2.6-0.2-5.2,0.3-7.5,1.5l-2.7,1.4l2.7,1.4c0.4,0.2,0.7,0.5,0.9,0.9c0.2,0.4,0.3,0.9,0.3,1.5
		c0,1.2-0.4,2.5-1.2,3.5c-0.4,0.5-0.7,1-1.3,1.4c-0.5,0.5-1.1,0.9-1.7,1.3c-1.2,0.9-2.5,1.7-3.8,2.7c-1.3,1-2.5,2.3-3.4,3.8
		c-0.8,1.5-1.3,3.3-1.3,4.9c-0.1,3.4,1.1,6.5,2.4,9.3c0.7,1.4,1.5,2.8,2.3,4.1c0.3,0.5,0.6,0.9,0.9,1.4c-2.8,2.6-5.3,5.4-7.7,8.2
		c-3.7,4.3-7.2,8.6-10.9,12.6c-1.9,2-3.8,3.9-5.8,5.7c-0.5,0.5-1,0.9-1.5,1.3c-0.5,0.4-1,0.9-1.6,1.3l-1.6,1.2
		c-0.6,0.4-1.2,0.8-1.7,1.3c-2.3,1.7-4.5,3.6-6.3,6c-0.9,1.2-1.6,2.5-1.8,4c-0.3,1.5,0.2,3,1.1,4.1c0,0,0,0,0,0
		c-0.6-1.3-0.8-2.7-0.3-3.9C1264.3,324,1265.1,322.9,1266.1,322z M1431.4,238.2C1431.4,238.2,1431.4,238.2,1431.4,238.2
		c-0.1,0-0.2,0-0.2-0.1C1431.3,238.2,1431.3,238.2,1431.4,238.2z M1625.4,105.8c14.6-0.6,29.3,1,43.8,3.5c7.4,1.3,14.8,2.9,22.2,4.7
		c8.8,2.1,17.6,4.5,26.3,7.2c-0.2,1.9-0.1,3.9,0.3,5.8c0.2,0.9,0.4,1.8,0.7,2.7c0.3,0.8,0.6,1.6,0.9,2.3c0.6,1.4,1.2,2.5,1.6,3.5
		c0.4,0.9,0.6,1.7,0.6,2c0,0.2,0,0.3,0,0.4c0,0.1-0.1,0.1-0.1,0.1c0,0,0,0.1,0,0.1c0,0,0,0-0.1,0.1c0,0.1-0.2,0.3-0.2,0.4
		c-0.2,0.2-0.3,0.4-0.7,0.7c-0.2,0.2-0.7,0.5-1,0.8c-0.4,0.3-0.8,0.6-1.3,0.9c-1.9,1.3-4.5,2.8-7.1,5.3c-1.3,1.3-2.6,3-3.6,5
		c-0.9,2.1-1.2,4-1.4,5.7c-0.2,1.7-0.2,3.2-0.2,4.4c0,1.2-0.1,2.3-0.2,3c-0.1,0.3-0.1,0.5-0.2,0.6c0,0,0,0,0,0
		c-0.3,0.1-1.1,0.2-2.2,0.2l-3.8,0c-2.5,0-5-0.1-7.5-0.2c-0.3,0-0.6-0.1-0.9-0.1c-2.1-0.1-4.2-0.4-6.3-0.6c-2.3-0.4-4.6-0.8-6.8-1.4
		c-2.1-0.6-4.2-1.4-6.1-2.4c-1.9-1-3.6-2.2-5.1-3.5l-4.2-3.7l-4.2,3.6c-4.2,3.7-10.5,5.5-16.2,4.7c-0.7-0.1-1.4-0.2-2.1-0.4
		c-0.4-0.1-0.7-0.2-1-0.3c-0.3-0.1-0.7-0.2-0.9-0.3c0,0,0,0-0.1,0c0.1-0.6,0.2-1.4,0.4-2.5c0.1-0.7,0.1-1.5,0.1-2.4
		c-0.1-0.9-0.2-1.8-0.4-2.7c-0.5-1.8-1.3-3.4-2.3-4.7c-1-1.3-2.1-2.4-3.2-3.3c-1.1-0.9-2.2-1.6-3.4-2.2c-1.1-0.6-2.3-1.1-3.4-1.5
		c-1.2-0.4-2.4-0.7-3.4-1c-2-0.5-3.8-0.8-5.4-1.2c-1.5-0.4-2.8-0.9-3.6-1.4c-1.6-1-2.4-2.1-2.8-4.6c-0.4-2.4,0-5.7,0.6-9.1l1.1-5.4
		c0.4-2.3,0.6-4.7,0.6-7c0-1.6-0.2-3.1-0.4-4.7C1616.9,106.4,1621.1,106,1625.4,105.8z M1432.7,158.9c12.8-1.4,25.4-3.6,37.9-6.3
		l0,0.3l0.8,1.5c0.9,1.7,1.1,3.3,0.8,5.3c-0.3,2-1.2,4.2-2.6,6.4c-1.3,2.2-3.1,4.3-5,6.4c-1.9,2.1-4,4-6.3,5.9l-4.8,4l4.2,4.5
		c5.2,5.5,10.2,10.9,13.4,16.8c1.6,2.9,2.8,5.9,3.3,9c0.5,3,0.4,6.2-0.2,9.3c-0.3,1.4-0.8,2.8-1.3,4.1c-0.2-0.6-0.5-1.1-0.8-1.8
		c-0.5-1.1-1.2-2.4-2.5-3.7c-1.2-1.3-2.4-2.1-3.6-2.8c-1.2-0.7-2.2-1.1-3.2-1.5c-1-0.4-1.7-0.7-2.6-1.1c-3.2-1.4-6.3-3.1-9.3-5
		c-5.9-3.9-11.1-8.9-15.2-14.6l-1.5-2.2c-0.5-0.8-0.9-1.5-1.4-2.3c-0.9-1.5-1.8-3.3-2.9-5.1c-1.1-1.8-2.3-3.7-3.9-5.4
		c-0.8-0.9-1.7-1.8-2.6-2.5c-0.9-0.7-1.7-1.3-2.5-1.9c-1.5-1.1-2.6-2-3.3-2.9c-0.7-0.9-1.3-2.1-1.7-3.6c-0.4-1.4-0.7-3.1-1-4.9
		l-0.5-4.5C1420.7,160.1,1426.7,159.6,1432.7,158.9z M691.2,248.9C691.2,248.9,691.3,248.9,691.2,248.9c-0.1,0-0.2-0.1-0.2-0.1
		C690.9,248.7,691,248.6,691.2,248.9z M681.9,245.6C682,245.4,682,245.5,681.9,245.6C681.9,245.7,681.9,245.6,681.9,245.6z
		 M515.9,190.2L515.9,190.2L515.9,190.2c0.1-0.1,0.1-0.1,0.2-0.2c0,0,0,0,0,0L515.9,190.2L515.9,190.2L515.9,190.2z M775,120
		c0.2,1.7,0.7,3.3,1.2,4.6c0.5,1.3,1,2.5,1.4,3.5c0.4,1,0.7,1.9,0.9,2.7c0.2,0.7,0.3,1.4,0.3,1.6c0,0.3-0.1,0.7-0.2,1
		c-0.1,0.1-0.1,0.2-0.2,0.3c0,0-0.1,0-0.1-0.1c-0.3-0.1-0.8-0.5-1.4-1c-0.6-0.5-1.3-1.2-2.2-2.1L759,114.3c1.9-2.4,3.7-4.9,5.4-7.7
		c0.5-0.8,0.9-1.7,1.4-2.6c2.5,0.8,5,1.6,7.5,2.4l3.7,1.2c-0.4,0.8-0.7,1.7-1,2.5C774.9,113.2,774.5,116.6,775,120z M1074.3,157.1
		c-7,1.7-14.2,2.8-21.3,2.9c-7.2,0.2-14.3-0.6-21.1-2.5c-3-0.8-6-1.9-8.9-3.1l21.3-2.9c20.2-2.8,40.3-5.7,60.4-8.6l9.8-1.4
		C1101.6,148,1088.2,153.7,1074.3,157.1z M1122,137.6l-17.7,2.6c-20.1,3-40.3,5.9-60.4,9l-24.3,3.7c-2.5-1.2-5-2.5-7.4-3.9
		c-1.8-1-3.5-2.1-5.3-3.2l105-17.4l40.7-6.8C1142.2,126.6,1132.1,132.2,1122,137.6z"/>
	<path class="st3" d="M1466.5,265.5L1466.5,265.5c-0.1-0.1-0.2-0.1-0.2,0C1466.3,265.5,1466.5,265.5,1466.5,265.5z"/>
	<path class="st1" d="M681.9,245.6C681.9,245.6,681.9,245.7,681.9,245.6C682,245.5,682,245.4,681.9,245.6z"/>
	<path class="st3" d="M824.8,308.9C824.8,308.9,824.8,309,824.8,308.9C824.8,309,824.8,309,824.8,308.9
		C824.7,309,824.8,309,824.8,308.9c0.1,0.1,0.1,0.1,0.1,0.1C824.9,309,824.9,309,824.8,308.9C824.8,308.9,824.8,308.9,824.8,308.9z"
		/>
	<path class="st3" d="M816.8,303c-3.4,1.4-6.7,2.7-10.1,4.1l-5,2.1l-5,2.2l-2.5,1.1l-2.3,1.1c-0.4,0.2-0.7,0.3-0.8,0.3
		c-0.4-0.2-1-0.6-1.9-1c-1.6-0.8-3.2-1.1-4.7-1.2c-1.5-0.1-2.8,0-4.1,0.2c-1.2,0.3-2.4,0.6-3.5,1c-2.3,0.8-4.3,2.1-6.1,3.5
		c-1.8,1.4-3.2,3-4.5,4.7c-2.5,3.3-4.3,6.6-6,9.8c-1.7,3.2-3.3,6.3-5.3,9.1c-2,2.7-4.6,5.2-8,6.7c1.9,0,3.7-0.4,5.6-1.1
		c1.8-0.7,3.5-1.7,5.1-2.9c3.1-2.3,5.8-5.2,8.2-8c2.4-2.8,4.7-5.5,7.1-7.6c2.4-2.2,4.8-3.5,7.1-4c0.6-0.1,1.2-0.2,1.8-0.2
		c0.5,0,1,0,1.4,0.1c0.4,0.1,0.5,0.2,0.5,0.3c0.2,0.1,0.9,0.7,2.3,1.5c0.7,0.4,1.7,0.8,2.8,1c1.1,0.2,2.1,0.3,3.1,0.2
		c1.9-0.1,3.3-0.6,4.4-1l1.4-0.5l1.3-0.5l2.5-1l5.1-2l5.1-2c1.3-0.5,2.5-1,3.8-1.5c0.9,1,1.9,1.7,3,2.3c0.6,0.4,1.3,0.7,2,0.9
		c0.7,0.2,1.5,0.5,2.1,0.5c1.6,0.3,3.1,0.3,4.5,0.1l0.4,3.5l4.7,0.1c2.1,0,4,0.1,5.5,0.3c0.8,0.1,1.5,0.3,2.1,0.4
		c0.5,0.2,1.1,0.4,1.5,0.7c0.5,0.3,0.8,0.6,1,0.8c0.1,0.1,0.2,0.2,0.2,0.3c0.1,0.1,0.1,0.1,0.1,0.3c0.1,0.4-0.1,1.4-0.2,2.7
		c-0.1,0.7-0.1,1.5,0,2.5c0.1,1,0.4,2.1,0.9,2.9c1,1.7,2.2,2.7,3.2,3.4c1,0.7,1.8,1.2,2.6,1.8c1.6,1.1,3.2,2.4,4.6,3.7
		c2.9,2.7,5.6,6,7.7,9.7l0,0c-0.2-2.1-0.7-4.3-1.4-6.4c-0.7-2.1-1.7-4.1-2.8-6.1c-1.1-1.9-2.5-3.8-4-5.5l-1.2-1.3
		c-0.4-0.4-0.7-0.8-1-1.1c-0.6-0.7-0.9-1.3-0.8-1.4c0-0.1,0.1,0,0.1-0.1c0-0.1,0.1-0.3,0.2-0.6c0.2-0.7,0.7-1.8,1-3.5
		c0.1-0.9,0.1-1.9,0-2.9c-0.2-1-0.4-1.9-0.8-2.7c-0.7-1.7-1.8-3-2.9-4.1c-1.1-1.1-2.4-2-3.8-2.7c-1.3-0.6-2.6-1.1-3.9-1.5
		c-0.6-0.2-1.2-0.3-1.8-0.4c0-0.3,0-0.6,0-0.9L838,306l-7.6,2.2c-1.4,0.4-2.5,0.7-3.5,0.8c-0.9,0.1-1.5,0.1-1.9,0
		c0.1,0.1,0.2,0.3,0.3,0.8c0.2,0.6,0,1.6-0.3,2.2L816.8,303z M791.5,314.2c-0.1,0-0.2-0.1-0.3-0.1c0,0,0.1,0,0.1,0
		C791.5,314.1,791.6,314.2,791.5,314.2z"/>
	<path class="st1" d="M1375.8,320C1375.8,320,1375.9,320,1375.8,320C1375.8,320,1375.8,320,1375.8,320z"/>
	<path class="st3" d="M1415.9,319.5c0.3,0.3,0.6,1.1,1,1.7c0.7,1.2,1.4,2.5,2.1,3.7c1.4,2.4,2.9,4.9,4.5,7.2v0
		c-0.2-2.9-0.6-5.7-1-8.5c-0.2-1.4-0.5-2.8-0.7-4.2c-0.1-0.7-0.2-1.3-0.5-2.2c-0.1-0.5-0.3-1-0.7-1.5c-0.3-0.6-0.8-1.2-1.5-1.7
		c-0.6-0.5-1.4-0.8-2-1c-0.7-0.2-1.2-0.3-1.8-0.3c-1-0.1-1.9,0-2.4-0.1c-1.2-0.1-2.3-0.2-3.3-0.5c-1-0.3-1.8-0.7-2.2-1
		c-0.2-0.2-0.2-0.3-0.2-0.4c0,0,0.2,0,0.2,0l-7-3.2c-3.7,1.3-7.3,2.4-10.5,2.7c-1.6,0.2-3,0.2-4.3,0c-0.3,0-0.6-0.1-0.9-0.2
		c-0.3-0.1-0.5-0.2-0.8-0.3c-0.3-0.1-0.5-0.2-0.8-0.3c-0.2-0.1-0.5-0.3-1.1-0.6c-0.5-0.3-1.3-0.7-2.4-1c-0.5-0.2-1.1-0.3-1.8-0.4
		c-0.7-0.1-1.4-0.1-2.2-0.1c-1.5,0.1-2.7,0.5-3.6,1c-0.9,0.4-1.6,0.9-2.2,1.2l-0.7,0.5l-0.5,0.3c-0.3,0.2-0.7,0.4-1,0.6
		c-0.7,0.4-1.4,0.7-2,1c-1.4,0.6-2.8,1-4,1.2c-1.3,0.2-2.3,0.1-3.2-0.1c-0.2,0-0.4-0.2-0.6-0.2l-0.6-0.3c-0.4-0.2-1.1-0.8-2.1-1.6
		c-1-0.8-2.4-1.8-4.3-2.5c-1.8-0.6-3.6-0.8-5.1-0.7c-1.5,0.1-2.7,0.3-3.8,0.6c-1.1,0.3-2,0.5-3,0.8c-2,0.6-3.9,1.1-5.9,1.7l-3,0.9
		c-1.1,0.3-2.2,0.7-3.4,1.3c-1.2,0.6-2.4,1.4-3.5,2.5c-1,1.1-1.7,2.4-2,3.6c-0.7,2.4-0.7,4.4-1,6.5c-0.2,2.1-0.3,4.1-0.4,6.2
		c0,0,0,0,0,0c1.1-1.8,2.1-3.6,3.1-5.4c1-1.8,1.9-3.8,2.8-5.1c1-1.3,1.8-1.5,3.3-1.8c0.7-0.1,1.6-0.2,2.5-0.2l3-0.1
		c2-0.1,4.1-0.2,6.1-0.4l3-0.2c0.9-0.1,1.7-0.1,2.2,0c0.6,0.1,0.8,0.2,0.9,0.3c0,0.1,0.3,0.3,0.8,0.8c0.5,0.5,1.3,1.4,2.5,2.4
		c0.6,0.5,1.3,0.9,2,1.4c0.7,0.4,1.4,0.8,2.2,1c3,1.2,6.1,1.4,8.8,1.2c2.8-0.3,5.3-1,7.7-2c1.2-0.5,2.3-1.1,3.4-1.7
		c0.5-0.3,1.1-0.6,1.6-1l0.8-0.5l0.2-0.2c0.3,0.2,0.7,0.3,1.1,0.5c0.7,0.3,1.4,0.6,2.1,0.8c0.7,0.2,1.4,0.4,2.1,0.5
		c0.7,0.1,1.4,0.3,2.1,0.3c2.8,0.3,5.5,0,7.9-0.6c2.4-0.5,4.6-1.4,6.7-2.2c0.9-0.4,1.7-0.8,2.6-1.2c0.5,0.3,1,0.6,1.5,0.9
		c2.1,1,4,1.2,5.8,1.3c1.8,0,3.4-0.1,5-0.5c0.9-0.2,1.4-0.4,1.7-0.4c0.4-0.1,0.4-0.1,0.2-0.3
		C1415.4,319.2,1415.6,319.1,1415.9,319.5z M1375.8,320C1375.8,320,1375.8,320,1375.8,320C1375.9,320,1375.8,320,1375.8,320z"/>
	<path class="st2" d="M1248.9,337.4L1248.9,337.4L1248.9,337.4c-3.5-0.4-7-0.4-10.5-0.4c-2.6,0-5.2,0.1-7.8,0.3
		c-2.6,0.1-5.2,0.2-7.8,0.3l-15.6,0.6l-0.4,0l0,0.4l0,0.2l0,0.4l0.4,0l10.4,0l10.4-0.1c3.5-0.1,7-0.1,10.5-0.3
		c3.5-0.3,6.9-0.6,10.4-1.2l0.1,0l0-0.1L1248.9,337.4z"/>
</g>
</svg>
