<?xml version="1.0" encoding="utf-8"?>
<!-- Generator: Adobe Illustrator 22.0.0, SVG Export Plug-In . SVG Version: 6.00 Build 0)  -->
<svg version="1.1" id="Layer_1" xmlns="http://www.w3.org/2000/svg" xmlns:xlink="http://www.w3.org/1999/xlink" x="0px" y="0px"
	 viewBox="0 0 404.9 404.9" style="enable-background:new 0 0 404.9 404.9;" xml:space="preserve">
<style type="text/css">
	.st0{fill:#41201F;}
	.st1{fill:#DBD9D7;}
	.st2{fill:#C51B4A;}
</style>
<g>
	<g>
		<circle class="st0" cx="202.4" cy="202.4" r="201.4"/>
		<path class="st1" d="M202.4,404.9C90.8,404.9,0,314.1,0,202.4S90.8,0,202.4,0s202.4,90.8,202.4,202.4S314.1,404.9,202.4,404.9z
			 M202.4,2C91.9,2,2,91.9,2,202.4s89.9,200.4,200.4,200.4S402.9,313,402.9,202.4S313,2,202.4,2z"/>
	</g>
	<g id="logo">
		<g>
			<g>
				<path class="st2" d="M104.7,292.9l12.6,15.1l12.6-15.1h6.6v38.3H129v-26.9h-0.2l-11.1,13.5h-1l-11.1-13.5h-0.2v26.9H98v-38.3
					H104.7z"/>
			</g>
			<g>
				<path class="st2" d="M170.2,292.4c4,0,7.5,0.8,10.7,2.5c3.2,1.6,5.7,4,7.6,7.1c1.9,3.1,2.8,6.5,2.8,10.1c0,3.6-0.9,6.9-2.8,10
					c-1.8,3.1-4.4,5.4-7.6,7.1c-3.2,1.7-6.8,2.5-10.8,2.5c-4,0-7.6-0.9-10.8-2.6c-3.2-1.7-5.8-4.1-7.6-7.1c-1.8-3-2.7-6.3-2.7-10
					c0-3.5,0.9-6.8,2.7-9.9c1.8-3.1,4.3-5.5,7.5-7.2C162.4,293.3,166,292.4,170.2,292.4z M156.6,312.1c0,2.5,0.6,4.8,1.7,6.9
					c1.2,2,2.8,3.6,4.8,4.7c2.1,1.1,4.4,1.7,7,1.7c3.9,0,7.2-1.2,9.7-3.7c2.5-2.5,3.8-5.7,3.8-9.5c0-2.5-0.6-4.8-1.7-6.9
					c-1.1-2-2.8-3.6-4.8-4.7c-2.1-1.1-4.4-1.7-7-1.7c-2.6,0-4.9,0.6-7,1.7s-3.7,2.7-4.8,4.7C157.2,307.2,156.6,309.5,156.6,312.1z"
					/>
			</g>
			<g>
				<path class="st2" d="M210.5,292.9l12.6,15.1l12.6-15.1h6.6v38.3h-7.4v-26.9h-0.2l-11.1,13.5h-1l-11.1-13.5h-0.2v26.9h-7.4v-38.3
					H210.5z"/>
			</g>
			<g>
				<path class="st2" d="M263.9,292.9v38.3h-7.4v-38.3H263.9z"/>
			</g>
			<g>
				<path class="st2" d="M285.7,292.9v36.9c0,4.1-1.1,7.4-3.3,9.8c-2.2,2.5-5.1,3.7-8.7,3.7c-0.3,0-0.5,0-0.7,0
					c-0.2,0-0.5,0-0.7-0.1l-0.5-6.4c4.4,0,6.6-2.6,6.6-7.7v-36.2H285.7z"/>
			</g>
			<g>
				<path class="st2" d="M307.5,292.9v38.3h-7.4v-38.3H307.5z"/>
			</g>
		</g>
		<g>
			<g>
				<path class="st1" d="M150.6,153.6c0.6-0.5,1.1-0.9,1.8-1.1c0.1,0,0.3-0.1,0.4-0.2c0.9-1.2,2.4-1.8,3.3-3
					c0.1-0.1,0.2-0.1,0.3-0.2c0.1,0.1,0.2,0.2,0.4,0.5c-0.2-0.7,0.1-1.1,0.5-1.5c0.6-0.4,1.1-0.9,1.6-1.4c0.3-0.3,0.8-0.7,0.9-1.1
					c0.2-0.8,0.5-1.5,1-2c0.6-0.7,1.3-1.3,1.9-1.9c1-0.9,1.7-2.1,2.9-2.8c0.3-0.2,0.6-0.4,1-0.7c-0.4-0.2-0.6-0.4-0.9-0.5
					c-0.3,0.2-0.6,0.6-0.7,0.6c-0.4-0.3-0.6,0-0.9,0.2c-1.6,0.9-3.3,1.7-4.9,2.7c-1.9,1.1-3.7,2.2-5.5,3.4c-0.4,0.2-0.8,0.4-1.2,0.6
					c-0.9,0.5-1.8,1-2.6,1.5c-0.5,0.3-0.9,0.6-1.4,0.8c-0.6,0.3-1.2,0.6-1.7,0.9c-1.5,1-3,2-4.5,2.9c-1.3,0.8-2.6,1.5-3.8,2.3
					c-1,0.6-2,1.1-3,1.6c-0.4,0.2-0.8,0.4-1.2,0.1c-0.2-0.1-0.4-0.4-0.3-0.5c0.3-0.7-0.1-1.5,0-2.2c0-0.2-0.1-0.3-0.1-0.5
					c-0.4,0.1-0.5,0.4-0.5,0.8c0,0.4,0,0.8,0,1.2c0,0,0,0,0,0c0,0,0,0,0,0c0,0,0,0,0,0v0l0,0c0,0.6,0,1.2-0.1,1.7
					c-0.1,0.5-0.5,1-1.1,1.2c-0.1-0.2-0.2-0.4-0.3-0.8c-0.2,0.4-0.3,0.6-0.4,0.8c-0.1,0.3-0.2,0.8-0.4,0.9c-1,0.6-1.8,1.2-2.6,2.1
					c-0.1,0.1-0.4,0.1-0.6,0.2c-0.9,0.5-1.9,1-2.8,1.5c0,0,0,0.1-0.1,0.1c-0.5,0.3-0.9,0.8-1.4,1c-0.8,0.3-1.6,0.6-2.1,1.4
					c0,0.1-0.1,0.1-0.2,0.2c-0.6,0.2-1.2,0.4-1.8,0.6c0-0.1,0-0.2,0.1-0.3c0.7-1.4,1.4-2.7,2.1-4c0.3-0.6,0.8-1.2,1.2-1.8
					c0.2-0.3,0.6-0.7,0.6-1c0.1-0.6,0.2-0.7,0.8-0.7c0.5,0,0.7-0.2,0.6-0.7c-0.2-0.8,0.1-1.4,0.4-2.1c0-0.1,0.2-0.1,0.2-0.1
					c0,0.2,0,0.5-0.1,0.8c0.6-0.3,0.8-0.7,1-1.2c-0.2-0.1-0.3-0.3-0.6-0.5c0.7-0.2,1.2-0.4,1.5-0.9c0.6-1,1.1-2.1,1.6-3.1
					c0.3-0.6,0.6-1.2,1.3-1.3c0.2,0.3,0.4,0.5,0.6,0.8c0.5-0.6,0.8-1.1,1.2-1.5c0.4-0.4,1-0.7,1.6-1.1c0,0.8-0.1,1.4,0,2
					c0.1,0.6,0,1.2,0.1,1.8c0,0.6-0.2,1.1,0.2,1.7c0.2-1,0.2-2,0.2-3c0.1-1.1,0.1-2.1,0.2-3c0.8-0.7,1.5-1.2,2.1-1.8
					c0.6-0.6,1.2-1.3,1.8-2c-0.1,0-0.2-0.1-0.4-0.2c0.5-0.4,1.1-0.6,1.4-1c0.4-0.4,0.8-0.9,0.9-1.5c0.2-0.9,1-1,1.6-1.4
					c0.1-0.1,0.4-0.1,0.4-0.3c0.7-1.4,2.3-1.8,3.2-3c0.1-0.1,0.2-0.1,0.3-0.1c0.5-0.3,1-0.5,1.4-0.9c0.9-0.9,2-1.4,3.2-1.6
					c0.1-0.2,0.2-0.5,0.2-0.7c0.8,0.1,0.7,0.1,1.1-0.5c0.1-0.1,0.1-0.2,0.2-0.2c0.8-0.2,1.4-0.8,2.1-1.1c0.6-0.3,1.3-0.8,1.6-1.3
					c0.3-0.5,0.8-0.9,1.3-1.2c0.3-0.2,0.7-0.4,1-0.6c0.7-0.4,1.4-0.8,2.3-1.3c0.2-0.6,0.9-1,1.5-1.3c0.9-0.4,1.7-0.9,2.3-1.6
					c0.5-0.6,1.1-1.2,1-2c0-0.2,0.1-0.4,0.2-0.5c0.4-0.3,0.4-0.8,0.5-1.2c0.1-0.5,0.3-1,0.4-1.5c-0.2-0.5-0.3-1-0.5-1.4
					c0.2-0.2,0.3-0.3,0.4-0.4c0.9-0.4,1.8-0.8,2.7-1.2c0.1-0.1,0.4,0.1,0.5,0.1c0.9,0,1.8-0.3,2.7-0.6c0.1,0,0.1-0.1,0.2-0.2
					c0.1-0.4,0.5-0.5,0.8-0.7c1.2-0.4,1.7-1.4,1.9-2.5c0.2-1-0.6-1.6-0.7-2.5c0-0.1-0.1-0.1-0.2-0.2c-0.6-0.5-1.2-0.9-1.6-1.6
					c-0.2-0.3-0.6-0.7-1-0.7c-0.5,0-0.8-0.4-1.1-0.7c-0.1-0.1-0.2-0.2-0.3-0.2c-0.8,0-1.2-0.5-1.5-1.1c-0.3,0.1-0.5,0-0.7,0.2
					c-0.6,0.4-1.2-0.2-1.8-0.2c-0.2,0-0.4-0.3-0.6-0.5c-0.4-0.4-0.8-0.5-1.3-0.3c-0.2,0.1-0.4,0.1-0.5,0c-1-0.9-2.5-0.4-3.5-1.1
					c-0.1-0.1-0.4,0-0.6,0.1c-0.7,0.1-1.5,0.3-2.2,0.4c-0.9,0-1.8,0.2-2.7,0.3c-0.4,0-0.7,0.1-1.2,0c-0.4-0.1-1,0.2-1.4,0.3
					c-0.3,0.1-0.6,0.2-0.9,0.4c-0.9,0.4-1.8,0.3-2.7,0.3c-0.2,0-0.6,0-0.7,0.1c-0.6,0.9-1.4,0.6-2.3,0.3c0-1-0.1-2.1-0.1-3.1
					c-0.1-0.9-0.1-1.9-0.2-2.8c-0.1-0.9,0.2-1.8,0-2.8c-0.2-1.3,0.1-2.6,0-3.9c-0.2-1.8-0.3-3.6-0.4-5.5c0-0.7-0.4-1.4-0.1-2.1
					c0.2-0.4,0.1-0.7,0-1.1c-0.2-0.6-0.4-1.3-0.4-1.9c0-1.2-0.1-2.4-0.4-3.6c-0.1-0.7-0.1-1.4-0.2-2.1c-0.1-0.5-0.2-1-0.4-1.5
					c-0.1-0.2-0.2-0.5-0.1-0.7c0.2-0.7-0.1-1.2-0.2-1.9c-0.1-0.6-0.2-1.2-0.3-1.7c0-0.2,0-0.3,0-0.5c-0.4-1.8-0.8-3.6-1.2-5.4
					c-0.2-0.9-0.4-1.7-0.6-2.6c-0.1-0.6-0.6-1.2-0.7-1.8c-0.1-0.6,0.1-1.4-0.7-1.7c-0.1,0,0-0.3-0.1-0.4c-0.6-0.9-1.1-1.8-2.3-2.1
					c-1.1-0.2-2-0.9-2.6-1.9c-0.5,0-1,0-1.5,0c-0.3,1.1-0.3,2.2-0.9,3.2c-0.1,0.2-0.1,0.5-0.1,0.7c-0.1,0.5-0.1,0.9-0.2,1.4
					c0,0.2-0.1,0.5-0.1,0.7c0,0.9,0,1.9,0,2.8c0,0.1,0,0.2-0.1,0.3c-0.5,0.4-0.2,0.9-0.1,1.3c0.1,0.6,0.3,1.3,0.5,1.9
					c0,0.2,0,0.4-0.1,0.5c-0.7,0.9-0.1,1.8-0.2,2.7c0,0.3,0.1,0.6,0,0.9c-0.1,0.1-0.1,0.3,0,0.4c0.5,0.9,0.2,1.7,0,2.6
					c0,0.3-0.1,0.6-0.1,0.9c0,1.4,0.3,2.8,0.1,4.2c0,0.1,0,0.2,0,0.3c0.2,1.1,0.1,2.1,0.1,3.2c0,0.8,0,1.5,0.1,2.3
					c0,0.7,0.1,1.4,0.1,2.1c0,1.5-0.2,3-0.1,4.5c0.1,1.2-0.2,2.5,0.2,3.7c0,0.1,0,0.1,0,0.2c-0.1,1.3-0.2,2.6-0.2,3.9
					c0,0.9-0.1,1.8,0.1,2.6c0.2,1.2-0.2,2.3,0.1,3.5c0.2,0.7-0.2,1.5-0.3,2.3c0,0.3,0,0.6-0.1,0.9c-0.1,0.8,0.2,1.6-0.2,2.4
					c-0.2,0.4-0.3,0.8-0.4,1.2c-0.2,0.6-0.3,1.3-1,1.7c-1,0.5-2.1,1-3,1.6c-0.3,0.2-0.7,0.4-1.1,0.6c-0.3,0.2-0.7,0.3-1.2,0.5
					c-0.3,0.4-0.7,1.2-1.7,1c-0.1,0-0.2,0.1-0.3,0.2c-1.4,0.8-2.8,1.6-4.1,2.3c-0.5,0.3-1.1,0.5-1.5,1c-0.2,0.2-0.4,0.4-0.6,0.4
					c-0.6,0.1-1.1,0.4-1.5,0.9c-0.2,0.2-0.4,0.4-0.7,0.5c-0.8,0.5-1.6,0.9-2.4,1.4c-0.5,0.3-1,0.5-1.3,0.9c-0.4,0.6-0.8,0.7-1.4,0.6
					c-0.1,0.2-0.2,0.4-0.3,0.6c-0.7-0.2-1.1,0.1-1.6,0.6c-0.2,0.2-0.4,0.4-0.6,0.5c-0.2,0.1-0.5,0.2-0.6,0.1
					c-0.7-0.4-1.5-0.1-2.1,0.1c-0.7,0.2-1.6,0.4-1.8,1.3c0,0.1-0.1,0.2-0.2,0.3c0.3,1,1.4,0.9,2,1.5c0.6-0.2,1.3-0.3,1.8,0.3
					c0.1,0.1,0.2,0.1,0.4,0.1c1,0.2,1.7,0.8,2.6,1.2c0.4,0.2,0.7,0.3,1.1,0.2c0.3,0.7,0.7,1.3,1.6,1.3c0.2,0,0.4,0.2,0.6,0.3
					c0.2,0.1,0.4,0.3,0.6,0.3c0.9,0.3,1.8,0.6,2.7,0.9c0.6,0.2,1.1,0.3,1.7,0.4c0.9,0.2,1.7-0.2,2.5-0.4c1.4-0.4,2.7-1,4-1.4
					c0.2,0,0.4,0.1,0.5,0c0.1-0.3,0.3-0.4,0.6-0.3c0.4,0.2,0.3,0.5,0.1,0.7c-0.4,0.8-0.3,1.6-0.5,2.4c-0.1,0.5-0.5,1-0.6,1.5
					c-0.1,0.6-0.2,1.2-0.8,1.7c-0.1,0.1-0.2,0.4-0.2,0.6c0,0.5-0.1,1-0.4,1.4c-0.2,0.3-0.3,0.7-0.5,1c-0.2,0.4-0.3,0.8-0.4,1.2
					c-0.5,1.5-1.6,2.7-1.7,4.4c-0.2,1.6-1.2,3-2,4.5c-0.6,1.1-1.4,2.2-1.9,3.4c-0.6,1.3-1,2.7-2,3.7c-0.1,0.1-0.1,0.3-0.1,0.4
					c0,1.1,0,1.1-1,1.6c-0.3,0.8-0.5,1.6-0.9,2.3c-0.3,0.6-0.8,1.1-1.2,1.6c-0.2,0.3-0.3,0.7-0.5,1c-0.2,0.4-0.3,0.9-0.6,1.2
					c-1,0.8-1.3,1.9-2,2.8c-0.3,0.4-0.5,0.8-0.9,1.1c-0.7,0.7-1.4,1.3-1.8,2.2c-0.1,0.3-0.3,0.6-0.5,0.7c-0.7,0.5-1.3,1.1-1.5,2.1
					c0,0.2-0.3,0.3-0.5,0.5c-0.4,0.3-0.8,0.6-1.1,0.9c-0.4,0.5-0.8,1.1-1.2,1.7c-0.1,0.1-0.4,0.3-0.6,0.3c-0.5-0.1-0.5,0.2-0.8,0.5
					c-0.6,0.8-1.1,1.7-2.1,1.9c-0.1,0-0.3,0.1-0.4,0.3c-0.5,0.6-1,1.2-1.6,1.7c-0.6,0.6-1.3,1.2-2.1,1.6c-1,0.5-1.7,1.4-2.4,2.2
					c-0.2,0.3-0.4,0.6-0.6,0.8c-0.4,0.4-0.9,0.6-1.2,1.1c-0.3,0.5-0.9,0.7-1,1.2c0,0.1-0.2,0.2-0.4,0.2c-1.1,0.1-1.7,1.1-2.5,1.6
					c-0.2,0.1-0.3,0.4-0.3,0.6c0,0.7-0.5,1.3-0.6,2c-0.2,1.3-1.2,2.6-0.3,4c0.2,0.3,0.2,0.8,0.2,1.3c0.1,0.5,0.1,0.9,0.2,1.4
					c0.1,0.3,0.1,0.7,0.3,0.9c0.7,0.5,1,1.2,1.4,1.8c0.1,0.1,0.2,0.2,0.4,0.3c0.3,0.2,0.6,0.4,0.9,0.6c0.6,0.5,1.1,0.6,1.9,0.4
					c0.3,0.5,0.8,0.6,1.3,0.6c0.7-0.1,1.3,0.2,1.9,0.5c0.2,0.1,0.4,0.2,0.6,0.1c0.5-0.1,0.9-0.2,1.4-0.4c0.4-1,1.3-1.2,2.1-1.4
					c0.9-0.9,1.6-2.1,2.7-2.7c0.3-0.7,0.8-1.2,1.5-1.6c0-0.6,0.8-0.8,0.6-1.4c0-0.1,0.2-0.3,0.4-0.4c0.2-0.1,0.5-0.2,0.8-0.4
					c0.1-1.4,1.3-2.1,2.3-2.9c0.1-0.1,0.2,0,0.3-0.1c0.7-0.1,1.1-0.7,1.3-1.2c0.1-0.5,0.4-0.7,0.8-0.8c0.2-0.1,0.5-0.1,0.6-0.2
					c1.1-0.7,1.9-1.6,2.6-2.7c0.4-0.7,1-1.4,1.8-1.8c0.9-0.5,1.9-1,2.6-1.5c0.2-0.5,0.2-0.9,0.4-1.1c0.4-0.4,1-0.6,1.3-1
					c0.8-1.2,2-2,2.5-3.4c0.2-0.6,0.6-1,1.1-1.3c0.5-0.3,0.9-0.8,1.2-1.3c0.4-0.6,0.6-1.3,1.4-1.6c0.3-0.1,0.5-0.6,0.8-0.9
					c0.1-0.2,0.3-0.4,0.4-0.5c1.1-0.5,2.1-1.2,2.9-2.1c0.1-0.2,0.3-0.3,0.5-0.4c0.7-0.4,1-1.2,1.9-1.4c0-0.9,1-0.8,1.5-1.3
					c0.1-0.1,0.3-0.2,0.5-0.3c0.6-0.5,1-1.1,1.9-1c0.1,0,0.3-0.3,0.4-0.4c0.1-0.1,0.2-0.3,0.3-0.5c0.4,0.5,1.1,0.6,0.9,1.4
					c0.4-0.2,0.7-0.4,0.9-0.5c-0.2-0.4-0.4-0.8-0.6-1.1c0.4-0.5,0.9-0.8,1.2-1.2c1.2-1.2,2.5-2.4,4-3.3c0.3-0.2,0.6-0.3,0.8-0.5
					c1.1-1.1,2.5-1.7,3.8-2.7c0.8-0.6,1.7-1.2,2.6-1.7c0.6-0.3,1.2-0.7,1.8-1.1c0.3-0.2,0.8-0.4,0.9-0.8c0.2-0.5,0.5-0.6,0.8-0.9
					C149.6,154.3,150.2,154,150.6,153.6z"/>
			</g>
			<g>
				<path class="st1" d="M175.9,65.7c0.1,0.8-0.2,1.6,0.2,2.4c0,0.1,0,0.2,0,0.3c0,0.7,0,1.4,0.1,2.1c0.1,1,0.3,2,0.3,3.1
					c0.1,0.7-0.1,1.5,0.2,2.2c0.4,1.2,0,2.5,0.4,3.8c-0.6,1.1,0.6,2.2,0,3.3c0,0,0,0.1,0,0.2c0.1,0.9,0.6,1.8,0.3,2.8
					c-0.1,0.3,0.1,0.7,0.3,1c0.1,0.2,0.3,0.5,0.2,0.7c-0.3,0.9,0.3,1.7,0.2,2.5c-0.1,0.8,0.6,1.6,0.1,2.5c0,0.1,0.1,0.3,0.1,0.4
					c0.1,0.2,0.1,0.5,0.1,0.7c0,0.2,0.1,0.5,0.1,0.7c0,0.2,0.2,0.5,0.1,0.7c-0.2,0.7-0.1,1.3,0.1,1.9c0.1,0.2,0,0.5,0,0.8
					c0,0.2,0,0.4,0,0.5c0.5,0.5,0.3,1.1,0.2,1.6c-0.2,0.8-0.1,1.6,0.2,2.3c0.1,0.4,0.2,0.8,0.2,1.2c0.1,0.3,0.1,0.6,0.1,0.9
					c0.1,0.8,0.6,1.4,0.4,2.3c-0.1,0.6,0,1.3,0.2,1.8c0.2,0.8,0.8,1.4,0.4,2.3c0,0,0,0.1,0.1,0.2c0.3,0.6,0.6,1.3,1,1.9
					c0.1,0.2,0.3,0.4,0.5,0.5c0.2,0.2,0.5,0.4,0.7,0.6c0.6,0.7,1.6,0.9,2.1,1.7c0.7,0,1.2,0.4,1.8,0.6c0.1,0,0.3,0,0.4,0
					c0.4-0.4,0.8-0.1,1.2,0c0.6,0.2,1.2,0.4,1.8,0.6c0.3,0.1,0.7,0.1,1,0.2c1.1,0.1,2.1,0.8,3.2,0.4c0.1,0,0.3,0,0.4,0.1
					c0.5,0.2,1,0.5,1.5,0.7c1.2,0.3,2.3,0.7,3.3,1.4c0.4,0.3,1,0.3,1.5,0.4c0.9,0,1.7-0.1,2.5-0.6c0.4-0.3,0.7-0.5,1-0.9
					c0.4-0.6,0.9-1.2,1.3-1.8c0.4-0.6,0.6-1.2,0.1-1.8c0.1-0.2,0.2-0.3,0.3-0.5c0.4-0.6,0.6-1.2,0.3-1.9c-0.1-0.4,0-0.7,0-1
					c0.2-0.7,0.7-1.5-0.3-2.1c-0.1-0.1-0.1-0.3-0.1-0.4c-0.1-0.3-0.1-0.6-0.3-0.9c-0.3-0.5-0.6-0.9-0.8-1.4c-0.5-1.2-1-2.4-1.4-3.6
					c-0.3-0.9-0.6-1.8-1-2.7c-0.1-0.3-0.3-0.5-0.3-0.8c0.1-0.9-0.5-1.5-0.6-2.3c-0.2-1.1-1.1-1.9-1-3.1c0-0.1-0.1-0.2-0.1-0.2
					c-0.5-0.1-0.3-0.4-0.2-0.7c0-0.1,0.2-0.3,0.1-0.4c-0.2-0.6-0.3-1.3-0.5-1.9c-0.3-0.8-0.6-2.5-0.7-3.3c0-0.4-0.2-0.9-0.4-1.3
					c-0.9-0.2-0.8-1.2-0.9-1.8c-0.1-0.6-0.1-1.3-0.3-1.9c-0.2-0.7-0.2-1.4-0.4-2.2c-0.2-0.6-0.3-1.3-0.7-1.6c-1.1-0.9-1.8-2-2.3-3.3
					c-0.5-1.3-1.1-2.6-2.1-3.6c-0.3-0.3-0.5-0.7-0.5-1.1c-0.1-0.6-0.5-0.9-0.9-1.2c-0.2-0.1-0.4-0.4-0.5-0.6
					c-0.4-0.9-1.1-1.5-1.7-2.1c-0.5-0.5-1.1-0.9-1.5-1.4c-0.5-0.6-1-1-1.8-1.1c-0.1-0.8-0.6-1.2-1.4-1.4c-0.7-0.2-1.4-0.5-2.2-0.7
					c-1.1-0.4-1.7-0.1-2.4,1c-0.6-0.3-1.1-0.6-1.7-0.9c-0.5-0.2-1-0.3-1.5-0.3c-0.6,0.1-1.1,1-1,1.8C175.6,64.4,175.8,65,175.9,65.7
					z"/>
			</g>
			<g>
				<path class="st1" d="M227.4,93.5c0.7-0.3,1.5-0.5,2.2-0.8c-0.3-0.9-0.1-1.1,0.7-1.3c0.3-0.1,0.8-0.3,0.8-0.5
					c0-0.5,0.3-0.6,0.6-0.9c0.5-0.4,0.9-1,1.4-1.4c0.2,0.3,0.4,0.6,0.5,1c0.1,0.2,0.3,0.5,0.2,0.7c-0.3,0.5,0.1,0.8,0.3,1.2
					c0.3-0.1,0.6-0.2,0.9-0.2c0.3,0,0.5,0,0.8-0.1c0.8-0.1,1.2-0.8,1.7-1.2c0.8-0.8,1.6-1.6,2.4-2.4c0.2-0.2,0.4-0.2,0.6-0.3
					c-0.1,0.7-0.3,1.2-0.9,1.6c-0.2,0.1-0.3,0.4-0.5,0.6c0.1,0.1,0.2,0.2,0.2,0.3c-0.2,0.6-0.5,1.1-0.7,1.7c0,0.1,0,0.2,0,0.3
					c0.3,0.1,0.5,0.1,0.8,0.2c-0.3,0.2-0.6,0.4-0.8,0.5c0.9-0.5,1.4,0.4,2.1,0.6c0.7-0.5,1.3-1,1.9-1.5c0.3,0.2,0.5,0.3,0.7,0.5
					c0.4-0.2,0.7-0.4,1-0.6c1-1,2-2.1,3-3.1c1-1,1.7-2.1,2.6-3.2c0.5-0.6,1.1-1.3,1.6-1.9c0.5-0.6,0.9-1.2,1.4-1.8
					c0.6-0.7,1.2-1.4,1.9-2.1c0.3-0.3,0.6-0.6,0.9-0.8c0.5-0.3,1.1-0.2,1.3-0.9c0.9-0.5,1.7-0.9,2.6-1.5c0.6-0.4,1.2-0.9,1.8-0.9
					c0.8-0.1,1.3-0.6,2-0.8c0.4-0.1,0.8-0.1,1.1-0.3c1.4-0.8,2.9-1.2,4.5-1.7c0.3-0.1,0.6-0.2,0.9-0.5c0.3-0.4,0.7-0.8,1.3-0.9
					c1.1-0.3,1.6-1.2,2.3-2c0.1-0.1,0.2-0.4,0.2-0.6c0-0.4,0-0.7,0.1-1.1c0.7-0.5,0.7-0.5,0.4-1.3c-0.1-0.3-0.3-0.7-0.2-1
					c0.1-0.5,0-0.8-0.2-1.2c-0.1-0.3-0.3-0.7-0.2-0.9c0.4-1-0.2-1.6-0.6-2.3c-0.5-0.8-1.2-1.5-1.6-2.4c0-0.1-0.1-0.2-0.1-0.2
					c-0.8-0.6-1.5-1.3-2.3-1.7c-0.7-0.4-1.6-0.5-2.2-1.1c-0.6-0.6-1.5-0.5-2.3-0.8c-0.5-0.2-1.1-0.4-1.6-0.4c-1,0-2,0.3-2.8,0.8
					c-0.2,0.1-0.4,0.3-0.6,0.3c-0.8-0.4-1.7,0.4-2.6-0.1c-0.1,0-0.2,0-0.3,0.1c-0.6,0.1-1.2,0.1-1.9,0.2c-0.2,0-0.4,0.1-0.6,0.2
					c-0.1,0.1-0.2,0.2-0.4,0.3c-0.6,0.2-1.3,0.3-1.9,0.5c-0.5,0.2-1,0.5-1.5,0.8c-0.3,0.2-0.3,0.7-0.7,0.9c-0.3,0.2-0.4,0.8-0.6,1.2
					c-0.1,0.3-0.3,0.5-0.6,0.7c-0.6,0.4-0.7,1.1-0.3,1.7c0.1,0.2,0.3,0.5,0.3,0.7c-0.2,0.6-0.2,1.3-0.8,1.8
					c-0.2,0.1-0.3,0.3-0.4,0.5c-0.4,1.1-1.2,2.1-2,3c-0.3,0.4-0.6,0.7-0.7,1.2c-0.1,0.2-0.3,0.4-0.5,0.5c-0.8,0.4-1.3,1-1.5,1.8
					c-0.1,0.4-0.4,0.7-0.7,1c-0.6,0.7-1.4,1.2-1.8,2.2c-0.3,0.8-0.7,1.7-1.4,2.3c-0.2,0.1-0.2,0.4-0.4,0.5c-0.6,0.7-1.2,1.4-1.8,2
					c-0.4,0.4-0.8,0.8-1.1,1.4c-0.2,0.5-0.6,0.9-0.9,1.3c-0.1,0.1-0.4,0.3-0.4,0.4c0,0.7-0.4,1.1-0.9,1.5c-0.5,0.5-0.5,1.4-1.3,1.6
					c0,0,0,0.1,0,0.2c-0.2,0.7-0.5,1.4-1.2,1.9c-0.2,0.1-0.3,0.2-0.4,0.4c-0.5,0.6-1,1.3-1.6,1.9c-0.3,0.4-0.8,0.7-0.6,1.3
					c0,0.1-0.1,0.3-0.2,0.4c-0.4,0.7-0.7,1.4-1.2,2.3c0.3-0.1,0.5-0.2,0.6-0.2C227.3,93.1,227.3,93.3,227.4,93.5z M229.1,91.7
					c0-0.5,0.3-0.9,0.2-1.3c0,0,0,0,0,0C229.4,90.8,229,91.2,229.1,91.7z M229.3,90.3C229.3,90.3,229.3,90.3,229.3,90.3
					c0.2,0,0.4,0.1,0.8,0.1C229.7,90.4,229.5,90.3,229.3,90.3z"/>
			</g>
			<g>
				<path class="st1" d="M239.1,89.3L239.1,89.3C239.1,89.3,239.1,89.3,239.1,89.3L239.1,89.3z"/>
			</g>
			<g>
				<path class="st1" d="M280.1,152.3c-0.3,0.3-0.7,0.6-1.1,0.8c-0.7,0.5-1.3,1.2-2,1.8c-0.2,0.2-0.5,0.4-0.8,0.5
					c-0.6,0.1-1,0.5-1.3,1c0,0.1-0.1,0.2-0.1,0.2c0.2,0.1,0.4,0.2,0.7,0.4c-0.3,0.3-0.5,0.6-0.7,0.8c-0.3,0.3-0.8,0.5-1.1,0.8
					c-1,0.8-1.9,1.7-2.9,2.5c-0.7,0.6-0.8,0.6-1.4-0.1c0,0-0.1,0-0.1,0c-0.3,0.5-0.5,1-0.7,1.4c-0.1,0.2-0.5,0.3-0.6,0.3
					c-0.9-0.3-1.5,0.2-2.3,0.7c0.2,0.1,0.4,0.2,0.5,0.2c-0.1,0.1-0.2,0.3-0.4,0.3c-0.8,0.3-1.4,0.9-2.1,1.4
					c-0.5,0.3-0.9,0.7-1.6,0.8c-0.4,0-0.7,0.4-1.1,0.6c0.1,0.7-0.5,0.6-0.8,0.9c-0.3,0.2-0.6,0.3-1,0.5c1.4,0.5,2.2-0.6,3.4-0.8
					c-0.1,0.6-0.3,1-0.9,1.1c-0.4,0.1-0.9,0.2-1.3,0.4c0.2,0.1,0.5,0.2,0.7,0.1c0.8-0.2,1.6-0.4,2.3-0.9c0.4-0.3,0.9-0.2,1.4-0.1
					c1,0.2,2,0.2,3,0.3c1-0.6,1.9,0,2.9,0.2c-0.3,0.2-0.6,0.4-1,0.7c0.1,0.3,0.2,0.6,0.4,0.8c0.5,0.3,1.1,0.5,1.7,0.4
					c1.4-0.2,2.9-0.2,4.4-0.2c0.7,0,1.4-0.1,2.1,0c0.7,0,1.3,0.2,2,0.3c0.2,0,0.4,0.1,0.6,0.1c0.9,0,1.8,0.1,2.6-0.1
					c1-0.3,1.8,0,2.7,0.2c0.2,0,0.4,0.1,0.6,0.2c0.6,0.1,1.2,0.3,1.8,0c0.1-0.1,0.3-0.1,0.4,0c0.5,0.3,0.9,0.2,1.4,0
					c0.1,0,0.2-0.1,0.3,0c1.2,0,2.4,0,3.5-0.3c0.1,0,0.3,0,0.5,0c0.5,0,1,0.5,1.4-0.1c0,0,0.2,0.1,0.4,0.1c0.2,0,0.3,0.1,0.5,0
					c0.7-0.2,1.4-0.6,2.1-0.7c0.9-0.1,1.5-0.8,2.2-1.2c1.1-0.6,2-1.5,2.7-2.5c0.3-0.4,0.6-0.9,0.9-1.3c0.3-0.4,0.4-0.9,0.6-1.4
					c0-0.1,0.1-0.2,0.1-0.3c-0.1-1-0.1-1.9,0.1-2.9c0-0.1,0-0.4-0.1-0.5c-0.6-0.5-0.2-1.1-0.3-1.6c0-0.9,0-1.7-0.6-2.5
					c-0.1-0.1-0.2-0.3-0.2-0.4c0-0.6-0.4-0.8-0.7-1.1c-0.3-0.3-0.2-0.9-0.8-1.1c-0.4-0.1-0.8-0.5-1.2-0.8c-0.3-0.2-0.6-0.5-0.9-0.7
					c-0.3-0.2-0.7-0.2-1-0.4c-1-0.7-2.1-1.1-3.2-1.6c-0.8-0.3-1.5-0.6-2.3-0.7c-0.3,0-0.7-0.1-1-0.1c-0.3,0-0.6-0.1-0.9-0.2
					c-0.8-0.3-1.6-0.9-2.5-0.4c-0.1,0-0.2,0-0.3,0c-0.6-0.1-1.3-0.2-1.9-0.2c-0.4,0-0.7,0.2-1.1,0.3c-0.3,0.1-0.5,0.2-0.8,0.2
					c-0.9,0-1.6,0.3-2,1.2c-0.2,0.4-0.6,1-1,1.1C281.8,151,280.9,151.6,280.1,152.3z"/>
			</g>
			<g>
				<path class="st1" d="M139.5,233.6c-0.6-0.6-0.8-1.3-1.2-2c-0.3-0.6-0.4-1.5-1.2-1.9c-0.9-0.5-1.3-1.3-1.3-2.4
					c0-0.8-0.1-1.6-0.1-2.4c-0.2-2.6-0.3-5.1-0.5-7.7c0-0.2-0.1-0.3-0.2-0.5c-0.4,0.6-0.4,1.2-0.4,1.8c0,1.2,0,2.5,0,3.7
					c0,0.6,0.1,1.2,0.1,1.8c-0.8-0.3-0.6-1-0.7-1.5c-0.2-1.7-0.2-3.4-0.4-5.1c-0.1-0.9-0.2-1.7-0.3-2.6c-0.1,0-0.2,0-0.2,0
					c-0.3,1.9,0.2,3.9-0.1,5.9c-0.2-0.3-0.3-0.5-0.4-0.8c-0.6-2.7-1.2-5.4-1.8-8.1c-0.1-0.4-0.4-0.9-0.6-1.3c-0.2-0.3-0.4-0.7-0.5-1
					c-0.4-1.3-0.7-2.6-1-4c-0.1-0.6-0.1-1.2-0.2-1.8c-0.5-2.2-1.1-4.4-1.7-6.6c-0.1-0.2-0.2-0.4-0.3-0.5c-0.2,0.4-0.2,0.7-0.1,1
					c0.1,0.4,0.2,0.8,0.3,1.2c0.8,3.9,1.5,7.7,2.3,11.6c0.5,2.4,1,4.8,1.5,7.2c0.3,1.7,0.7,3.3,0.8,5.1c0,0.4,0,0.8-0.3,1
					c-0.6,0.5-0.6,1.1-0.2,1.8c0.2,0.3,0.4,0.6,0.6,0.9c0.4,0.5,0.7,2,0.7,2.7c0,0.8,0,1.7,0.1,2.5c0.1,0.9,0.2,1.8,0.5,2.7
					c0.2,0.7,0.4,1.6,1.4,1.7c0.2,0,0.3,0.2,0.5,0.3c1.2,0.7,2.4,0.4,3.1-0.8c0.1-0.1,0.2-0.2,0.3-0.3c0.5,0.4,0.9,0.7,1.3,1.1
					c0.3-0.1,0.6-0.1,0.8-0.2c0.5-0.2,0.6-0.6,0.3-1C140.1,234.4,139.9,233.9,139.5,233.6z"/>
			</g>
			<g>
				<path class="st1" d="M132.5,176c0.2,0.1,0.4,0.4,0.3,0.5c-0.1,1.2,0.1,2.4-0.3,3.5c-0.2,0.4-0.1,1-0.1,1.5c0,0.3,0,0.7,0.3,0.9
					c0.1,0.1-0.2,0.6-0.3,0.9c0,0,0,0.1,0,0.1c0,0.3,0,0.5,0,0.8c0,0.7,0,1.4,0,2.1c0,0.6,0,1.2,0.1,1.7c0,0.9,0.1,1.8,0.2,2.7
					c0.1,0.5,0.6,1,0.1,1.6c0,0,0,0.2,0.1,0.3c0.6,0.6,0.4,1.3,0.3,2c-0.1,1,0.1,1.9,0.3,3c0.3-0.2,0.5-0.3,0.5-0.4
					c0.1-0.8,0.1-1.7,0.1-2.5c0-0.1,0-0.1-0.1-0.2c-0.6-0.4-0.4-0.9-0.3-1.4c0.1-0.9,0-1.8-0.1-2.7c-0.1-0.3,0.1-0.6,0.1-1
					c0-0.2,0-0.4,0-0.6c0-0.2,0.5-0.1,0.2-0.5c-0.1-0.2-0.2-0.4-0.2-0.7c-0.2-1.6,0.1-3.3-0.3-4.9c0-0.1,0-0.3,0-0.4
					c0-0.9,0-1.9,0-2.8c0-0.5-0.2-1,0.4-1.3c0,0,0-0.4-0.1-0.4c-0.6,0-0.5-0.5-0.5-0.8c0-0.4,0.1-0.8,0.1-1.2
					c-0.1-0.6,0-1.1,0.4-1.5c0.1-0.1,0.1-0.2,0.1-0.4c-0.2,0-0.3,0-0.5-0.1c0.2-1.7,0.2-3.3-0.3-4.9c-0.2,0.1-0.3,0.3-0.3,0.4
					c0,0.9,0.1,1.8,0.1,2.7c0,0.8-0.1,1.5-0.2,2.3c0,0.1-0.2,0.2-0.3,0.2C131.7,175.1,131.7,175.5,132.5,176z"/>
			</g>
			<g>
				<path class="st1" d="M133,213.8c0,0.3,0,0.5,0.5,0.4c-0.3-2.6-0.5-5.2-0.8-7.9c-0.1,0-0.2,0-0.3,0c0,1.1,0.1,2.2,0.2,3.2
					C132.8,210.9,133,212.3,133,213.8z"/>
			</g>
			<g>
				<path class="st1" d="M188.7,192.3c-0.2,0-0.4,0.2-0.6,0.3c-0.1-0.2-0.1-0.3-0.2-0.5c-0.5,0.1-0.8,0.3-0.8,0.8
					c0,0.4-0.1,0.7-0.4,1c-0.2,0.1-0.3,0.4,0,0.6c0.3,0.2,0.5,0.2,0.7-0.2c0.1-0.2,0.2-0.5,0.3-0.5c0.6,0,0.8-0.6,1.2-0.8
					c0.3-0.1,0.5-0.3,0.3-0.6C189.2,192.3,188.9,192.3,188.7,192.3z"/>
			</g>
			<g>
				<path class="st1" d="M227.9,94.7c-0.1-0.1-0.2-0.2-0.2-0.2c-0.5,0.3-0.9,0.6-1.4,0.8c-0.6,0.2-0.6,0.5-0.7,1.1
					C226.5,96,227.2,95.4,227.9,94.7z"/>
			</g>
			<g>
				<path class="st1" d="M131.6,194.9c0.1,0.6,0.2,1.1,0.3,1.6c0.3-1.2,0.3-1.5,0-2.4C131.7,194.5,131.5,194.7,131.6,194.9z"/>
			</g>
			<g>
				<path class="st1" d="M133.9,199.5c0-0.5-0.1-1-0.1-1.5c-0.1,0-0.2,0-0.2,0c-0.1,0.5-0.2,1,0.1,1.5
					C133.7,199.5,133.8,199.5,133.9,199.5z"/>
			</g>
			<g>
				<path class="st1" d="M232.5,90.1c-0.2,0.1-0.3,0.2-0.5,0.3c0,0,0,0.2,0.1,0.2c0.2,0,0.4,0.1,0.6,0c0.2-0.1,0.3-0.2,0.4-0.4
					c0-0.1-0.1-0.1-0.1-0.2C232.8,90,232.6,90.1,232.5,90.1z"/>
			</g>
			<g>
				<path class="st1" d="M131.5,152.6c0.4-0.3,0.4-0.3,0.1-1.1C131.4,151.9,131.2,152.2,131.5,152.6z"/>
			</g>
			<g>
				<path class="st1" d="M134.7,215.4c0,0.4,0,0.7-0.1,1.1C135.3,216,135.3,215.9,134.7,215.4z"/>
			</g>
			<g>
				<path class="st1" d="M132.6,203.2c-0.1-0.5-0.2-0.9-0.3-1.4c-0.1,0.5-0.3,1,0.1,1.5C132.4,203.2,132.5,203.2,132.6,203.2z"/>
			</g>
			<g>
				<path class="st1" d="M132.2,198.3c0-0.3,0.2-0.7-0.3-0.9C131.8,198.1,131.8,198.1,132.2,198.3z"/>
			</g>
			<g>
				<path class="st1" d="M131.6,191.1c0.1-0.4,0.2-0.6,0.3-0.9C131.4,190.4,131.4,190.4,131.6,191.1z"/>
			</g>
			<g>
				<path class="st1" d="M238.2,89.9c0.3-0.2,0.6-0.4,0.9-0.6C238.5,89.1,238.4,89.2,238.2,89.9z"/>
			</g>
			<g>
				<path class="st1" d="M239.1,89.3C239.1,89.3,239.1,89.3,239.1,89.3C239.1,89.3,239.1,89.3,239.1,89.3
					C239.1,89.3,239.1,89.3,239.1,89.3z"/>
			</g>
			<g>
				<path class="st1" d="M258,168.9c0,0-0.1-0.1-0.1-0.1c-0.2,0.2-0.4,0.3-0.6,0.5C257.9,169.6,257.8,169.1,258,168.9z"/>
			</g>
			<g>
				<path class="st1" d="M257.4,166.4c-0.2,0.1-0.3,0.2-0.5,0.3c0.4,0.4,0.5,0.2,0.6-0.2C257.6,166.6,257.5,166.5,257.4,166.4z"/>
			</g>
			<g>
				<path class="st1" d="M134.3,209.6c-0.1,0-0.2,0-0.2,0c0,0.2,0,0.5,0.1,0.7c0.1,0,0.1,0,0.2,0
					C134.3,210.1,134.3,209.9,134.3,209.6z"/>
			</g>
			<g>
				<path class="st1" d="M220.4,102.5c0-0.1,0-0.1,0-0.2c-0.2,0-0.4,0-0.6,0c0,0.1,0,0.2,0,0.2C220,102.5,220.2,102.5,220.4,102.5z"
					/>
			</g>
			<g>
				<path class="st1" d="M132,198.8c0,0.3-0.1,0.5-0.1,0.7C132.3,199.2,132.3,199.2,132,198.8z"/>
			</g>
			<g>
				<path class="st1" d="M131.2,177.5c0,0.2,0,0.5,0,0.7c0.1,0,0.2,0,0.3,0c0-0.2-0.1-0.5-0.1-0.7
					C131.3,177.5,131.3,177.5,131.2,177.5z"/>
			</g>
			<g>
				<path class="st1" d="M131.4,185.6c0,0,0.2,0.1,0.2,0.1c0.1-0.2,0.1-0.3,0.2-0.5c-0.1,0-0.2,0-0.3-0.1
					C131.4,185.3,131.4,185.4,131.4,185.6z"/>
			</g>
			<g>
				<path class="st1" d="M133,153.2c0,0.3,0,0.5,0,0.7c0.2-0.1,0.3-0.1,0.4-0.1c-0.1-0.1-0.1-0.3-0.2-0.4
					C133.2,153.4,133.1,153.3,133,153.2z"/>
			</g>
			<g>
				<path class="st1" d="M131.6,187.3c0,0-0.1,0-0.2,0c0,0.2,0,0.4,0,0.7C131.9,187.8,131.7,187.5,131.6,187.3z"/>
			</g>
			<g>
				<path class="st1" d="M132.4,168.5c-0.1,0-0.1,0-0.2,0c0,0.2,0,0.4-0.1,0.6c0.1,0,0.1,0,0.2,0
					C132.4,168.8,132.4,168.6,132.4,168.5z"/>
			</g>
			<g>
				<path class="st1" d="M132.8,194c0,0-0.1,0-0.1,0c0,0.2,0,0.4,0,0.6c0,0,0.1,0,0.1,0C132.8,194.4,132.8,194.2,132.8,194z"/>
			</g>
			<g>
				<path class="st1" d="M224,95.3c0-0.1-0.1-0.1-0.1-0.2c-0.3,0-0.4,0.2-0.5,0.5c0,0,0,0,0.1,0.1C223.6,95.6,223.8,95.5,224,95.3z"
					/>
			</g>
			<g>
				<path class="st1" d="M132.5,205.1C132.5,205.1,132.4,205.1,132.5,205.1c-0.1,0.2-0.1,0.5-0.1,0.7c0.1,0,0.1,0,0.2,0
					C132.6,205.6,132.5,205.3,132.5,205.1z"/>
			</g>
			<g>
				<path class="st1" d="M222,97.9c0,0-0.1-0.1-0.1-0.1c-0.2,0.1-0.3,0.3-0.5,0.4c0,0,0.1,0.1,0.1,0.1C221.6,98.2,221.8,98,222,97.9
					z"/>
			</g>
			<g>
				<path class="st1" d="M198.6,182.1c0.1-0.1,0.2-0.1,0.2-0.2c0-0.1-0.1-0.2-0.3-0.4c-0.1,0.1-0.2,0.2-0.1,0.3
					C198.5,181.9,198.6,182,198.6,182.1z"/>
			</g>
			<g>
				<path class="st1" d="M131.1,169.7c0,0.2,0.1,0.3,0.1,0.5c0.1,0,0.1,0,0.2,0c0-0.2,0-0.3-0.1-0.5
					C131.2,169.7,131.1,169.7,131.1,169.7z"/>
			</g>
			<g>
				<path class="st1" d="M131.2,175.4c0,0.2,0.1,0.3,0.1,0.5c0.1,0,0.1,0,0.2,0c0-0.2,0-0.3-0.1-0.5
					C131.3,175.4,131.2,175.4,131.2,175.4z"/>
			</g>
			<g>
				<path class="st1" d="M248.1,200.2c0.1,0.1,0.3,0.2,0.4,0.3c0-0.1,0.1-0.1,0.1-0.2C248.4,200.2,248.3,200.2,248.1,200.2
					C248.1,200.1,248.1,200.1,248.1,200.2z"/>
			</g>
			<g>
				<path class="st1" d="M225.2,95.6c0-0.1,0-0.1-0.1-0.2c-0.1,0-0.3,0.1-0.4,0.1c0,0.1,0,0.2,0.1,0.2
					C225,95.7,225.1,95.6,225.2,95.6z"/>
			</g>
			<g>
				<path class="st1" d="M131.9,193.3c0-0.1,0.1-0.2,0.1-0.3c0,0-0.1,0-0.1-0.1c-0.1,0.1-0.1,0.2-0.2,0.3
					C131.8,193.3,131.9,193.3,131.9,193.3z"/>
			</g>
			<g>
				<path class="st1" d="M222.9,96.5c0,0-0.1,0-0.1,0c0,0.1-0.1,0.2-0.1,0.4c0.1,0,0.1,0,0.2,0C222.9,96.8,222.9,96.6,222.9,96.5z"
					/>
			</g>
			<g>
				<path class="st1" d="M167.3,136.8c0.1-0.1,0.1-0.2,0.2-0.4c-0.1,0-0.1-0.1-0.2-0.1c-0.1,0.1-0.1,0.3-0.2,0.4
					C167.2,136.7,167.3,136.7,167.3,136.8z"/>
			</g>
			<g>
				<path class="st1" d="M134.8,146.4c0-0.2,0.1-0.4,0.1-0.6c0,0-0.1,0-0.1,0c-0.1,0.2-0.1,0.3-0.2,0.5
					C134.7,146.4,134.8,146.4,134.8,146.4z"/>
			</g>
			<g>
				<path class="st1" d="M133.7,181.6C133.8,181.6,133.8,181.6,133.7,181.6c0.1-0.1,0.1-0.2,0-0.4c0,0,0,0-0.1,0
					C133.7,181.3,133.7,181.5,133.7,181.6z"/>
			</g>
			<g>
				<path class="st1" d="M225.1,96.9c0,0-0.1-0.1-0.1-0.1c-0.1,0.1-0.2,0.1-0.3,0.2c0,0.1,0.1,0.1,0.1,0.2
					C224.9,97.1,225,97,225.1,96.9z"/>
			</g>
			<g>
				<path class="st1" d="M237,93.5c0,0,0.1-0.1,0.1-0.1c0,0,0-0.1-0.1-0.1c-0.1,0.1-0.1,0.1-0.2,0.2C236.9,93.4,236.9,93.5,237,93.5
					z"/>
			</g>
			<g>
				<path class="st1" d="M225.3,94c0-0.1,0-0.2,0-0.2c-0.2,0-0.3,0-0.5,0.1c0,0.1,0,0.1,0,0.2C225,94,225.2,94,225.3,94z"/>
			</g>
			<g>
				<path class="st1" d="M243.8,199.4c0.2,0.4,0.4,0.6,0.7,0.6c0.1,0.1,0.2,0.2,0.5,0.2c0.1,0,0.3,0.1,0.4,0.1
					c-0.1,0.2-0.2,0.5-0.2,0.7c0.6,0.2,1,0.4,1.2,0.9c0.2,0.3,0.8,0.4,1,0.7c0.4,0.6,0.9,0.5,1.2,0.6c-0.2-0.2-0.5-0.6-0.7-1
					c0,0,0,0,0,0c0,0,0,0,0,0c0.9,0.1,1.6,0.5,2.3,1.1c-0.2,0.1-0.5,0.2-0.8,0.4c0.1,0.3,0.2,0.6,0.3,0.6c0.7,0.2,1.1,1,2.1,0.9
					c0-0.3,0-0.5,0-0.8c0.5,0.1,1,0.2,1.5,0.4c0,0.3,0.1,0.7,0.1,1c-0.1,0.1-0.3,0.2-0.2,0.3c0.2,0.3,0.3,0.6,0.6,0.7
					c0.7,0.3,1.1,0.8,1.4,1.4c0.1,0.1,0.2,0.3,0.3,0.3c0.8-0.1,1.4,0.5,2,0.7c0.7,0.3,1.2,0.8,1.9,1.2c0,0.1-0.1,0.1-0.1,0.2
					c-0.3-0.1-0.6-0.1-0.9-0.2c0.6,0.5,1.3,0.8,2,1.1c0.1,0,0.3-0.2,0.5-0.3c0.2,0.3,0.5,0.5,0.5,0.8c0,0.7,0.5,0.8,0.9,1
					c0.1,0.1,0.4,0.1,0.4,0.1c0.3,0.6,0.9,0.9,1.5,1.2c0.8,0.4,1.4,1,2.1,1.5c1,0.7,1.9,1.5,3.1,1.9c0.1,0,0.3,0.1,0.4,0.2
					c0.4,0.3,0.9,0.6,1.4,0.9c0,0,0.1,0.3,0.2,0.5c0.1,0.2,0.2,0.5,0.2,0.7c1.1-0.2,1.1-0.2,1.7,0.7c0.1,0.1,0.1,0.3,0.2,0.3
					c0.2,0.2,0.5,0.5,0.8,0.5c0.6-0.1,0.9,0.3,1.3,0.7c0.1,0.1,0.3,0.3,0.4,0.3c0.6,0,0.7,0.4,0.8,0.9c0.5-0.1,1,0,1.2,0.5
					c0.7-0.3,1,0.4,1.4,0.7c0.4,0.3,0.9,0.6,1.3,0.9c0.4,0.2,0.7,0.3,1,0.6c0.1,0.2,0.4,0.2,0.5,0.3c0.9,0.5,1.8,0.9,2.6,1.4
					c0.7,0.4,1.2,1,2,1.2c0.5,0.1,1.3,0.2,1.6,1c0,0.1,0.2,0.1,0.3,0.1c1.1,0,1.9,0.6,2.6,1.3c0.5,0.5,1.1,0.7,1.7,1
					c0.4,0.2,0.9,0.5,1.3,0.7c0.4,0.2,0.9,0.5,1.3,0.8c0.4,0.2,0.9,0.3,1.3,0.6c0.5,0.3,1,1,1.5,1c1.1,0.2,1.5,1.4,2.5,1.6
					c0,0,0.1,0.1,0.1,0.1c0.2,0.2,0.4,0.3,0.7,0.5c0.8,0.5,1.7,1,2.5,1.5c0.7,0.5,1.2,1.1,1.8,1.6c0.5,0.4,1,0.7,1.6,0.6
					c0.1,0,0.3,0,0.4,0c0.7,0.5,1.3,0.4,2,0.1c0.1-0.1,0.2-0.1,0.4-0.1c0.9-0.1,1.9-0.3,2.8-0.4c0.3,0,0.6,0,0.9-0.1
					c1.3-0.5,2.4-1.3,3.8-1.6c1.2-0.3,2.3-0.6,3.6-0.3c1.3,0.4,2.6,0.2,3.9,0.2c1,0,1.8-0.3,2.3-1.2c0.4-0.6,0.8-1.3,1.1-2
					c0.2-0.3,0.1-0.7,0.3-1c0.3-0.4,0.3-0.9,0.3-1.3c0-0.7-0.6-1.2-0.3-1.9c0,0,0-0.1-0.1-0.2c-0.3-0.2-0.2-0.5-0.2-0.8
					c0-0.3,0.1-0.7-0.1-1c-0.5-1.1-0.6-2.3-0.9-3.4c-0.5-1.6-0.8-3.3-0.8-5c0-1.5-0.2-3-0.4-4.5c-0.5-3.1-1-6.1-1.5-9.2
					c-0.1-0.6-0.2-1.3-0.9-1.5c-0.3,0.1-0.5,0.1-0.7,0.2c-0.4-0.4-0.3-0.8-0.3-1.3c0-0.4-0.2-0.8-0.3-1.3c-0.1-0.4-0.1-0.8-0.2-1.4
					c-0.5-0.2-0.8-0.5-0.3-1.2c0.2-0.4-0.2-0.7-0.6-0.5c-0.1,0-0.2,0.1-0.2,0.1c-0.5-0.2-0.8-0.4-1-0.5c0-0.4,0.1-0.8,0-1.1
					c-0.1-0.2-0.5-0.4-0.8-0.5c0.2-0.1,0.3-0.2,0.5-0.4c-0.4-0.3-0.7-0.6-1.1-0.9c-0.4,0.6,0.1,1.5-0.9,1.7
					c-0.6-1.8-0.6-1.8-1.2-1.6c0.2,0.7,0.3,1.3,0.5,2c0.5,0.1,0.9,0.1,1.1,0.7c0.2,0.8-0.1,1.2-0.6,1.5c-0.1,0.8,0.3,1.3,1,1.9
					c-0.4,0-0.5,0.1-0.8,0.1c0.1,0.6,0.2,1.1,0.8,1.3c0.2,0.1,0.4,0.3,0.6,0.6c0.3,0.6,0,1-0.5,1.4c0.3,0.2,0.5,0.3,0.7,0.4
					c-0.1,0.4-0.1,0.7-0.2,1c-0.1,0-0.3,0-0.4,0c0.2,1.9,0.6,3.7,0.3,5.6c-0.7-0.1-0.8,0-0.7,0.5c0.1,0.6,0.1,0.6-0.7,0.8
					c-0.1-0.4-0.2-0.8-0.2-1.2c0.2-0.9-0.8-1.7-0.2-2.7c0,0-0.1-0.1-0.1-0.2c-0.4-1-0.6-2-1-2.9c-0.4-0.8-0.4-1.8-0.6-2.8
					c-0.2-0.7-0.3-1.4-0.5-2.1c0-0.1-0.2-0.2-0.4-0.4c-0.1,0.5-0.3,0.8-0.4,1.2c-0.8-0.5-0.8-0.5-1-1.2c0.1-0.1,0.3-0.2,0.5-0.3
					c-0.4-0.2-0.7-0.4-1-0.6c0.9-1,0.7-2.5-0.4-3.1c-0.2-0.1-0.4-0.3-0.3-0.6c0.2,0,0.3,0.1,0.7,0.1c-0.4-0.5-0.6-0.7-0.8-1.1
					c-0.2-0.4-0.6-0.7-0.5-1.2c0.1-0.3-0.7-0.6-0.1-1c0.2,0.4,0.3,0.8,0.5,1.3c0.4-1.4,0.1-1.9-1.1-1.8c-0.1-0.3-0.4-0.7-0.3-0.9
					c0.2-0.5-0.1-0.8-0.2-1.1c-0.4-0.8-0.8-1.7-0.8-2.6c0-0.1-0.2-0.1-0.3-0.2c0,0.2,0,0.4,0.1,0.6c0.4,1.8,0.8,3.5,1.2,5.3
					c0.2,0.8,0.5,1.6,0.4,2.4c0,0.7-0.2,1.4,0.5,1.8c0.1,0,0.1,0.2,0.1,0.4c0.2,0.9,0.3,1.8,0.5,2.8c0,0.1,0,0.1-0.1,0.2
					c-0.3-0.1-0.6-0.2-0.9-0.3c0,0.1-0.1,0.1-0.1,0.2c0.2,0.3,0.6,0.6,0.7,0.9c0.1,0.4,0,0.9,0,1.3c0.4,0.1,0.7,0.3,1.1,0.4
					c-0.3,0.4-0.5,0.6-0.7,0.9c0.1,0.3,0.1,0.5,0.2,0.8c0.1,0.5-0.5,0.3-0.5,0.6c0.7,0.7,0.8,1.1,0.8,2.7c-0.6-0.2-0.7-0.3-0.5-0.9
					c0.2-0.3,0.1-0.6-0.1-0.8c-0.4-0.3-0.5-0.7-0.6-1.1c-0.1-0.5-0.3-0.9-0.4-1.2c-0.4-0.2-0.6-0.3-0.7-0.4
					c-0.1-0.2-0.2-0.4-0.3-0.6c-0.2-0.7-0.7-1.3-0.5-2.2c0.1-0.5-0.1-1.2-0.5-1.6c-0.5-0.6-0.6-1.3-0.7-2c-0.1-0.6,0-1.2-0.2-1.8
					c-0.1-0.6-0.5-1.2-0.7-1.8c-0.1-0.2-0.2-0.4-0.2-0.6c0.1-0.7-0.2-1.2-0.5-1.8c-0.1-0.3-0.2-0.7-0.4-1c0.5-0.1,0.5-0.1,1.3,0.4
					c-0.1-0.4-0.1-0.6-0.3-0.8c-0.3-0.4-0.7-0.2-1.1-0.3c-0.5-1.6-1-3.2-2.1-4.6c-0.1,0.2-0.1,0.3,0,0.5c0.3,1.1,0.7,2.2,1.1,3.3
					c0.6,1.9,1.1,3.8,1.4,5.8c0,0.2,0.2,0.5,0.3,0.7c0,0.1,0,0.1,0,0.2c-0.1,0.1-0.3,0.2-0.5,0.4c0.3,0.4,0.5,0.7,0.7,1.1
					c-0.1,0.3-0.2,0.5-0.4,0.8c0.7,0.4,1.1,0.8,1,1.6c0,0.2,0,0.5,0.1,0.6c0.6,0.8,0.4,1.8,0.7,2.6c0.1,0.5,0.2,1-0.4,1.5
					c-0.5-0.7-0.6-1.8-1.6-2.2c0.1,0.8,0.3,1.5,0.4,2.1c0.1,0.7,0.2,1.4,0.3,2.1c0.1,0.8,0.1,1.7,0.4,2.4c0.5,1-0.1,2.1,0.3,3.1
					c0,0.1,0,0.2-0.1,0.4c-0.1,0.3-0.3,0.6-0.4,1c-0.7-0.4-1-1-1.1-1.8c-0.5-0.3-1-0.1-1.3,0.2c0.1,0.9,0.2,1.7,0.2,2.5
					c0,0.4-0.2,0.7-0.5,0.7c-0.7-0.2-1.4,0.4-2.1,0.1c-0.1,0.3-0.2,0.5-0.2,0.7c-0.3,0.9-1.1,1.2-1.9,0.7c-1.1-0.6-2.2-1.2-3.5-1.5
					c-1.5-0.5-2.9-1.3-4.4-1.9c-1.3-0.4-2.4-1.2-3.6-1.8c-0.6-0.3-1.2-0.5-1.8-0.7c-0.3-0.1-0.7-0.2-1-0.4c-0.9-0.5-1.9-0.8-2.8-1.5
					c0,0-0.1,0-0.2-0.1c-1-0.4-2-0.7-2.9-1.1c-0.1-0.1-0.3-0.1-0.4-0.2c-0.7-0.8-1.7-1.1-2.6-1.5c-0.9-0.4-1.9-0.5-2.7-1.2
					c-0.3-0.2-0.5-0.5-0.8-0.6c-1.2-0.3-2.1-1.1-3.2-1.6c-0.8-0.5-1.7-0.9-2.5-1.3c0,0,0,0,0,0c-0.1-0.5-0.5-0.5-0.8-0.4
					c-0.2-0.1-26.2-15.7-38.5-33.1c-0.2-0.3-0.6-0.6-0.9-0.9c-0.8-0.9-1.7-1.7-1.9-3c0-0.2-0.2-0.3-0.3-0.4
					c-0.7-0.8-1.1-1.7-1.4-2.7c0-0.1,0.1-0.3,0.2-0.5c0-0.1,0.2-0.2,0.2-0.3c-0.4-0.8,0.3-0.9,0.7-1.2c0.3-0.2,0.5-0.3,0.8-0.5
					c0.4-0.4,0.8-0.9,1.3-1.2c1.3-0.8,2.7-1.3,4-2.1c0.2-0.1,0.5-0.1,0.7-0.2c0.6-0.1,1-0.2,1.4-0.7c0.2-0.2,0.4-0.5,0.7-0.5
					c1.7-0.3,3-1.3,4.5-2c0.6-0.3,1-0.8,1.7-0.7c0.1,0,0.4-0.2,0.5-0.4c0.1-0.3,0.3-0.4,0.5-0.4c0.2,0,0.4-0.1,0.5-0.3
					c0.2-0.5,0.7-0.6,1.1-0.6c0.8-0.1,1.3-0.6,1.8-1.2c0.2-0.2,0.4-0.4,0.6-0.5c0.9-0.6,1.9-0.9,2.6-1.8c0.1-0.1,0.2-0.2,0.4-0.3
					c1.1-0.1,1.4-1,2-1.7c0.2-0.2,0.3-0.5,0.5-0.5c1-0.2,1.3-1.2,1.7-1.9c0.3-0.5,0.7-0.4,1-0.7c0.4-0.3,0.1-0.9,0.7-1.2
					c0.5-0.2,0.8-0.6,1.2-1c0.3-0.4,0.6-0.6,0.7-1.1c0-0.1,0.2-0.2,0.3-0.3c0.4-0.3,0.9-0.4,1.3-0.8c0.5-0.4,1-0.7,1.6-0.8
					c0.6-0.1,1.3-0.2,1.6-0.6c0.4-0.5,0.8-0.6,1.4-0.4c0.8-1,1.8-1.6,3-2.1c0.2-0.1,0.4-0.1,0.6-0.2c0.9-0.1,1.8-0.2,2.7-0.3
					c0.7-0.1,1.4-0.3,2.1-0.3c0.5,0,0.9-0.1,1.2-0.3c0.7-0.5,1.3-1.2,1.9-1.8c0.5-0.6,1-1.2,1.5-1.9c-0.1-0.2-0.1-0.4-0.1-0.5
					c0.5-0.6,1.1-1.1,1.5-1.7c0.2-0.3,0.4-0.7,0.3-0.9c-0.3-1.4,0.1-2.8,0.1-4.2c0-0.8-0.2-1.6-0.5-2.3c-0.4-1-1-2-1.4-3
					c-0.1-0.2-0.2-0.3-0.3-0.5c-0.6-0.6-1.2-1.3-2-1.7c-0.3-0.2-0.4-0.8-0.7-1.1c-0.3-0.3-0.8-0.4-1-0.7c-0.4-0.6-1-0.9-1.6-1.3
					c-0.3-0.3-0.8-0.5-1-0.9c-0.5-0.7-1.3-1.1-2-1.3c-1-0.2-1.8-1-2.8-1.2c-0.2-0.1-0.6,0-0.7-0.2c-0.3-0.5-0.7-0.5-1.1-0.6
					c-0.9-0.3-1.8-0.6-2.8-1c-0.9,0.4-2,0.8-3.1,0.2c-0.1,0-0.2,0-0.3,0c-0.4,0-0.7,0.1-1.1,0.1c-1.2-0.1-2.3-0.3-3.4,0.1
					c-0.1,0-0.3,0-0.4,0c-0.4,0-0.9,0-1.2,0.1c-0.8,0.4-2,0.4-2.6,1.3c-0.1,0.1-0.3,0.2-0.4,0.2c-0.4,0.1-0.7,0.3-0.9,0.7
					c-0.2,0.3-0.5,0.5-0.9,0.3c-0.2-0.1-0.6,0-0.7,0.1c-0.5,0.7-1.3,0.8-2,1.2c-0.7,0.5-1.3,1.1-1.9,1.7c-0.2,0.2-0.4,0.4-0.6,0.5
					c-0.6,0.2-1,0.5-1.4,1c-0.3,0.4-0.7,0.8-1.3,0.8c-0.2,0-0.4,0.1-0.6,0.3c-0.6,0.7-1.6,0.6-2.2,1.3c-0.1,0.1-0.3,0-0.4,0
					c-0.4-0.2-0.7,0-0.8,0.4c-0.2,0.8-1.1,0.6-1.4,1.2c-0.1,0.1-0.3,0.2-0.4,0.2c-0.1,0-0.3,0-0.4,0c-0.2,0-0.3,0-0.4,0.1
					c-0.9,0.7-2.1,0.9-3.1,1.4c-1.1,0.5-2.3,1-3.4,1.5c-0.3,0.1-0.5,0.4-0.8,0.5c-0.1,0.1-0.3,0.2-0.4,0.2c-0.4-0.1-0.5,0.1-0.7,0.4
					c-0.4,0.5-0.6,1.3-1.5,0.9c-0.1,0-0.2,0.1-0.3,0.1c-0.8,0.4-1.7,0.5-2.2,1.4c0,0.1-0.2,0.1-0.2,0.1c-0.9,0.4-1.9,0.7-2.8,1.3
					c-1,0.7-2.2,1-3.3,1.5c-0.1,0.1-0.3,0.2-0.4,0.3c-0.3,0.3-0.6,0.4-0.9,0.6c-0.7,0.4-1.3,0.8-2.1,1.1c-0.8,0.3-1.5,0.8-2.3,1.2
					c-0.6,0.3-1.2,0.7-1.8,0.9c-1.1,0.4-2.2,1-3,1.8c-0.7,0.7-1.5,1.1-2.2,1.5c-0.2,0.1-0.5,0.3-0.7,0.5c-0.2,0.2-0.4,0.3-0.6,0.5
					c-0.2,0.1-0.5,0.2-0.7,0.4c-0.7,0.7-1.4,1.4-2,2c-0.5,0.2-0.9,0.3-1.3,0.4c-0.4,0.2-0.8,0.4-1.2,0.6c-0.7,0.3-1.2,0.8-1.6,1.4
					c-0.1,0.2-0.3,0.4-0.6,0.5c-0.9,0.3-1.4,1.2-2.3,1.3c-0.4,0.8-1.3,1-1.9,1.5c-0.3,0.2-0.5,0.5-0.8,0.6c-0.5,0.1-0.8,0.4-1,0.9
					c-0.2,0.5-0.6,0.7-1.1,0.8c-0.4,0.1-0.7,0.3-1,0.6c-0.8,0.7-1.7,1.4-2.6,2c-0.4,0.3-0.8,0.5-1.1,0.9c-0.1,0.2-0.5,0.4-0.8,0.4
					c-0.3,0.1-0.7,0.1-0.8,0.5c0,0.1-0.2,0.2-0.3,0.2c-0.9,0.4-1.8,1.1-2.6,1.7c-0.8,0.5-1.6,1-2.5,1.4c-0.8,0.4-1.6,0.8-2.3,1.2
					c-0.2,0.1-0.4,0-0.5,0c-0.6-0.6-0.8-1.5-1.8-1.9c-0.4,0.4-0.7,0.8-1.1,1.2c-0.1,0.2-0.3,0.4-0.5,0.5c-0.5,0.2-0.9,0.6-1.1,1.1
					c-0.2,0.4-0.4,0.8-0.7,1.2c-0.1,0.2-0.3,0.5-0.5,0.5c-0.7,0.2-1,0.8-1.2,1.4c-0.2,0.6-0.2,1.2-0.4,1.7c-0.4,1-0.2,2,0.3,2.9
					c0.5,1.1,1,2.1,1.6,3.1c0.4,0.6,1,1,1.6,1.3c0.7,0.3,1.4,0.7,2.2,0.8c1,0.2,1.9,0.7,3,0.7c0.2,0,0.4,0.1,0.5,0.1
					c0.9,0.3,1.7,0.4,2.6,0.1c0.5-0.2,1-0.1,1.5,0c1.1,0.3,2.2,0.6,3.3,0.3c0.5-0.1,1.1-0.1,1.4,0.1c0.7,0.4,1.4,0.3,2.1,0.2
					c0.2,0,0.4-0.1,0.7-0.1c0.9,0.1,1.5-0.2,2.1-0.8c0.1-0.1,0.4-0.2,0.6-0.2c0.2-0.1,0.4-0.1,0.5-0.2c0.3-0.3,0.6-0.5,1-0.7
					c0.5-0.4,0.9-0.9,1.6-1.2c0.1,0,0.1-0.1,0.1-0.2c0.4-0.8,1.3-1.2,2-1.6c0.9-0.5,1.9-0.9,2.9-1.3c0.1,0,0.2-0.1,0.3-0.3
					c0.3-0.6,0.9-0.8,1.4-1c0.5-0.2,1-0.6,1.4-0.9c0.5-0.3,0.9-0.7,1.4-0.9c1-0.3,2-0.7,2.8-1.5c0.1-0.1,0.2-0.1,0.3-0.2
					c0.3-0.1,0.6-0.2,0.9-0.3c0.5,0.7,0.4,1-0.4,1.2c-0.2,0-0.5,0.1-0.6,0.2c-0.8,0.8-1.5,1.6-2.4,2.3c-0.8,0.7-1.3,1.6-2.3,2
					c-0.2,0.1-0.5,0.5-0.5,0.7c0,0.5,0.4,1.2-0.7,0.9c0,0-0.1,0.2-0.1,0.2c-0.1,0.1-0.3,0.2-0.4,0.3c-0.3,0.2-0.6,0.4-0.9,0.6
					c0,0,0,0,0,0c0,0,0,0,0,0h0c-0.3,0.3-0.6,0.6-0.9,0.9c-0.7,0.8-1.4,1.5-2.6,1.5c-0.1,0.5-0.3,0.9-0.4,1.3
					c-0.1,0.5-0.4,0.7-0.9,0.7c-0.9,0-1.2,0.4-1.1,1.4c0.3,0.1,0.5,0.1,0.8,0.2c-0.2,0.9-0.2,0.9-0.6,1.1c-0.4,0.3-0.7,0-1-0.1
					c-0.5-0.1-1.1-0.2-1.5,0.2c-0.5,0.5-0.9,1.1-1.4,1.6c-0.7,0.8-1.5,1.5-2.5,2c-1.1,0.6-1.9,1.6-2.5,2.7c-1,1.6-2.8,2.5-3.6,4.2
					c0,0.1-0.1,0.1-0.1,0.1c-1.5,1.2-2.9,2.7-4,4.2c-0.4,0.6-0.8,1.2-1.3,1.6c-0.7,0.6-1.2,1.3-1.8,2c-0.9,1.2-1.8,2.4-2.8,3.6
					c-0.3,0.3-0.7,0.5-1,0.8c-0.1,0.1-0.3,0.2-0.4,0.3c-0.7,0.8-1.1,1.9-2.2,2.4c-0.1,0-0.1,0.2-0.2,0.3c-0.2,0.3-0.5,0.5-0.7,0.8
					c-0.2,0.2-0.4,0.5-0.6,0.8c-0.5,1.1-1.4,1.8-2.1,2.7c-0.1,0.1-0.3,0.1-0.4,0.2c-0.4,0.2-0.7,0.5-1,0.8c-0.1,0.1-0.2,0.3-0.4,0.4
					c-0.4,0.4-0.8,0.7-1.2,1.1c-0.2,0.2-0.4,0.3-0.6,0.4c-0.5,0.4-1.1,0.8-1.5,1.2c-0.3,0.2-0.4,0.6-0.6,1c-0.5,1-1.1,2-1.2,3.1
					c0,0.2-0.1,0.4-0.2,0.5c-0.7,1.2-1.3,2.4-1.4,3.9c0,0.2-0.2,0.3-0.2,0.5c-0.6,1-1.3,1.9-0.9,3.2c0,0.1-0.1,0.2-0.1,0.3
					c-0.3,0.7-0.5,1.5,0,2.2c0.3,0.5,0.4,1.1,0.6,1.6c0.1,0.3,0.3,0.5,0.5,0.7c0.6,0.5,1,1.1,1.6,1.6c0.7,0.5,1.1,1.2,2.1,1.3
					c0.2,0,0.3,0.2,0.5,0.3c0.6,0.4,1.1,0.9,1.7,1.3c0.1,0.1,0.3,0.2,0.5,0.2c1.1,0,2.2,0.4,3.2,0.8c0.7,0.3,1.5,0.6,2.1,1
					c0.4,0.4,0.8,0.8,1.3,1.1c0.4,0.2,0.8,0.5,1.2,0.8c0.7,0.4,1.4,0.7,2.2,0.6c1-0.1,2-0.2,3-0.4c0.5-0.1,1.2-0.1,1.4-0.8
					c0-0.1,0.2-0.2,0.3-0.2c0.7-0.2,1.3-0.6,1.9-1c1.1-0.6,1.6-1.6,2.1-2.6c0.3-0.6,0.5-1.3,0.5-1.9c0-1.1,0.3-2.1,0.4-3.1
					c0.1-0.6,0.6-1,0.7-1.6c0.2-0.8,1.1-1.4,0.8-2.2c0.8-0.5,1.4-0.9,2.1-1.3c0.4,0.6,0.9,1.2,1.3,1.8c0.2,0.3,0.5,0.7,0.5,1
					c0,1,0.6,1.9,0.1,2.9c-0.1,0.1,0,0.3,0,0.4c0.4,1.1,0.7,2.2,1.2,3.2c0.2,0.5,0.6,0.9,0.9,1.3c0.1,0.2,0.3,0.4,0.4,0.6
					c0.1,0.6,0.4,1,0.9,1.3c0.4,0.3,0.7,0.6,1.1,0.9c0.6-0.5,1,0,1.5,0.4c0.2,0.1,0.4,0.3,0.6,0.4c0.5,0.2,1.1,0.4,1.7,0.6
					c0.5,0.2,1,0.2,1.6,0.2c0.9-0.1,1.7-0.6,2.7-0.3c0.5,0.1,1.1-0.2,1.6-0.3c0.5,0,0.8-0.2,1.2-0.5c0.4-0.4,0.8-0.6,1.4-0.5
					c0.2,0,0.6,0.1,0.7,0c0.8-0.4,1.6-0.7,2.4,0c1,0,2-0.2,2.9-1c0.6-0.5,0.9-1.1,1.2-1.7c0.2,0.1,0.4,0.1,0.5,0.2
					c0.8-0.9,0.8-2,0.6-3.1c0-0.1,0-0.3,0-0.4c0.4-0.5,0.1-1,0-1.4c-0.2-1-0.8-2-0.4-3.1c0-0.1,0-0.2,0-0.3c0-0.1,0-0.2,0.1-0.2
					c0.3-0.1,0.5-0.1,0.7-0.2c0.1-0.7,0.1-1.5,0.4-2c0.4-0.7,0.8-1.4,0.8-2.3c0.1-1.3,0.3-2.6,0-3.8c-0.3-1.3-0.7-2.6-0.7-4
					c0-0.3-0.1-0.6-0.3-0.8c-0.5-0.9-0.5-1.9-0.6-2.8c-0.1-0.4,0.2-0.9,0.2-1.3c0-0.6-0.2-1.2-0.2-1.9c0-1.1-0.4-2.2-0.9-3.3
					c0.1-0.3,0.5-0.8-0.1-1.1c-0.6-0.4-0.7-0.9-0.7-1.5c0-1.5,0.4-2.9,1.3-4.1c0.4-0.5,0.6-1.1,0.8-1.7c0.1-0.1-0.1-0.4-0.2-0.5
					c-0.2-0.2-0.5-0.1-0.7,0.1c-0.1,0.1-0.2,0.2-0.2,0.3c-0.6,0.9-1.1,1.9-1.8,2.8c-0.7,1-1,2.2-2.4,2.7c-0.1,0-0.1,0.1-0.1,0.1
					c-0.4,0.4-0.8,0.7-1.2,1.1c-0.1,0.1-0.4,0.2-0.5,0.2c-0.4-0.2-0.6,0-0.9,0.1c-0.6,0.3-1.1,0.1-1.5-0.4c-0.3-0.5-0.8-0.7-1.4-0.6
					c-0.3,0.1-0.5,0-0.8-0.2c-0.7-0.5-1.4-0.9-2.1-1.3c-0.2-0.1-0.5-0.3-0.7-0.2c-0.5,0.2-0.8-0.1-1.3-0.2c-0.9-0.2-1.9-0.4-2.8-0.7
					c0,0-0.1,0-0.1,0c-0.7,0.2-1.2,0-1.7-0.5c-0.3-0.3-0.5-0.5-1-0.4c-0.4,0.1-0.9,0-1.5,0c0.1-0.3,0.2-0.6,0.4-0.8
					c0.3-0.3,0.6-0.5,0.9-0.7c0.1-0.1,0.1-0.1,0.1-0.2c-0.2-0.1-0.5-0.1-0.8-0.3c0.9-1.4,2.3-2,3.5-2.9c-0.2-0.1-0.5-0.2-0.6-0.4
					c-0.2-0.4,0.3-0.4,0.4-0.6c0.3-0.3,0.7-0.5,1.2-0.5c0.5,0,0.9-0.2,1.3-0.5c0.2-0.2,0.5-0.2,0.9-0.4c-0.1,0.5-0.1,0.9-0.1,1.2
					c-0.8,0.3-0.8,0.3-1,1c0,0.2-0.1,0.5-0.2,0.7c-0.6-0.4-0.6-0.4-1.5,0.8c0.5,0.4,1.1,0.7,1.6,1c0.5-0.3,0.8-0.5,1.2-0.7
					c0.1-0.8,0.2-1.7,0.3-2.6c0.6,0.1,1.1-0.1,1.3-0.7c0.2-0.7,0.7-1,1.3-1.2c0.3-0.1,0.6-0.3,0.6-0.7c-0.6,0-1.2,0-1.7,0
					c-0.1-0.3,0-0.6,0.3-0.8c0.1-0.1,0.2-0.3,0.4-0.6c-0.4,0-0.7,0-1.1,0c0.2-0.3,0.4-0.5,0.5-0.7c0.2-0.7,0.7-0.6,1.2-0.6
					c0.4,0,0.8,0.1,1.3,0.2c-0.2,0.4-0.5,0.7-0.7,1.1c0.8,0.3,1.5-0.2,1.9-0.6c0.5-0.5,0.8-1.1,1.4-1.4c0-0.1-0.1-0.1-0.1-0.2
					c-0.6,0.1-1.2,0.2-1.7,0.3c-0.3-0.2-0.7-0.4-1.2-0.7c0.2-0.1,0.4-0.1,0.5-0.2c0.4-0.4,1.1-0.5,1-1.3c0-0.1,0.2-0.2,0.4-0.3
					c1.1-0.8,2.3-1.6,3.1-2.7c0.3-0.4,0.8-0.6,1.1-0.9c0.4-0.4,1-0.7,1.4-1.2c0.4-0.6,0.9-1.3,1.8-1.5c0.1,0,0.2-0.2,0.4-0.3
					c0.7-0.5,1.3-1.1,1.9-1.6c0.3-0.3,0.6-0.5,0.9-0.8c0.5-0.5,1.1-1.1,1.8-1.3c0.5-0.1,0.7,0,0.6,0.5c0,0.2-0.1,0.4,0,0.5
					c0.3,0.4,0.7,0.7,1,1c0.1,0.5,0.2,1,0.3,1.5c-0.5,0.5-1.1,0.9-1.7,1.5c0.5-0.1,1,0.1,1.2-0.5c0.1-0.2,0.6-0.4,0.8-0.3
					c0.4,0.1,0.7,0.4,0.9,0.8c0.4,0.6,0.7,1.3,1.1,1.9c0.4,0.6,0.7,1.2,1.2,1.7c0.4,0.4,0.9,0.7,1.3,1.1c0.9,1.1,1.7,2.2,2.6,3.3
					c0.4,0.5,0.7,1.1,1.2,1.3c0.9,0.4,1.3,1.2,2,1.7c0.6,0.4,1.1,1,1.7,1.5c0.3,0.3,0.8,0.4,1.1,0.7c1,0.8,1.9,1.6,2.9,2.4
					c0.2,0.2,0.5,0.3,0.8,0.5c0.2,0.1,0.3,0.2,0.5,0.3c0.6,0.4,1.1,0.9,1.7,1.3c0.5,0.3,1.1,0.5,1.6,0.7c0,0.1-0.1,0.3,0,0.3
					c0.6,0.3,1,1,1.8,0.8c0.4-0.6,0.4-0.6,0.9-0.4c-0.8,1-0.7,1.3,0.7,1.7c-0.2,0.5,0.2,0.8,0.6,0.8c0.6,0,1,0.5,1.5,0.8
					c0.3,0.2,0.5,0.5,0.8,0.7c0.7,0.5,1.2,0.4,1.6-0.3c0,0,0.1,0,0.3-0.1c0.1,0.2,0.2,0.4,0.4,0.7c0.3-0.3,0.5-0.5,0.6-0.7
					c0.5,0.2,0.9,0.4,1.3,0.6c0.5,0.2,0.6,0.5,0.4,1c0,0.1-0.1,0.3-0.1,0.4c0,0,0.1,0,0.1,0.1 M199.5,169.2L199.5,169.2
					c-0.1,0.2-0.1,0.4-0.2,0.7C199.3,169.7,199.4,169.4,199.5,169.2z M197.9,170.8c0.1-0.7,0.7-0.9,1.2-1.2
					C198.5,169.8,198,170,197.9,170.8c-0.4,0-0.6,0.1-0.7,0.1C197.3,170.8,197.5,170.8,197.9,170.8z M175.1,193.6L175.1,193.6
					c-0.2,0-0.4,0-0.4-0.1C174.7,193.6,174.9,193.5,175.1,193.6z M174.8,194.1c-0.1,0.1-0.1,0.1-0.2,0.2
					C174.7,194.2,174.8,194.2,174.8,194.1z M175.1,193.6L175.1,193.6c0,0.1,0,0.2-0.1,0.3C175.1,193.8,175.1,193.7,175.1,193.6z"/>
			</g>
			<g>
				<path class="st1" d="M316.7,195.9c0,0.7,0.5,0.9,1.1,1.2c-0.4-1.4-1-2.5-1-3.8c0,0,0-0.1,0-0.1c-0.4-0.6-0.8-1.2-1.2-1.7
					c0,0-0.1,0.1,0,0.1C316.2,193,315.7,194.6,316.7,195.9C316.7,195.9,316.7,195.9,316.7,195.9z"/>
			</g>
			<g>
				<path class="st1" d="M313.7,188.3c1.1,0.6,1.4,1.7,1.9,2.8c0.1-1.6-0.5-2.7-1-3.9c-0.1-0.2-0.2-0.3-0.4-0.4
					c-0.3-0.2-0.6-0.3-0.9-0.5c0,0.2-0.1,0.5,0,0.6C313.6,187.3,313.7,187.8,313.7,188.3z"/>
			</g>
			<g>
				<path class="st1" d="M305.8,213.7c0.5-0.9,0-1.5-0.5-2c-0.4,0.1-0.7,0.2-1.2,0.3c0.1,0.3,0.2,0.5,0.3,0.7
					C304.8,213,305.3,213.4,305.8,213.7z"/>
			</g>
			<g>
				<path class="st1" d="M299.2,193.3c-0.3-0.5-0.6-1-0.8-1.5C298.1,192.7,298.3,193.1,299.2,193.3z"/>
			</g>
			<g>
				<path class="st1" d="M304.6,214.7c0.2,0.7,0.3,1.3,0.5,1.9c0.1,0,0.1,0,0.2,0c0.1-0.2,0.2-0.4,0.2-0.5
					C305.1,215.7,305.2,215,304.6,214.7z"/>
			</g>
			<g>
				<path class="st1" d="M307.5,183.3c-0.2-0.3-0.3-0.6-0.5-0.9c-0.1-0.2-0.2-0.4-0.4-0.6c0.2,0.7,0.1,1.6,0.6,2.2
					C307.7,183.8,307.8,183.6,307.5,183.3z"/>
			</g>
			<g>
				<path class="st1" d="M305.8,211.4c0,0,0.1-0.1,0.1-0.1c-0.2-0.3-0.5-0.5-0.6-0.8c-0.2-0.3-0.2-0.7-0.3-1c-0.1,0-0.2,0.1-0.2,0.1
					c0.2,0.5,0.3,1.1,0.5,1.5C305.2,211.3,305.6,211.3,305.8,211.4z"/>
			</g>
			<g>
				<path class="st1" d="M309.7,190.2C309.7,190.2,309.7,190.2,309.7,190.2L309.7,190.2C309.7,190.2,309.7,190.2,309.7,190.2
					C309.8,190.2,309.8,190.2,309.7,190.2C309.8,190.2,309.7,190.2,309.7,190.2z"/>
			</g>
			<g>
				<path class="st1" d="M309.4,188.7c-0.3,0.6,0.3,1,0.4,1.5c0.1-0.2,0.2-0.4,0.3-0.6C309.8,189.3,309.6,189,309.4,188.7z"/>
			</g>
			<g>
				<path class="st1" d="M318.1,196c0.4-0.8,0-1.2-0.4-1.5C317.8,195,317.9,195.4,318.1,196z"/>
			</g>
			<g>
				<path class="st1" d="M246.7,199.5c0.1,0,0.2,0,0.3,0c0-0.1-0.1-0.1-0.1-0.2C246.8,199.4,246.8,199.5,246.7,199.5z"/>
			</g>
			<g>
				<path class="st1" d="M247.5,200.3C247.5,200.3,247.5,200.3,247.5,200.3L247.5,200.3C247.5,200.3,247.5,200.3,247.5,200.3
					C247.5,200.3,247.5,200.3,247.5,200.3C247.5,200.3,247.5,200.3,247.5,200.3z"/>
			</g>
			<g>
				<path class="st1" d="M247,199.6c0.2,0.2,0.3,0.5,0.5,0.7c0.2,0,0.3,0,0.5,0C247.8,199.7,247.8,199.7,247,199.6z"/>
			</g>
			<g>
				<path class="st1" d="M312.7,183.9c-0.1-0.3-0.3-0.6-0.5-1C311.8,183.6,312,183.9,312.7,183.9z"/>
			</g>
			<g>
				<path class="st1" d="M306.9,188.7c-0.2,0.8-0.2,0.9,0.5,1.1C307.3,189.3,307.3,188.9,306.9,188.7z"/>
			</g>
			<g>
				<path class="st1" d="M311.2,205.7c-0.1-0.5-0.3-1-0.5-1.6c-0.5,0.8,0.4,1.1,0.2,1.7C311,205.7,311.1,205.7,311.2,205.7z"/>
			</g>
			<g>
				<path class="st1" d="M319.3,196.8c-0.1-0.2-0.2-0.4-0.4-0.7c-0.2,0.2-0.3,0.4-0.4,0.6c0.3,0.1,0.5,0.2,0.7,0.3
					C319.2,196.8,319.3,196.8,319.3,196.8z"/>
			</g>
			<g>
				<path class="st1" d="M317,192.2c0.1-0.3,0-0.7-0.4-0.7C316.8,191.7,316.9,192,317,192.2z"/>
			</g>
			<g>
				<path class="st1" d="M316.7,190.8c-0.1-0.2-0.1-0.4-0.2-0.6c-0.1,0-0.1,0-0.2,0c0,0.2,0,0.4,0.1,0.6
					C316.6,190.8,316.7,190.8,316.7,190.8z"/>
			</g>
			<g>
				<path class="st1" d="M306.8,205.3c-0.1,0-0.1,0-0.2,0c0,0.3,0.1,0.6,0.1,0.9c0.1,0,0.1,0,0.2,0
					C306.9,205.9,306.8,205.6,306.8,205.3z"/>
			</g>
			<g>
				<path class="st1" d="M245.2,198.1c0.1-0.4,0-0.5-0.4-0.5c0.1,0.2,0.1,0.4,0.2,0.6C245,198.1,245.2,198.1,245.2,198.1z"/>
			</g>
			<g>
				<path class="st1" d="M244.9,198.1C244.9,198.1,244.9,198.1,244.9,198.1L244.9,198.1C244.9,198.1,244.9,198.1,244.9,198.1
					C244.9,198.1,244.9,198.1,244.9,198.1C244.9,198.1,244.9,198.1,244.9,198.1z"/>
			</g>
			<g>
				<path class="st1" d="M315.3,203.1c0.6-0.4,0.3-0.6-0.1-0.7C315.2,202.6,315.2,202.8,315.3,203.1z"/>
			</g>
			<g>
				<path class="st1" d="M246.7,198.8c0.2,0.1,0.5,0.2,0.7,0.3c0-0.1,0.1-0.1,0.1-0.2c-0.2-0.1-0.5-0.2-0.7-0.3
					C246.8,198.7,246.8,198.8,246.7,198.8z"/>
			</g>
			<g>
				<path class="st1" d="M307.1,203.4c0.1,0.3,0.2,0.5,0.2,0.7C307.5,203.7,307.6,203.5,307.1,203.4z"/>
			</g>
			<g>
				<path class="st1" d="M311.8,193.2c0,0-0.1,0-0.3,0.1c0.1,0.2,0.2,0.3,0.4,0.5C312.1,193.5,312.1,193.3,311.8,193.2z"/>
			</g>
			<g>
				<path class="st1" d="M318.5,213.1c0.1,0,0.2-0.1,0.3-0.2c-0.2-0.2-0.3-0.3-0.5-0.6C318.2,212.7,318.1,213,318.5,213.1z"/>
			</g>
			<g>
				<path class="st1" d="M318.9,197.5c-0.1-0.1-0.3-0.3-0.4-0.4c0,0-0.1,0-0.1,0.1c0.1,0.2,0.2,0.3,0.3,0.5
					C318.8,197.6,318.9,197.6,318.9,197.5z"/>
			</g>
			<g>
				<path class="st1" d="M301.9,200.6c-0.1-0.2-0.1-0.4-0.2-0.5c0,0-0.1,0-0.1,0.1c0,0.2,0.1,0.4,0.1,0.5
					C301.8,200.6,301.9,200.6,301.9,200.6z"/>
			</g>
			<g>
				<path class="st1" d="M317.7,193.8c-0.1-0.2-0.1-0.3-0.2-0.5c-0.1,0-0.1,0.1-0.2,0.1c0.1,0.1,0.2,0.3,0.3,0.4
					C317.6,193.9,317.6,193.8,317.7,193.8z"/>
			</g>
			<g>
				<path class="st1" d="M299.5,196.9c-0.1-0.1-0.1-0.3-0.2-0.4c0,0-0.1,0-0.1,0c0,0.2,0.1,0.3,0.1,0.5
					C299.4,197,299.4,197,299.5,196.9z"/>
			</g>
			<g>
				<path class="st1" d="M309.2,197.2c0-0.1-0.1-0.2-0.1-0.2c-0.1,0.1-0.2,0.1-0.4,0.2c0,0.1,0.1,0.1,0.1,0.2
					C308.9,197.3,309,197.2,309.2,197.2z"/>
			</g>
			<g>
				<path class="st1" d="M309.8,200.4c0,0-0.1,0.1-0.1,0.1c0.1,0.1,0.2,0.2,0.3,0.3c0,0,0.1-0.1,0.1-0.1
					C310,200.6,309.9,200.5,309.8,200.4z"/>
			</g>
			<g>
				<path class="st1" d="M324.3,205.8c0-0.1-0.1-0.1-0.1-0.2c-0.1,0-0.2,0.1-0.2,0.1c0,0,0.1,0.1,0.1,0.2
					C324.2,205.9,324.2,205.8,324.3,205.8z"/>
			</g>
		</g>
	</g>
</g>
</svg>
