<?xml version="1.0" encoding="utf-8"?>
<!-- Generator: Adobe Illustrator 22.0.0, SVG Export Plug-In . SVG Version: 6.00 Build 0)  -->
<svg version="1.1" xmlns="http://www.w3.org/2000/svg" xmlns:xlink="http://www.w3.org/1999/xlink" x="0px" y="0px"
	 viewBox="0 0 181.2 152.2" style="enable-background:new 0 0 181.2 152.2;" xml:space="preserve">
<style type="text/css">
	.st0{fill:none;}
	.st1{fill:#DBD9D7;}
</style>
<g id="Layer_2">
</g>
<g id="Layer_1">
	<g>
		<polygon class="st0" points="551.3,-352.5 551.3,-362.3 551.2,-362.3 546.6,-357.8 		"/>
		<polygon class="st0" points="533.7,-362.3 533.7,-362.3 533.7,-352.5 538.4,-357.8 		"/>
		<polygon class="st0" points="549.7,-362.2 535.2,-362.2 542.5,-355.3 		"/>
		<polygon class="st0" points="542.5,-354 539.1,-357.1 534.3,-351.7 550.7,-351.7 545.8,-357.2 		"/>
		<path class="st1" d="M532.7-363.3v12.6h19.6v-12.6H532.7z M551.3-362.3v9.8l-4.7-5.3L551.3-362.3L551.3-362.3z M533.7-362.3
			L533.7-362.3l4.7,4.5l-4.7,5.3V-362.3z M535.2-362.2h14.6l-7.3,6.9L535.2-362.2z M534.3-351.7l4.8-5.4l3.3,3.2l3.4-3.2l4.8,5.4
			H534.3z"/>
	</g>
	<g>
		<path class="st1" d="M553.5-383.3c0-0.1,0-0.3-0.1-0.4c-0.5-0.9-2.7-4.1-8.4-4.1c0,0,0,0-0.1,0c-5.9,0-8,3.3-8.4,4.1
			c-0.1,0.1-0.1,0.3-0.1,0.4l0,2c0,0.5,0.4,0.9,0.9,0.9c0,0,0,0,0,0l1.8,0v6.5h11.7v-6.6l1.8,0c0.5,0,0.9-0.4,0.9-0.9L553.5-383.3z
			 M550.8-381.4l-0.5,0l-0.5,0l-1.3,0l0-1c0-0.9-0.7-1.7-1.6-1.8c-0.6-0.1-1.3-0.2-2-0.2c0,0,0,0,0,0c-0.7,0-1.3,0.1-2,0.2
			c-0.9,0.2-1.5,0.9-1.5,1.9l0,1l-1.4,0l-0.5,0l-0.5,0l-1.7,0l0-1.8c0.2-0.3,0.7-1.1,1.7-1.9c0.2-0.2,0.5-0.3,0.8-0.5
			c1.2-0.6,2.8-1.2,5.1-1.2l0.1,0c2.2,0,3.9,0.5,5,1.2c0.3,0.2,0.6,0.3,0.8,0.5c0.9,0.7,1.5,1.4,1.7,1.8l0,1.8L550.8-381.4z
			 M549.8-374.9h-9.7v-5.5l1.5,0c0.5,0,0.9-0.4,0.9-0.9l0-1.2c0-0.4,0.3-0.8,0.7-0.9c0.6-0.1,1.2-0.2,1.8-0.2c0,0,0,0,0,0
			c0.6,0,1.2,0.1,1.7,0.2c0.4,0.1,0.7,0.4,0.7,0.9l0,1.2c0,0.5,0.4,0.9,0.9,0.9c0,0,0,0,0,0l1.5,0V-374.9z"/>
		<path class="st1" d="M545-380.2c-1.1,0-2,0.9-2,2s0.9,2,2,2s2-0.9,2-2S546.1-380.2,545-380.2z M545-377.3c-0.5,0-1-0.4-1-1
			s0.4-1,1-1c0.5,0,1,0.4,1,1S545.5-377.3,545-377.3z"/>
	</g>
	<g>
		<path class="st1" d="M540.7-336.3c-3.5,0-6.4,2.9-6.4,6.4c0,3.3,5.7,13.6,5.9,14.1l0.5,0.9l0.5-0.9c0.2-0.4,5.9-10.7,5.9-14.1
			C547.2-333.4,544.3-336.3,540.7-336.3z M540.7-317.3c-1.8-3.4-5.3-10.3-5.3-12.6c0-2.9,2.4-5.3,5.3-5.3c2.9,0,5.3,2.4,5.3,5.3
			C546-327.6,542.6-320.7,540.7-317.3z"/>
		<path class="st1" d="M540.7-332.1c-1.7,0-3,1.3-3,3c0,1.7,1.3,3,3,3c1.7,0,3-1.3,3-3C543.7-330.7,542.4-332.1,540.7-332.1z
			 M540.7-327.2c-1,0-1.9-0.8-1.9-1.9c0-1,0.8-1.9,1.9-1.9c1,0,1.9,0.8,1.9,1.9C542.6-328.1,541.8-327.2,540.7-327.2z"/>
	</g>
	<g>
		<polygon class="st1" points="541.4,-236.5 548.2,-232 549,-233.1 541.4,-238.1 541.4,-238.1 541.4,-238.1 533.9,-233.1 
			534.7,-232 		"/>
		<polygon class="st1" points="541.4,-234.4 541.4,-234.4 533.9,-229.4 534.7,-228.3 541.4,-232.8 548.2,-228.3 549,-229.4 
			541.4,-234.4 		"/>
	</g>
	<path class="st1" d="M544.9-294.5v-2.7h-13.3v10.7h2.6v2.7h13.3v-10.7H544.9z M534.2-287.6h-1.6v-8.7h11.3v1.7h-9.7V-287.6z
		 M546.5-284.8h-11.3v-8.7h11.3V-284.8z"/>
	<g>
		<path class="st1" d="M542.3-268.9c-5,0-9.1,4.1-9.1,9.1s4.1,9.1,9.1,9.1s9.1-4.1,9.1-9.1S547.3-268.9,542.3-268.9z M542.3-251.7
			c-4.5,0-8.1-3.6-8.1-8.1s3.6-8.1,8.1-8.1s8.1,3.6,8.1,8.1S546.8-251.7,542.3-251.7z"/>
		<rect x="541.5" y="-262.7" class="st1" width="1.5" height="8.6"/>
		<path class="st1" d="M543.1-266.1c-0.1-0.1-0.2-0.2-0.3-0.2s-0.3-0.1-0.4-0.1s-0.3,0-0.4,0.1s-0.2,0.1-0.3,0.2
			c-0.1,0.1-0.2,0.2-0.2,0.3c-0.1,0.1-0.1,0.3-0.1,0.4s0,0.3,0.1,0.4c0.1,0.1,0.1,0.2,0.2,0.3c0.1,0.1,0.2,0.2,0.3,0.2
			c0.1,0.1,0.3,0.1,0.4,0.1s0.3,0,0.4-0.1c0.1-0.1,0.2-0.1,0.3-0.2c0.1-0.1,0.2-0.2,0.2-0.3s0.1-0.3,0.1-0.4s0-0.3-0.1-0.4
			C543.3-265.9,543.2-266,543.1-266.1z"/>
	</g>
	<g>
		<path class="st1" d="M569.9-304.5v10c2.8,0,5-2.2,5-5C574.9-302.3,572.7-304.5,569.9-304.5z M572.5-298.6l-0.3,0.2l-0.7-1.1
			l0.7-1.1l0.3,0.2l-0.6,1L572.5-298.6z"/>
	</g>
	<g>
		<g>
			<path class="st1" d="M662.4-315.5H587v-8.8h75.4l2.1,4.4L662.4-315.5z M587.4-315.8h74.8l1.9-4.1l-1.9-4.1h-74.8V-315.8z"/>
		</g>
		<g>
			<g>
				<path class="st1" d="M592.1-318l-0.1-0.2c0-0.1-1.1-2.1-1.1-2.7c0-0.7,0.6-1.2,1.2-1.2c0.7,0,1.2,0.6,1.2,1.2
					c0,0.6-1.1,2.6-1.1,2.7L592.1-318z M592.1-321.9c-0.6,0-1,0.5-1,1c0,0.4,0.7,1.8,1,2.4c0.4-0.7,1-2,1-2.4
					C593.1-321.5,592.6-321.9,592.1-321.9z"/>
			</g>
		</g>
		<g>
			<g>
				<path class="st1" d="M592.1-320.2c-0.3,0-0.6-0.3-0.6-0.6c0-0.3,0.3-0.6,0.6-0.6c0.3,0,0.6,0.3,0.6,0.6
					C592.7-320.4,592.4-320.2,592.1-320.2z M592.1-321.1c-0.2,0-0.4,0.2-0.4,0.4c0,0.2,0.2,0.4,0.4,0.4c0.2,0,0.4-0.2,0.4-0.4
					C592.4-320.9,592.3-321.1,592.1-321.1z"/>
			</g>
		</g>
	</g>
	<g>
		<path class="st1" d="M669-14.9c0-1.7-0.4-3.3-1.2-4.8c-5.6-9.8-30.9-46.6-96.1-46.6c-0.2,0-0.4,0-0.6,0
			c-68,0.2-91.6,37.8-96.5,47.4c-0.7,1.4-1.1,2.9-1,4.5l0.2,22.6c0,5.5,4.5,10,10,10c0,0,0,0,0,0l20.7-0.1v74.4h133.9V17.6l20.9-0.1
			c5.5,0,10-4.5,10-10L669-14.9z M638.3,6.1l-5.7,0l-5.7,0l-15.4,0.1l-0.2-11.7c0-10.4-7.5-19.2-17.8-21.1
			c-7.1-1.3-14.5-1.9-22.3-1.9c0,0,0,0,0,0c-7.6,0-15.1,0.7-22.3,2.1c-10.2,1.9-17.7,10.8-17.6,21.3l0.2,11.6l-15.6,0.1l-5.7,0
			l-5.7,0l-19.3,0.1l-0.2-20.8c1.9-3.6,7.7-12.8,19.5-21.5c2.7-2,5.6-3.9,9-5.8c13.3-7.4,31.9-13.4,57.8-13.5l0.6,0
			c25.5,0,44,6,57.4,13.5c3.4,1.9,6.5,4,9.3,6c10.7,8,16.7,16.5,19.3,20.9l0.2,20.6L638.3,6.1z M626.9,81.1H515.8V18l17.1-0.1
			c5.5,0,10-4.5,10-10l-0.2-13.2c0-4.9,3.5-9,8.3-9.9c6.4-1.2,13.2-1.9,20.3-1.9c0.1,0,0.3,0,0.4,0c6.9,0,13.6,0.6,19.8,1.8
			c4.8,0.9,8.3,5,8.4,9.9L600,7.7c0,5.5,4.5,10,10,10c0,0,0,0,0,0l16.8-0.1V81.1z"/>
		<path class="st1" d="M571.8,19.6c-12.3,0-22.3,10-22.3,22.3s10,22.3,22.3,22.3s22.3-10,22.3-22.3S584.1,19.6,571.8,19.6z
			 M571.8,52.8c-6,0-10.9-4.9-10.9-10.9S565.8,31,571.8,31c6,0,10.9,4.9,10.9,10.9S577.8,52.8,571.8,52.8z"/>
	</g>
	<g>
		<polygon class="st1" points="388.4,-182.5 470.1,-128.3 479.1,-141.9 388.4,-202 388.4,-201.9 388.3,-202 297.6,-141.9 
			306.6,-128.3 		"/>
		<polygon class="st1" points="388.4,-157.5 388.3,-157.5 297.6,-97.4 306.6,-83.8 388.4,-138 470.1,-83.8 479.1,-97.4 
			388.4,-157.5 		"/>
	</g>
	<path class="st1" d="M151.4,31.2V0H0v121h29.8v31.2h151.4v-121H151.4z M29.8,109.7H11.4V11.4H140v19.8H29.8V109.7z M169.9,140.8
		H41.2V42.5h128.7V140.8z"/>
</g>
</svg>
